<svg xmlns="http://www.w3.org/2000/svg" width="56.25" viewBox="0 0 56.25 150" height="150" version="1.0"><defs><clipPath id="a"><path d="M 0 0.988281 L 53 0.988281 L 53 149.011719 L 0 149.011719 Z M 0 0.988281"/></clipPath><clipPath id="b"><path d="M 10.421875 -12.601562 L 98.871094 75.84375 L 10.945312 163.765625 L -77.5 75.320312 Z M 10.421875 -12.601562"/></clipPath><clipPath id="c"><path d="M 10.421875 -12.601562 L 98.871094 75.84375 L 10.945312 163.765625 L -77.5 75.320312 Z M 10.421875 -12.601562"/></clipPath><clipPath id="d"><path d="M 10.421875 -12.601562 L 98.871094 75.84375 L 10.945312 163.765625 L -77.5 75.320312 Z M 10.421875 -12.601562"/></clipPath><clipPath id="e"><path d="M 0 15 L 27 15 L 27 135 L 0 135 Z M 0 15"/></clipPath><clipPath id="f"><path d="M 10.421875 -12.601562 L 98.871094 75.84375 L 10.945312 163.765625 L -77.5 75.320312 Z M 10.421875 -12.601562"/></clipPath><clipPath id="g"><path d="M 10.421875 -12.601562 L 98.871094 75.84375 L 10.945312 163.765625 L -77.5 75.320312 Z M 10.421875 -12.601562"/></clipPath><clipPath id="h"><path d="M 10.421875 -12.601562 L 98.871094 75.84375 L 10.945312 163.765625 L -77.5 75.320312 Z M 10.421875 -12.601562"/></clipPath><clipPath id="i"><path d="M 0 30 L 1 30 L 1 120 L 0 120 Z M 0 30"/></clipPath><clipPath id="j"><path d="M 10.421875 -12.601562 L 98.871094 75.84375 L 10.945312 163.765625 L -77.5 75.320312 Z M 10.421875 -12.601562"/></clipPath><clipPath id="k"><path d="M 10.421875 -12.601562 L 98.871094 75.84375 L 10.945312 163.765625 L -77.5 75.320312 Z M 10.421875 -12.601562"/></clipPath><clipPath id="l"><path d="M 10.421875 -12.601562 L 98.871094 75.84375 L 10.945312 163.765625 L -77.5 75.320312 Z M 10.421875 -12.601562"/></clipPath></defs><g clip-path="url(#a)"><g clip-path="url(#b)"><g clip-path="url(#c)"><g clip-path="url(#d)"><path fill="#E8EEE1" d="M -2.367188 0.1875 C 15.484375 3.226562 33.289062 6.269531 38.292969 16.265625 C 43.277344 26.242188 35.394531 43.195312 36.695312 57.152344 C 37.976562 71.089844 48.402344 82.03125 51.402344 95.621094 C 54.359375 109.210938 49.875 125.429688 39.566406 134.878906 C 29.238281 144.308594 13.0625 146.984375 -3.113281 149.664062 L -77.480469 75.300781 Z M -2.367188 0.1875"/></g></g></g></g><g clip-path="url(#e)"><g clip-path="url(#f)"><g clip-path="url(#g)"><g clip-path="url(#h)"><path fill="#C3D7B0" d="M -17.386719 15.207031 C -3.128906 17.628906 11.148438 20.070312 15.144531 28.070312 C 19.117188 36.046875 12.828125 49.601562 13.851562 60.78125 C 14.878906 71.921875 23.214844 80.691406 25.617188 91.574219 C 27.996094 102.433594 24.394531 115.40625 16.152344 122.960938 C 7.867188 130.515625 -5.058594 132.652344 -17.988281 134.792969 L -77.480469 75.300781 Z M -17.386719 15.207031"/></g></g></g></g><g clip-path="url(#i)"><g clip-path="url(#j)"><g clip-path="url(#k)"><g clip-path="url(#l)"><path fill="#9FC080" d="M -32.410156 30.230469 C -21.722656 32.050781 -11.011719 33.894531 -8.007812 39.871094 C -5.019531 45.871094 -9.738281 56.046875 -8.96875 64.390625 C -8.203125 72.777344 -1.945312 79.332031 -0.167969 87.484375 C 1.632812 95.65625 -1.0625 105.355469 -7.257812 111.039062 C -13.457031 116.722656 -23.160156 118.296875 -32.859375 119.917969 L -77.480469 75.300781 Z M -32.410156 30.230469"/></g></g></g></g></svg>