<svg xmlns="http://www.w3.org/2000/svg" width="56.25" viewBox="0 0 56.25 150" height="150" version="1.0"><defs><clipPath id="a"><path d="M 1 1 L 55.511719 1 L 55.511719 149.011719 L 1 149.011719 Z M 1 1"/></clipPath><clipPath id="b"><path d="M 45.402344 162.390625 L -44.164062 76.140625 L 41.054688 -12.359375 L 130.621094 73.890625 Z M 45.402344 162.390625"/></clipPath><clipPath id="c"><path d="M 45.402344 162.390625 L -44.164062 76.140625 L 41.054688 -12.359375 L 130.621094 73.890625 Z M 45.402344 162.390625"/></clipPath><clipPath id="d"><path d="M 45.402344 162.390625 L -44.164062 76.140625 L 41.054688 -12.359375 L 130.621094 73.890625 Z M 45.402344 162.390625"/></clipPath><clipPath id="e"><path d="M 27 15 L 55.511719 15 L 55.511719 135 L 27 135 Z M 27 15"/></clipPath><clipPath id="f"><path d="M 45.402344 162.390625 L -44.164062 76.140625 L 41.054688 -12.359375 L 130.621094 73.890625 Z M 45.402344 162.390625"/></clipPath><clipPath id="g"><path d="M 45.402344 162.390625 L -44.164062 76.140625 L 41.054688 -12.359375 L 130.621094 73.890625 Z M 45.402344 162.390625"/></clipPath><clipPath id="h"><path d="M 45.402344 162.390625 L -44.164062 76.140625 L 41.054688 -12.359375 L 130.621094 73.890625 Z M 45.402344 162.390625"/></clipPath><clipPath id="i"><path d="M 53 30 L 55.511719 30 L 55.511719 120 L 53 120 Z M 53 30"/></clipPath><clipPath id="j"><path d="M 45.402344 162.390625 L -44.164062 76.140625 L 41.054688 -12.359375 L 130.621094 73.890625 Z M 45.402344 162.390625"/></clipPath><clipPath id="k"><path d="M 45.402344 162.390625 L -44.164062 76.140625 L 41.054688 -12.359375 L 130.621094 73.890625 Z M 45.402344 162.390625"/></clipPath><clipPath id="l"><path d="M 45.402344 162.390625 L -44.164062 76.140625 L 41.054688 -12.359375 L 130.621094 73.890625 Z M 45.402344 162.390625"/></clipPath></defs><g clip-path="url(#a)"><g clip-path="url(#b)"><g clip-path="url(#c)"><g clip-path="url(#d)"><path fill="#E8EEE1" d="M 57.796875 149.515625 C 40.042969 146.785156 22.332031 144.050781 17.15625 134.222656 C 12 124.414062 19.445312 107.492188 17.851562 93.683594 C 16.28125 79.894531 5.714844 69.21875 2.445312 55.800781 C -0.78125 42.378906 3.308594 26.238281 13.320312 16.714844 C 23.351562 7.210938 39.324219 4.304688 55.292969 1.394531 L 130.601562 73.914062 Z M 57.796875 149.515625"/></g></g></g></g><g clip-path="url(#e)"><g clip-path="url(#f)"><g clip-path="url(#g)"><g clip-path="url(#h)"><path fill="#C3D7B0" d="M 72.359375 134.394531 C 58.175781 132.222656 43.972656 130.027344 39.839844 122.164062 C 35.730469 114.324219 41.667969 100.792969 40.410156 89.730469 C 39.152344 78.707031 30.699219 70.148438 28.082031 59.40625 C 25.488281 48.683594 28.777344 35.773438 36.78125 28.15625 C 44.828125 20.542969 57.589844 18.21875 70.355469 15.898438 L 130.601562 73.914062 Z M 72.359375 134.394531"/></g></g></g></g><g clip-path="url(#i)"><g clip-path="url(#j)"><g clip-path="url(#k)"><g clip-path="url(#l)"><path fill="#9FC080" d="M 86.917969 119.273438 C 76.289062 117.636719 65.636719 115.980469 62.527344 110.105469 C 59.4375 104.210938 63.890625 94.050781 62.949219 85.796875 C 62.003906 77.496094 55.664062 71.101562 53.722656 63.054688 C 51.761719 54.984375 54.222656 45.328125 60.242188 39.601562 C 66.257812 33.875 75.839844 32.160156 85.417969 30.402344 L 130.601562 73.914062 Z M 86.917969 119.273438"/></g></g></g></g></svg>