<svg xmlns="http://www.w3.org/2000/svg" viewBox="22.21 19.61 469.66 453.91"><g id="freepik--background-simple--inject-47"><path d="M319.29,61C307.54,42.83,291.16,28.49,268,23,192,5,162,63,146,95c-7.42,14.84-21.9-2.25-28.71-8.76C105,74.46,90.57,59,72,59.86c-7.71.34-15,3.79-21.11,8.55-36.12,28.32-25.56,85.42-17.42,124,4.27,20.17,9.89,40,14,60.23,1.9,9.38,7.24,26.73.54,35.4-17,22-38,94-17,152s91,8,159-21c42.57-18.15,88.13,11.9,124.51,31.29,31.2,16.64,67.54,30.65,102.85,18.76,15.35-5.16,30.29-14.33,35.12-30.74,3.12-10.59,1.61-22-1.41-32.65-7.23-25.47-13.28-52-9.41-78.57,4-27.15,17.64-52.69,27.34-78.09,21-55,40-116-3-164-9.2-10.27-21.44-15.19-34.25-8-17.06,9.66-28,29.22-38.27,45.18-5.21,8.11-15.1,30.63-26.48,31.77-16,1.6-23.4-29.51-26.23-40.6C336.14,95.24,329.44,76.69,319.29,61Z" style="fill:#86BC5C"/><path d="M319.29,61C307.54,42.83,291.16,28.49,268,23,192,5,162,63,146,95c-7.42,14.84-21.9-2.25-28.71-8.76C105,74.46,90.57,59,72,59.86c-7.71.34-15,3.79-21.11,8.55-36.12,28.32-25.56,85.42-17.42,124,4.27,20.17,9.89,40,14,60.23,1.9,9.38,7.24,26.73.54,35.4-17,22-38,94-17,152s91,8,159-21c42.57-18.15,88.13,11.9,124.51,31.29,31.2,16.64,67.54,30.65,102.85,18.76,15.35-5.16,30.29-14.33,35.12-30.74,3.12-10.59,1.61-22-1.41-32.65-7.23-25.47-13.28-52-9.41-78.57,4-27.15,17.64-52.69,27.34-78.09,21-55,40-116-3-164-9.2-10.27-21.44-15.19-34.25-8-17.06,9.66-28,29.22-38.27,45.18-5.21,8.11-15.1,30.63-26.48,31.77-16,1.6-23.4-29.51-26.23-40.6C336.14,95.24,329.44,76.69,319.29,61Z" style="fill:#fff;opacity:0.7000000000000001"/></g><g id="freepik--Hearts--inject-47"><path d="M348,205.25h0a8.15,8.15,0,0,0-11.53,0l-.84.84-.84-.85a8.15,8.15,0,1,0-11.52,11.52l.84.85,11.52,11.52,11.52-11.52.85-.85A8.15,8.15,0,0,0,348,205.25Z" style="fill:none;stroke:#263238;stroke-miterlimit:10"/><path d="M78.46,408.26h0a8.15,8.15,0,0,0-11.09-3.14l-1,.58-.58-1a8.14,8.14,0,1,0-14.22,7.94l.58,1,7.94,14.22,14.23-7.95,1-.58A8.14,8.14,0,0,0,78.46,408.26Z" style="fill:none;stroke:#263238;stroke-miterlimit:10"/><path d="M171.32,280.53h0a8.15,8.15,0,0,0-10.75,4.14l-.48,1.09-1.09-.49a8.15,8.15,0,0,0-6.61,14.9l1.09.48,14.9,6.61,6.6-14.89.49-1.1A8.14,8.14,0,0,0,171.32,280.53Z" style="fill:none;stroke:#263238;stroke-miterlimit:10"/><path d="M196.23,63.06h0a5.33,5.33,0,0,0-7,2.71l-.31.71-.72-.31a5.33,5.33,0,0,0-4.33,9.75l.72.32,9.75,4.32,4.33-9.75.32-.72A5.32,5.32,0,0,0,196.23,63.06Z" style="fill:none;stroke:#263238;stroke-miterlimit:10"/><path d="M261.76,391.31h0a5.33,5.33,0,0,0-7.44-1.25l-.63.45-.46-.64a5.33,5.33,0,0,0-8.69,6.19l.45.64,6.19,8.69,8.69-6.18.64-.46A5.33,5.33,0,0,0,261.76,391.31Z" style="fill:none;stroke:#263238;stroke-miterlimit:10"/><path d="M307.44,59.25h0A5.33,5.33,0,0,0,300,58l-.63.45-.46-.64A5.33,5.33,0,0,0,290.22,64l.45.64,6.19,8.69,8.69-6.18.64-.46A5.33,5.33,0,0,0,307.44,59.25Z" style="fill:none;stroke:#263238;stroke-miterlimit:10"/><path d="M390.93,48.49h0a5.33,5.33,0,0,0-7,2.72l-.32.71-.71-.32a5.34,5.34,0,0,0-4.33,9.76l.72.31L389,66l4.33-9.75.31-.72A5.33,5.33,0,0,0,390.93,48.49Z" style="fill:none;stroke:#263238;stroke-miterlimit:10"/><path d="M56.78,119.85h0a5.33,5.33,0,0,0-7.27-2l-.68.38-.39-.68a5.34,5.34,0,1,0-9.28,5.27l.39.68,5.27,9.28,9.28-5.27.68-.39A5.33,5.33,0,0,0,56.78,119.85Z" style="fill:none;stroke:#263238;stroke-miterlimit:10"/><path d="M97.69,202.34h0a5.34,5.34,0,0,0-7.28-2l-.68.38-.38-.68a5.34,5.34,0,1,0-9.28,5.27l.38.68,5.27,9.28L95,210l.68-.39A5.34,5.34,0,0,0,97.69,202.34Z" style="fill:none;stroke:#263238;stroke-miterlimit:10"/><path d="M439,332h0a5.35,5.35,0,0,0-7.28-2l-.67.39-.39-.68a5.34,5.34,0,1,0-9.28,5.27l.39.68,5.26,9.28,9.29-5.27.68-.39A5.33,5.33,0,0,0,439,332Z" style="fill:none;stroke:#263238;stroke-miterlimit:10"/></g><g id="freepik--Shadow--inject-47"><ellipse cx="250.92" cy="444" rx="81.5" ry="11" style="fill:#263238"/></g><g id="freepik--cactus-6--inject-47"><path d="M382.74,370.68s-8-28,10-36.67,26.67,14.67,21.33,36.67Z" style="fill:#86BC5C;stroke:#263238;stroke-miterlimit:10"/><path d="M400.89,334.92s-9.78,3.26-13.05,13.37a41.22,41.22,0,0,0-1.63,18.59" style="fill:none;stroke:#263238;stroke-miterlimit:10;stroke-width:0.5px"/><path d="M403.17,337.53s-7.82,5.87-9.13,16-1,14-1,14" style="fill:none;stroke:#263238;stroke-miterlimit:10;stroke-width:0.5px"/><path d="M405.78,336.88s-4.24,20.22-4.24,30.65" style="fill:none;stroke:#263238;stroke-miterlimit:10;stroke-width:0.5px"/><path d="M406.11,335.57s5.22,11.09,1.95,31.64" style="fill:none;stroke:#263238;stroke-miterlimit:10;stroke-width:0.5px"/><path d="M408.06,335.57s6.2,9.13,4.24,30.66" style="fill:none;stroke:#263238;stroke-miterlimit:10;stroke-width:0.5px"/><path d="M409.7,335.57s-4.57-7.17-4.24-4.89l.32,2.28s-3.59-.65-3.26,1.31a2.1,2.1,0,0,0,2,2s-4.24.33-2.94,2,5.55-.33,5.55-.33-2,2.29-.33,3.27,2.61-2,2.61-2,.65,4.89,2.28,3.91.33-3.58.33-3.58,3.26,1.3,3.91-.33-1.3-2.28-1.3-2.28,1.3-3.27.32-3.27-2.61,2-2.61,2,1.63-6.85-1-5.22S409.7,335.57,409.7,335.57Z" style="fill:#fff;stroke:#263238;stroke-miterlimit:10"/><line x1="381.71" y1="366.86" x2="380.03" y2="366.69" style="fill:none;stroke:#263238;stroke-miterlimit:10"/><line x1="381.21" y1="363.66" x2="379.02" y2="363.66" style="fill:none;stroke:#263238;stroke-miterlimit:10"/><line x1="381.21" y1="360.97" x2="378.51" y2="360.3" style="fill:none;stroke:#263238;stroke-miterlimit:10"/><line x1="380.7" y1="357.27" x2="379.02" y2="356.09" style="fill:none;stroke:#263238;stroke-miterlimit:10"/><line x1="381.21" y1="353.06" x2="378.35" y2="352.89" style="fill:none;stroke:#263238;stroke-miterlimit:10"/><line x1="381.21" y1="350.37" x2="379.86" y2="348.86" style="fill:none;stroke:#263238;stroke-miterlimit:10"/><line x1="382.22" y1="347.17" x2="380.37" y2="344.82" style="fill:none;stroke:#263238;stroke-miterlimit:10"/><line x1="384.23" y1="342.13" x2="381.54" y2="342.3" style="fill:none;stroke:#263238;stroke-miterlimit:10"/><line x1="386.25" y1="339.44" x2="384.23" y2="338.6" style="fill:none;stroke:#263238;stroke-miterlimit:10"/><line x1="387.77" y1="336.74" x2="386.76" y2="335.4" style="fill:none;stroke:#263238;stroke-miterlimit:10"/><line x1="390.96" y1="335.06" x2="389.45" y2="333.38" style="fill:none;stroke:#263238;stroke-miterlimit:10"/><line x1="394.33" y1="333.21" x2="393.82" y2="330.52" style="fill:none;stroke:#263238;stroke-miterlimit:10"/><line x1="398.53" y1="331.87" x2="398.53" y2="329.34" style="fill:none;stroke:#263238;stroke-miterlimit:10"/><line x1="402.23" y1="332.2" x2="402.74" y2="329.85" style="fill:none;stroke:#263238;stroke-miterlimit:10"/><line x1="413.17" y1="343.31" x2="416.2" y2="342.13" style="fill:none;stroke:#263238;stroke-miterlimit:10"/><line x1="414.85" y1="347.17" x2="416.36" y2="347.17" style="fill:none;stroke:#263238;stroke-miterlimit:10"/><line x1="415.86" y1="352.05" x2="417.71" y2="351.72" style="fill:none;stroke:#263238;stroke-miterlimit:10"/><line x1="415.86" y1="357.1" x2="417.71" y2="356.93" style="fill:none;stroke:#263238;stroke-miterlimit:10"/><line x1="415.86" y1="361.3" x2="417.88" y2="361.3" style="fill:none;stroke:#263238;stroke-miterlimit:10"/><line x1="415.35" y1="365.01" x2="417.2" y2="365.34" style="fill:none;stroke:#263238;stroke-miterlimit:10"/><path d="M376.17,366,380,391.73a4.81,4.81,0,0,0,4.8,4.61h27.85a4.81,4.81,0,0,0,4.8-4.6l4.81-25.45Z" style="fill:#fff;stroke:#263238;stroke-miterlimit:10"/></g><g id="freepik--cactus-5--inject-47"><path d="M408.83,254s8.26-11.58,14.88-7,1.24,10.75-4.55,12.4a14.67,14.67,0,0,1-10.33-.82Z" style="fill:#86BC5C;stroke:#263238;stroke-miterlimit:10"/><path d="M396,242.88s-7.44-31,8.27-35.15,16.54,13.65,12.81,21.09S401,246.18,401,246.18Z" style="fill:#86BC5C;stroke:#263238;stroke-miterlimit:10"/><path d="M392.29,248.67s-4.55-14.06-13.23-11.17-5.38,9.92,2.48,14.89,11.57,5,11.57,5Z" style="fill:#86BC5C;stroke:#263238;stroke-miterlimit:10"/><path d="M393.94,274.3s-7.85-9.51-5.37-21.5,14.88-13.64,20.67-5.38-4.55,26.88-4.55,26.88Z" style="fill:#86BC5C;stroke:#263238;stroke-miterlimit:10"/><line x1="390.49" y1="268.87" x2="387.35" y2="268.87" style="fill:none;stroke:#263238;stroke-miterlimit:10"/><line x1="388.81" y1="264.46" x2="387.35" y2="264.67" style="fill:none;stroke:#263238;stroke-miterlimit:10"/><line x1="388.39" y1="259.64" x2="385.25" y2="260.69" style="fill:none;stroke:#263238;stroke-miterlimit:10"/><line x1="387.77" y1="256.91" x2="385.67" y2="256.91" style="fill:none;stroke:#263238;stroke-miterlimit:10"/><line x1="382.94" y1="253.97" x2="381.68" y2="255.65" style="fill:none;stroke:#263238;stroke-miterlimit:10"/><line x1="379.79" y1="251.45" x2="378.11" y2="253.97" style="fill:none;stroke:#263238;stroke-miterlimit:10"/><line x1="376.85" y1="248.94" x2="374.97" y2="251.03" style="fill:none;stroke:#263238;stroke-miterlimit:10"/><line x1="374.97" y1="246.42" x2="372.03" y2="247.26" style="fill:none;stroke:#263238;stroke-miterlimit:10"/><line x1="373.71" y1="243.48" x2="371.19" y2="243.48" style="fill:none;stroke:#263238;stroke-miterlimit:10"/><line x1="374.34" y1="240.12" x2="372.66" y2="238.23" style="fill:none;stroke:#263238;stroke-miterlimit:10"/><line x1="377.9" y1="238.02" x2="375.81" y2="235.51" style="fill:none;stroke:#263238;stroke-miterlimit:10"/><line x1="381.05" y1="237.19" x2="380.42" y2="234.67" style="fill:none;stroke:#263238;stroke-miterlimit:10"/><line x1="385.04" y1="237.82" x2="385.25" y2="235.93" style="fill:none;stroke:#263238;stroke-miterlimit:10"/><line x1="387.56" y1="239.7" x2="388.81" y2="238.02" style="fill:none;stroke:#263238;stroke-miterlimit:10"/><line x1="390.07" y1="243.06" x2="391.54" y2="240.54" style="fill:none;stroke:#263238;stroke-miterlimit:10"/><line x1="393.85" y1="244.11" x2="392.38" y2="242.01" style="fill:none;stroke:#263238;stroke-miterlimit:10"/><line x1="395.11" y1="240.33" x2="393.22" y2="239.91" style="fill:none;stroke:#263238;stroke-miterlimit:10"/><line x1="394.48" y1="235.93" x2="391.75" y2="235.51" style="fill:none;stroke:#263238;stroke-miterlimit:10"/><line x1="394.48" y1="232.36" x2="391.33" y2="231.31" style="fill:none;stroke:#263238;stroke-miterlimit:10"/><line x1="394.27" y1="227.11" x2="391.54" y2="226.69" style="fill:none;stroke:#263238;stroke-miterlimit:10"/><line x1="394.06" y1="222.29" x2="391.96" y2="222.5" style="fill:none;stroke:#263238;stroke-miterlimit:10"/><line x1="394.9" y1="218.72" x2="393.22" y2="218.09" style="fill:none;stroke:#263238;stroke-miterlimit:10"/><line x1="395.74" y1="215.36" x2="393.85" y2="214.32" style="fill:none;stroke:#263238;stroke-miterlimit:10"/><line x1="397.63" y1="212.01" x2="395.53" y2="210.75" style="fill:none;stroke:#263238;stroke-miterlimit:10"/><line x1="400.14" y1="209.28" x2="399.31" y2="207.81" style="fill:none;stroke:#263238;stroke-miterlimit:10"/><line x1="404.28" y1="207.73" x2="403.5" y2="205.71" style="fill:none;stroke:#263238;stroke-miterlimit:10"/><line x1="409.17" y1="206.97" x2="409.8" y2="204.45" style="fill:none;stroke:#263238;stroke-miterlimit:10"/><line x1="414.83" y1="208.86" x2="415.67" y2="206.34" style="fill:none;stroke:#263238;stroke-miterlimit:10"/><line x1="417.35" y1="212.64" x2="420.08" y2="211.38" style="fill:none;stroke:#263238;stroke-miterlimit:10"/><line x1="419.03" y1="217.04" x2="421.13" y2="217.04" style="fill:none;stroke:#263238;stroke-miterlimit:10"/><line x1="419.24" y1="222.08" x2="421.76" y2="222.08" style="fill:none;stroke:#263238;stroke-miterlimit:10"/><line x1="418.19" y1="226.48" x2="419.66" y2="227.32" style="fill:none;stroke:#263238;stroke-miterlimit:10"/><line x1="416.72" y1="230.26" x2="418.4" y2="230.89" style="fill:none;stroke:#263238;stroke-miterlimit:10"/><line x1="413.99" y1="234.04" x2="415.67" y2="234.88" style="fill:none;stroke:#263238;stroke-miterlimit:10"/><line x1="411.06" y1="237.19" x2="413.36" y2="238.44" style="fill:none;stroke:#263238;stroke-miterlimit:10"/><line x1="408.96" y1="239.49" x2="410.85" y2="241.8" style="fill:none;stroke:#263238;stroke-miterlimit:10"/><line x1="404.76" y1="242.64" x2="407.91" y2="242.64" style="fill:none;stroke:#263238;stroke-miterlimit:10"/><line x1="408.54" y1="245.79" x2="410.01" y2="244.53" style="fill:none;stroke:#263238;stroke-miterlimit:10"/><line x1="410.85" y1="249.36" x2="412.1" y2="248.1" style="fill:none;stroke:#263238;stroke-miterlimit:10"/><line x1="415.46" y1="247.47" x2="415.04" y2="244.95" style="fill:none;stroke:#263238;stroke-miterlimit:10"/><line x1="418.61" y1="245.79" x2="418.61" y2="243.69" style="fill:none;stroke:#263238;stroke-miterlimit:10"/><line x1="422.6" y1="246.42" x2="423.43" y2="244.32" style="fill:none;stroke:#263238;stroke-miterlimit:10"/><line x1="426.16" y1="248.73" x2="429.1" y2="247.47" style="fill:none;stroke:#263238;stroke-miterlimit:10"/><line x1="427" y1="252.92" x2="429.1" y2="253.34" style="fill:none;stroke:#263238;stroke-miterlimit:10"/><line x1="425.53" y1="255.65" x2="428.89" y2="257.33" style="fill:none;stroke:#263238;stroke-miterlimit:10"/><line x1="423.22" y1="257.75" x2="424.69" y2="259.43" style="fill:none;stroke:#263238;stroke-miterlimit:10"/><line x1="419.16" y1="259.41" x2="420.08" y2="261.52" style="fill:none;stroke:#263238;stroke-miterlimit:10"/><line x1="415.25" y1="260.27" x2="415.04" y2="262.15" style="fill:none;stroke:#263238;stroke-miterlimit:10"/><line x1="412.1" y1="259.43" x2="411.47" y2="262.57" style="fill:none;stroke:#263238;stroke-miterlimit:10"/><line x1="409.38" y1="263.83" x2="412.31" y2="264.04" style="fill:none;stroke:#263238;stroke-miterlimit:10"/><line x1="408.33" y1="266.56" x2="410.43" y2="267.4" style="fill:none;stroke:#263238;stroke-miterlimit:10"/><line x1="407.49" y1="269.5" x2="408.75" y2="269.92" style="fill:none;stroke:#263238;stroke-miterlimit:10"/><path d="M393.64,252.61a.95.95,0,1,0-.94.94A.95.95,0,0,0,393.64,252.61Z" style="fill:#263238"/><path d="M386.61,247.36a.95.95,0,0,0-1.89,0,.95.95,0,1,0,1.89,0Z" style="fill:#263238"/><path d="M382,247.47a.95.95,0,1,0-1.89,0,.95.95,0,0,0,1.89,0Z" style="fill:#263238"/><path d="M386.19,242.85a.95.95,0,0,0-1.89,0,.95.95,0,1,0,1.89,0Z" style="fill:#263238"/><path d="M379.69,242.85a.95.95,0,1,0-.95,1A.95.95,0,0,0,379.69,242.85Z" style="fill:#263238"/><path d="M399.83,249.36a.95.95,0,1,0-.94.94A.94.94,0,0,0,399.83,249.36Z" style="fill:#263238"/><path d="M395.84,248.2a.95.95,0,0,0-1.89,0,.95.95,0,1,0,1.89,0Z" style="fill:#263238"/><circle cx="406.02" cy="249.57" r="0.94" style="fill:#263238"/><circle cx="408.75" cy="252.29" r="0.94" style="fill:#263238"/><path d="M415.46,255.65a.95.95,0,1,0-.94.94A.94.94,0,0,0,415.46,255.65Z" style="fill:#263238"/><path d="M417.24,252.4a.94.94,0,1,0-.94.94A.95.95,0,0,0,417.24,252.4Z" style="fill:#263238"/><circle cx="420.92" cy="250.61" r="0.94" style="fill:#263238"/><path d="M422.07,255.13a.95.95,0,1,0-.94.94A.94.94,0,0,0,422.07,255.13Z" style="fill:#263238"/><circle cx="399.93" cy="238.86" r="0.94" style="fill:#263238"/><path d="M407.59,236a.95.95,0,0,0-1.89,0,.95.95,0,1,0,1.89,0Z" style="fill:#263238"/><path d="M403.19,232.15a.95.95,0,1,0-.95.94A.95.95,0,0,0,403.19,232.15Z" style="fill:#263238"/><circle cx="396.79" cy="231.73" r="0.94" style="fill:#263238"/><path d="M412.52,232.36a.94.94,0,1,0-.94.94A.94.94,0,0,0,412.52,232.36Z" style="fill:#263238"/><path d="M408.33,228.79a.95.95,0,1,0-.95,1A.95.95,0,0,0,408.33,228.79Z" style="fill:#263238"/><path d="M404.87,222.08a.95.95,0,1,0-1.89,0,.95.95,0,0,0,1.89,0Z" style="fill:#263238"/><path d="M404.55,213.9a.95.95,0,1,0-.94.94A.94.94,0,0,0,404.55,213.9Z" style="fill:#263238"/><circle cx="415.04" cy="227.32" r="0.94" style="fill:#263238"/><path d="M412.42,222.5a.95.95,0,1,0-1.89,0,.95.95,0,0,0,1.89,0Z" style="fill:#263238"/><path d="M413.47,212.43a.95.95,0,1,0-1.89,0,.95.95,0,0,0,1.89,0Z" style="fill:#263238"/><path d="M409.9,216.62a.95.95,0,0,0-1.89,0,.95.95,0,1,0,1.89,0Z" style="fill:#263238"/><path d="M415.67,219.35a.95.95,0,0,0-1.89,0,.95.95,0,1,0,1.89,0Z" style="fill:#263238"/><path d="M400.77,225.65a.94.94,0,1,0-.94.94A.94.94,0,0,0,400.77,225.65Z" style="fill:#263238"/><circle cx="399.41" cy="217.67" r="0.94" style="fill:#263238"/><circle cx="397.21" cy="256.28" r="0.94" style="fill:#263238"/><circle cx="401.72" cy="245.16" r="0.94" style="fill:#263238"/><circle cx="403.71" cy="252.82" r="0.94" style="fill:#263238"/><circle cx="386.09" cy="252.19" r="0.94" style="fill:#263238"/><path d="M392.49,257.75a.95.95,0,1,0-1.89,0,.95.95,0,0,0,1.89,0Z" style="fill:#263238"/><path d="M402.77,259.85a.95.95,0,1,0-1.89,0,.95.95,0,0,0,1.89,0Z" style="fill:#263238"/><circle cx="391.33" cy="263.83" r="0.94" style="fill:#263238"/><circle cx="400.14" cy="266.56" r="0.94" style="fill:#263238"/><path d="M407.59,258.59a.95.95,0,1,0-.94.94A.95.95,0,0,0,407.59,258.59Z" style="fill:#263238"/><circle cx="405.29" cy="264.04" r="0.94" style="fill:#263238"/><circle cx="395.74" cy="262.78" r="0.94" style="fill:#263238"/><path d="M379.17,266.63,383,295.07a4.81,4.81,0,0,0,4.8,4.6h20.85a4.81,4.81,0,0,0,4.8-4.6l4.81-28.1Z" style="fill:#fff;stroke:#263238;stroke-miterlimit:10"/><polyline points="381.78 285.08 387.94 275.93 398.92 286.18 408.81 275.56 415.13 285.28" style="fill:none;stroke:#263238;stroke-miterlimit:10"/></g><g id="freepik--cactus-4--inject-47"><path d="M385.24,106.16a53.31,53.31,0,0,1-2.7-9.1c-1.35-6.06-6.74-9.1-9.43-1s-1.69,12.8,3,16.85,8.09,2.35,8.09,2.35Z" style="fill:#86BC5C;stroke:#263238;stroke-miterlimit:10"/><path d="M376.48,93.35a17,17,0,0,0-.68,11.8,11.6,11.6,0,0,0,7.75,7.75" style="fill:none;stroke:#263238;stroke-miterlimit:10;stroke-width:0.5px"/><path d="M378.5,93s-1.35,6.4.67,10.44a11.48,11.48,0,0,0,5.73,5.39" style="fill:none;stroke:#263238;stroke-miterlimit:10;stroke-width:0.5px"/><path d="M412.53,114.55a47.94,47.94,0,0,0,2.41-8.15c1.21-5.43,6-8.14,8.45-.9s1.51,11.47-2.71,15.09-7.25,2.11-7.25,2.11Z" style="fill:#86BC5C;stroke:#263238;stroke-miterlimit:10"/><path d="M420.37,103.08a15.25,15.25,0,0,1,.61,10.57,10.38,10.38,0,0,1-6.94,6.94" style="fill:none;stroke:#263238;stroke-miterlimit:10;stroke-width:0.5px"/><path d="M418.56,102.78s1.21,5.74-.6,9.36a10.28,10.28,0,0,1-5.13,4.83" style="fill:none;stroke:#263238;stroke-miterlimit:10;stroke-width:0.5px"/><path d="M382.88,129.74s-1.35-21.9,2-32,16.51-16.84,22.91-6.4,8.09,28.3,7.75,37.06Z" style="fill:#86BC5C;stroke:#263238;stroke-miterlimit:10"/><path d="M396.36,88s-7.75,9.44-9.1,20.56a63,63,0,0,0,1,20.55" style="fill:none;stroke:#263238;stroke-miterlimit:10;stroke-width:0.5px"/><line x1="399.39" y1="88.64" x2="398.32" y2="130.34" style="fill:none;stroke:#263238;stroke-miterlimit:10;stroke-width:0.5px"/><path d="M402.08,88.3s9.77,20.22,7.08,41.44" style="fill:none;stroke:#263238;stroke-miterlimit:10;stroke-width:0.5px"/><path d="M379.17,130.75,380,150.4a4.81,4.81,0,0,0,4.8,4.61h27.85a4.81,4.81,0,0,0,4.8-4.61l.81-19.31Z" style="fill:#fff;stroke:#263238;stroke-miterlimit:10"/><rect x="375.74" y="126.71" width="45.17" height="7.27" rx="1.61" style="fill:#fff;stroke:#263238;stroke-miterlimit:10"/><line x1="382.68" y1="123.87" x2="380.05" y2="123.46" style="fill:none;stroke:#263238;stroke-miterlimit:10"/><line x1="381.87" y1="119.21" x2="378.63" y2="119.61" style="fill:none;stroke:#263238;stroke-miterlimit:10"/><line x1="378.63" y1="115.16" x2="376.81" y2="117.59" style="fill:none;stroke:#263238;stroke-miterlimit:10"/><line x1="374.37" y1="112.12" x2="371.33" y2="113.13" style="fill:none;stroke:#263238;stroke-miterlimit:10"/><line x1="369.31" y1="108.87" x2="371.94" y2="107.45" style="fill:none;stroke:#263238;stroke-miterlimit:10"/><line x1="368.29" y1="103.4" x2="371.94" y2="103.2" style="fill:none;stroke:#263238;stroke-miterlimit:10"/><line x1="369.71" y1="97.73" x2="372.14" y2="98.13" style="fill:none;stroke:#263238;stroke-miterlimit:10"/><line x1="370.93" y1="92.46" x2="373.36" y2="94.49" style="fill:none;stroke:#263238;stroke-miterlimit:10"/><line x1="375.18" y1="88.2" x2="376.6" y2="90.84" style="fill:none;stroke:#263238;stroke-miterlimit:10"/><line x1="380.66" y1="88" x2="380.05" y2="92.05" style="fill:none;stroke:#263238;stroke-miterlimit:10"/><line x1="383.7" y1="92.86" x2="381.87" y2="94.69" style="fill:none;stroke:#263238;stroke-miterlimit:10"/><line x1="384.91" y1="90.03" x2="386.94" y2="92.86" style="fill:none;stroke:#263238;stroke-miterlimit:10"/><line x1="388.96" y1="86.58" x2="390.79" y2="88.41" style="fill:none;stroke:#263238;stroke-miterlimit:10"/><line x1="393.62" y1="82.33" x2="395.04" y2="87.19" style="fill:none;stroke:#263238;stroke-miterlimit:10"/><line x1="400.72" y1="81.92" x2="400.72" y2="86.38" style="fill:none;stroke:#263238;stroke-miterlimit:10"/><line x1="408.82" y1="84.56" x2="405.99" y2="88" style="fill:none;stroke:#263238;stroke-miterlimit:10"/><line x1="412.07" y1="90.43" x2="409.43" y2="93.67" style="fill:none;stroke:#263238;stroke-miterlimit:10"/><line x1="413.69" y1="97.12" x2="411.05" y2="98.34" style="fill:none;stroke:#263238;stroke-miterlimit:10"/><line x1="413.69" y1="101.38" x2="415.51" y2="104.01" style="fill:none;stroke:#263238;stroke-miterlimit:10"/><line x1="417.54" y1="98.13" x2="418.15" y2="100.56" style="fill:none;stroke:#263238;stroke-miterlimit:10"/><line x1="424.22" y1="99.55" x2="422.6" y2="103.2" style="fill:none;stroke:#263238;stroke-miterlimit:10"/><line x1="424.22" y1="107.66" x2="427.26" y2="105.83" style="fill:none;stroke:#263238;stroke-miterlimit:10"/><line x1="424.83" y1="113.53" x2="428.07" y2="113.53" style="fill:none;stroke:#263238;stroke-miterlimit:10"/><line x1="423.21" y1="119.01" x2="425.64" y2="120.63" style="fill:none;stroke:#263238;stroke-miterlimit:10"/><line x1="419.16" y1="121.84" x2="419.77" y2="123.87" style="fill:none;stroke:#263238;stroke-miterlimit:10"/></g><g id="freepik--cactus-3--inject-47"><path d="M69.29,128.52s-1.91-3.19-1.91-9.89,2.55-8.3,2.55-8.3-4.46-6.06-3.83-12.44S69,89.27,69,89.27s-4.14-7,.32-9.89,4.79,9.26,4.79,9.26a10,10,0,0,1,3.19,7c.32,4.78-2.87,12.44-2.87,12.44s5.1,8,5.74,13.08-.32,7.34-.32,7.34Z" style="fill:#86BC5C;stroke:#263238;stroke-miterlimit:10"/><path d="M79.82,128.52s-2.55-15-.63-18.82,3.19-6.07,3.19-6.07-1.6-8.61-1-14S84,78.43,89.08,78.74s2.23,21.38,1,23.62,1.92,9.57,1.6,16.91-2.55,10.53-2.55,10.53Z" style="fill:#86BC5C;stroke:#263238;stroke-miterlimit:10"/><path d="M97.05,130.12s-2.55-2.87-2.55-9.89S95.78,110,95.78,110A22.91,22.91,0,0,1,94.5,99.49c.64-6.07,3.19-9.26,3.19-9.26a6.3,6.3,0,0,1,0-8c3.19-4.46,7.66.32,4.79,8,0,0,3.19,5.75,2.87,11.49s-2.23,8.29-2.23,8.29A27.33,27.33,0,0,1,106,121.18c0,5.75-2.24,8.94-2.24,8.94Z" style="fill:#86BC5C;stroke:#263238;stroke-miterlimit:10"/><path d="M69.29,103.32a16.43,16.43,0,0,1,0-6.13c1.42-6.56,2.31-8,2.31-8s-3.2-3.37-2.31-6.91" style="fill:none;stroke:#263238;stroke-miterlimit:10;stroke-width:0.5px"/><path d="M72.34,128.76s-2.83-10.29-.53-18.09a25.26,25.26,0,0,1-2.08-5.33" style="fill:none;stroke:#263238;stroke-miterlimit:10;stroke-width:0.5px"/><path d="M88.86,113a52.47,52.47,0,0,0-1.44-8.51s3-5.67,3-10.11S90.08,86,90.08,86" style="fill:none;stroke:#263238;stroke-miterlimit:10;stroke-width:0.5px"/><path d="M81.73,120.29a36.28,36.28,0,0,0,2.32,7.93,16.17,16.17,0,0,0,4.79-9.75,24.91,24.91,0,0,0,.13-3.36" style="fill:none;stroke:#263238;stroke-miterlimit:10;stroke-width:0.5px"/><path d="M84.11,97.06a28.65,28.65,0,0,0,1.36,5.45s-4.44,5.68-4.26,12.77c0,.85.08,1.69.16,2.5" style="fill:none;stroke:#263238;stroke-miterlimit:10;stroke-width:0.5px"/><path d="M88.3,81.76A19.83,19.83,0,0,0,84.05,91a17.28,17.28,0,0,0-.2,3.12" style="fill:none;stroke:#263238;stroke-miterlimit:10;stroke-width:0.5px"/><path d="M97.15,112.81a24.24,24.24,0,0,0,.55,8.5,59.7,59.7,0,0,1,1.78,6.38" style="fill:none;stroke:#263238;stroke-miterlimit:10;stroke-width:0.5px"/><path d="M98.87,93.14A34.57,34.57,0,0,0,97,100.56a29.33,29.33,0,0,0,.54,9s-.1.54-.2,1.42" style="fill:none;stroke:#263238;stroke-miterlimit:10;stroke-width:0.5px"/><path d="M101.43,82.83s-2.13,2-2.31,3.9a14.59,14.59,0,0,0,.53,4.43s-.24.55-.58,1.44" style="fill:none;stroke:#263238;stroke-miterlimit:10;stroke-width:0.5px"/><path d="M103.31,121.09c0-.5.07-1,.07-1.38,0-2.84-2.13-8-2.13-8s2-6.74,1.77-12.06" style="fill:none;stroke:#263238;stroke-miterlimit:10;stroke-width:0.5px"/><path d="M102.14,128.05s.61-2.71,1-5.31" style="fill:none;stroke:#263238;stroke-miterlimit:10;stroke-width:0.5px"/><path d="M74.3,92.94a22.46,22.46,0,0,1-.54,13.12" style="fill:none;stroke:#263238;stroke-miterlimit:10;stroke-width:0.5px"/><line x1="68.41" y1="125.5" x2="66.32" y2="125.05" style="fill:#86BC5C;stroke:#263238;stroke-miterlimit:10"/><line x1="66.92" y1="120.87" x2="65.73" y2="120.73" style="fill:#86BC5C;stroke:#263238;stroke-miterlimit:10"/><line x1="66.92" y1="117" x2="65.13" y2="115.95" style="fill:#86BC5C;stroke:#263238;stroke-miterlimit:10"/><line x1="67.96" y1="113.41" x2="66.47" y2="112.22" style="fill:#86BC5C;stroke:#263238;stroke-miterlimit:10"/><line x1="69.93" y1="110.33" x2="67.82" y2="109.83" style="fill:#86BC5C;stroke:#263238;stroke-miterlimit:10"/><line x1="67.96" y1="107.15" x2="65.88" y2="106.25" style="fill:#86BC5C;stroke:#263238;stroke-miterlimit:10"/><line x1="65.88" y1="101.78" x2="64.09" y2="101.78" style="fill:#86BC5C;stroke:#263238;stroke-miterlimit:10"/><line x1="66.1" y1="97.89" x2="64.53" y2="97.6" style="fill:#86BC5C;stroke:#263238;stroke-miterlimit:10"/><line x1="66.62" y1="94.02" x2="64.98" y2="92.83" style="fill:#86BC5C;stroke:#263238;stroke-miterlimit:10"/><line x1="68.11" y1="90.29" x2="66.62" y2="90.29" style="fill:#86BC5C;stroke:#263238;stroke-miterlimit:10"/><line x1="67.82" y1="85.81" x2="65.73" y2="84.32" style="fill:#86BC5C;stroke:#263238;stroke-miterlimit:10"/><line x1="67.22" y1="81.49" x2="66.03" y2="79.7" style="fill:#86BC5C;stroke:#263238;stroke-miterlimit:10"/><line x1="70.8" y1="79.25" x2="70.95" y2="77.91" style="fill:#86BC5C;stroke:#263238;stroke-miterlimit:10"/><line x1="73.48" y1="81.04" x2="75.72" y2="80.29" style="fill:#86BC5C;stroke:#263238;stroke-miterlimit:10"/><line x1="74.08" y1="85.81" x2="75.42" y2="84.62" style="fill:#86BC5C;stroke:#263238;stroke-miterlimit:10"/><line x1="75.42" y1="89.54" x2="76.47" y2="88.65" style="fill:#86BC5C;stroke:#263238;stroke-miterlimit:10"/><line x1="77.07" y1="93.12" x2="78.11" y2="92.83" style="fill:#86BC5C;stroke:#263238;stroke-miterlimit:10"/><line x1="76.92" y1="96.7" x2="78.41" y2="96.56" style="fill:#86BC5C;stroke:#263238;stroke-miterlimit:10"/><line x1="76.02" y1="102.08" x2="78.71" y2="101.18" style="fill:#86BC5C;stroke:#263238;stroke-miterlimit:10"/><line x1="75.72" y1="105.36" x2="77.81" y2="104.91" style="fill:#86BC5C;stroke:#263238;stroke-miterlimit:10"/><line x1="74.53" y1="108.64" x2="75.72" y2="108.49" style="fill:#86BC5C;stroke:#263238;stroke-miterlimit:10"/><line x1="78.56" y1="110.73" x2="76.92" y2="109.83" style="fill:#86BC5C;stroke:#263238;stroke-miterlimit:10"/><line x1="79.75" y1="108.34" x2="78.41" y2="107.3" style="fill:#86BC5C;stroke:#263238;stroke-miterlimit:10"/><line x1="81.24" y1="104.61" x2="80.35" y2="103.42" style="fill:#86BC5C;stroke:#263238;stroke-miterlimit:10"/><line x1="81.84" y1="99.84" x2="80.05" y2="99.24" style="fill:#86BC5C;stroke:#263238;stroke-miterlimit:10"/><line x1="81.39" y1="95.66" x2="79.75" y2="94.91" style="fill:#86BC5C;stroke:#263238;stroke-miterlimit:10"/><line x1="80.8" y1="89.84" x2="78.56" y2="88.95" style="fill:#86BC5C;stroke:#263238;stroke-miterlimit:10"/><line x1="81.84" y1="86.11" x2="80.35" y2="84.92" style="fill:#86BC5C;stroke:#263238;stroke-miterlimit:10"/><line x1="83.03" y1="81.93" x2="81.39" y2="80.29" style="fill:#86BC5C;stroke:#263238;stroke-miterlimit:10"/><line x1="85.72" y1="79.85" x2="84.53" y2="77.46" style="fill:#86BC5C;stroke:#263238;stroke-miterlimit:10"/><line x1="89.08" y1="78.74" x2="90.05" y2="77.31" style="fill:#86BC5C;stroke:#263238;stroke-miterlimit:10"/><line x1="91.84" y1="81.64" x2="92.88" y2="80.74" style="fill:#86BC5C;stroke:#263238;stroke-miterlimit:10"/><line x1="91.84" y1="86.26" x2="93.48" y2="85.81" style="fill:#86BC5C;stroke:#263238;stroke-miterlimit:10"/><line x1="91.99" y1="90.89" x2="93.48" y2="90.59" style="fill:#86BC5C;stroke:#263238;stroke-miterlimit:10"/><line x1="91.69" y1="95.36" x2="93.18" y2="95.36" style="fill:#86BC5C;stroke:#263238;stroke-miterlimit:10"/><line x1="90.79" y1="100.29" x2="91.99" y2="99.84" style="fill:#86BC5C;stroke:#263238;stroke-miterlimit:10"/><line x1="90.05" y1="105.51" x2="91.84" y2="105.81" style="fill:#86BC5C;stroke:#263238;stroke-miterlimit:10"/><line x1="90.79" y1="110.73" x2="92.73" y2="110.28" style="fill:#86BC5C;stroke:#263238;stroke-miterlimit:10"/><line x1="91.84" y1="117.14" x2="93.33" y2="116.7" style="fill:#86BC5C;stroke:#263238;stroke-miterlimit:10"/><line x1="91.39" y1="122.52" x2="92.73" y2="122.22" style="fill:#86BC5C;stroke:#263238;stroke-miterlimit:10"/><line x1="94.67" y1="115.06" x2="93.92" y2="115.06" style="fill:#86BC5C;stroke:#263238;stroke-miterlimit:10"/><line x1="95.57" y1="112.07" x2="94.37" y2="111.62" style="fill:#86BC5C;stroke:#263238;stroke-miterlimit:10"/><line x1="95.12" y1="108.04" x2="92.73" y2="108.04" style="fill:#86BC5C;stroke:#263238;stroke-miterlimit:10"/><line x1="94.37" y1="104.16" x2="92.73" y2="104.02" style="fill:#86BC5C;stroke:#263238;stroke-miterlimit:10"/><line x1="93.92" y1="98.64" x2="92.43" y2="98.2" style="fill:#86BC5C;stroke:#263238;stroke-miterlimit:10"/><line x1="94.97" y1="94.62" x2="93.78" y2="93.87" style="fill:#86BC5C;stroke:#263238;stroke-miterlimit:10"/><line x1="96.61" y1="91.18" x2="95.57" y2="90.74" style="fill:#86BC5C;stroke:#263238;stroke-miterlimit:10"/><line x1="95.86" y1="87.31" x2="94.67" y2="87.16" style="fill:#86BC5C;stroke:#263238;stroke-miterlimit:10"/><line x1="96.46" y1="84.32" x2="95.27" y2="83.28" style="fill:#86BC5C;stroke:#263238;stroke-miterlimit:10"/><line x1="98.55" y1="81.34" x2="96.76" y2="80.14" style="fill:#86BC5C;stroke:#263238;stroke-miterlimit:10"/><line x1="101.38" y1="80.44" x2="102.28" y2="79.55" style="fill:#86BC5C;stroke:#263238;stroke-miterlimit:10"/><line x1="103.62" y1="84.62" x2="105.71" y2="84.62" style="fill:#86BC5C;stroke:#263238;stroke-miterlimit:10"/><line x1="103.03" y1="89.1" x2="104.37" y2="88.5" style="fill:#86BC5C;stroke:#263238;stroke-miterlimit:10"/><line x1="104.07" y1="93.27" x2="105.71" y2="92.83" style="fill:#86BC5C;stroke:#263238;stroke-miterlimit:10"/><line x1="105.26" y1="98.49" x2="107.05" y2="97.9" style="fill:#86BC5C;stroke:#263238;stroke-miterlimit:10"/><line x1="105.11" y1="102.67" x2="106.61" y2="102.08" style="fill:#86BC5C;stroke:#263238;stroke-miterlimit:10"/><line x1="104.07" y1="108.19" x2="105.86" y2="108.34" style="fill:#86BC5C;stroke:#263238;stroke-miterlimit:10"/><line x1="104.52" y1="112.52" x2="105.86" y2="111.92" style="fill:#86BC5C;stroke:#263238;stroke-miterlimit:10"/><line x1="106.16" y1="118.04" x2="107.5" y2="117.44" style="fill:#86BC5C;stroke:#263238;stroke-miterlimit:10"/><line x1="106.01" y1="122.66" x2="107.2" y2="122.66" style="fill:#86BC5C;stroke:#263238;stroke-miterlimit:10"/><path d="M67.84,130.75l-1.47,6.74L63,151.3a6.25,6.25,0,0,0,6.25,6h36.19a6.24,6.24,0,0,0,6.24-6l-3.33-13.39-1.47-6.83Z" style="fill:#fff;stroke:#263238;stroke-miterlimit:10"/><rect x="64.41" y="126.71" width="45.17" height="7.27" rx="1.61" style="fill:#fff;stroke:#263238;stroke-miterlimit:10"/></g><g id="freepik--cactus-2--inject-47"><path d="M71.61,273.36s-9.91-39.64-2.47-41.7,12.8,40.46,12.8,40.46Z" style="fill:#86BC5C;stroke:#263238;stroke-miterlimit:10"/><path d="M83.49,272.64s-9.08-52,.83-52.85,7,54.92,7,54.92Z" style="fill:#86BC5C;stroke:#263238;stroke-miterlimit:10"/><path d="M90.1,273.73s2.07-45,12.8-43.36-.41,43.77-.41,43.77Z" style="fill:#86BC5C;stroke:#263238;stroke-miterlimit:10"/><line x1="73.75" y1="272.8" x2="67.08" y2="236.34" style="fill:none;stroke:#263238;stroke-miterlimit:10;stroke-width:0.5px"/><line x1="68.01" y1="232" x2="77.32" y2="272.03" style="fill:none;stroke:#263238;stroke-miterlimit:10;stroke-width:0.5px"/><line x1="80.58" y1="271.87" x2="72.82" y2="234.17" style="fill:none;stroke:#263238;stroke-miterlimit:10;stroke-width:0.5px"/><line x1="79.96" y1="235.72" x2="84.77" y2="272.8" style="fill:none;stroke:#263238;stroke-miterlimit:10;stroke-width:0.5px"/><line x1="86.48" y1="273.27" x2="80.74" y2="226.57" style="fill:none;stroke:#263238;stroke-miterlimit:10;stroke-width:0.5px"/><line x1="82.13" y1="221.45" x2="88.49" y2="274.04" style="fill:none;stroke:#263238;stroke-miterlimit:10;stroke-width:0.5px"/><line x1="86.17" y1="220.98" x2="89.89" y2="274.35" style="fill:none;stroke:#263238;stroke-miterlimit:10;stroke-width:0.5px"/><line x1="92.22" y1="274.04" x2="98.89" y2="232.47" style="fill:none;stroke:#263238;stroke-miterlimit:10;stroke-width:0.5px"/><line x1="94.7" y1="274.2" x2="102.9" y2="230.37" style="fill:none;stroke:#263238;stroke-miterlimit:10;stroke-width:0.5px"/><line x1="98.27" y1="274.04" x2="105.87" y2="233.24" style="fill:none;stroke:#263238;stroke-miterlimit:10;stroke-width:0.5px"/><line x1="101.21" y1="274.2" x2="107.42" y2="245.03" style="fill:none;stroke:#263238;stroke-miterlimit:10;stroke-width:0.5px"/><line x1="69.41" y1="264.89" x2="67.55" y2="264.89" style="fill:#86BC5C;stroke:#263238;stroke-miterlimit:10"/><line x1="68.48" y1="260.39" x2="67.24" y2="260.39" style="fill:#86BC5C;stroke:#263238;stroke-miterlimit:10"/><line x1="67.7" y1="255.89" x2="65.84" y2="255.89" style="fill:#86BC5C;stroke:#263238;stroke-miterlimit:10"/><line x1="67.08" y1="251.55" x2="65.07" y2="251.7" style="fill:#86BC5C;stroke:#263238;stroke-miterlimit:10"/><line x1="66.77" y1="247.67" x2="64.45" y2="247.51" style="fill:#86BC5C;stroke:#263238;stroke-miterlimit:10"/><line x1="66.31" y1="243.17" x2="64.45" y2="243.02" style="fill:#86BC5C;stroke:#263238;stroke-miterlimit:10"/><line x1="66.15" y1="238.67" x2="64.76" y2="238.05" style="fill:#86BC5C;stroke:#263238;stroke-miterlimit:10"/><line x1="66.77" y1="235.1" x2="65.53" y2="233.55" style="fill:#86BC5C;stroke:#263238;stroke-miterlimit:10"/><line x1="69.14" y1="231.66" x2="68.79" y2="230.29" style="fill:#86BC5C;stroke:#263238;stroke-miterlimit:10"/><line x1="71.74" y1="232.62" x2="71.89" y2="230.45" style="fill:#86BC5C;stroke:#263238;stroke-miterlimit:10"/><line x1="74.68" y1="238.21" x2="76.7" y2="235.88" style="fill:#86BC5C;stroke:#263238;stroke-miterlimit:10"/><line x1="76.86" y1="245.03" x2="77.79" y2="243.17" style="fill:#86BC5C;stroke:#263238;stroke-miterlimit:10"/><line x1="78.41" y1="249.69" x2="78.87" y2="248.91" style="fill:#86BC5C;stroke:#263238;stroke-miterlimit:10"/><line x1="79.65" y1="240.22" x2="78.41" y2="239.14" style="fill:#86BC5C;stroke:#263238;stroke-miterlimit:10"/><line x1="79.8" y1="234.02" x2="77.32" y2="232.15" style="fill:#86BC5C;stroke:#263238;stroke-miterlimit:10"/><line x1="78.1" y1="227.35" x2="79.8" y2="229.36" style="fill:#86BC5C;stroke:#263238;stroke-miterlimit:10"/><line x1="80.74" y1="224.71" x2="78.72" y2="221.92" style="fill:#86BC5C;stroke:#263238;stroke-miterlimit:10"/><line x1="82.75" y1="220.05" x2="82.6" y2="217.88" style="fill:#86BC5C;stroke:#263238;stroke-miterlimit:10"/><line x1="87.25" y1="220.98" x2="88.03" y2="218.19" style="fill:#86BC5C;stroke:#263238;stroke-miterlimit:10"/><line x1="88.65" y1="225.64" x2="90.66" y2="222.85" style="fill:#86BC5C;stroke:#263238;stroke-miterlimit:10"/><line x1="89.58" y1="229.67" x2="91.75" y2="228.12" style="fill:#86BC5C;stroke:#263238;stroke-miterlimit:10"/><line x1="90.97" y1="235.57" x2="92.68" y2="233.4" style="fill:#86BC5C;stroke:#263238;stroke-miterlimit:10"/><line x1="91.6" y1="240.22" x2="92.84" y2="238.98" style="fill:#86BC5C;stroke:#263238;stroke-miterlimit:10"/><line x1="95.01" y1="240.22" x2="94.23" y2="238.36" style="fill:#86BC5C;stroke:#263238;stroke-miterlimit:10"/><line x1="93.92" y1="244.41" x2="92.99" y2="242.86" style="fill:#86BC5C;stroke:#263238;stroke-miterlimit:10"/><line x1="96.87" y1="235.57" x2="95.78" y2="234.02" style="fill:#86BC5C;stroke:#263238;stroke-miterlimit:10"/><line x1="99.35" y1="232" x2="98.27" y2="230.6" style="fill:#86BC5C;stroke:#263238;stroke-miterlimit:10"/><line x1="101.52" y1="230.6" x2="101.06" y2="227.81" style="fill:#86BC5C;stroke:#263238;stroke-miterlimit:10"/><line x1="104.32" y1="231.07" x2="105.25" y2="229.05" style="fill:#86BC5C;stroke:#263238;stroke-miterlimit:10"/><line x1="107.27" y1="235.1" x2="108.04" y2="234.02" style="fill:#86BC5C;stroke:#263238;stroke-miterlimit:10"/><line x1="107.58" y1="239.45" x2="108.97" y2="238.98" style="fill:#86BC5C;stroke:#263238;stroke-miterlimit:10"/><line x1="107.58" y1="243.95" x2="109.13" y2="243.95" style="fill:#86BC5C;stroke:#263238;stroke-miterlimit:10"/><line x1="106.64" y1="254.65" x2="108.2" y2="254.65" style="fill:#86BC5C;stroke:#263238;stroke-miterlimit:10"/><line x1="107.42" y1="249.22" x2="108.82" y2="248.91" style="fill:#86BC5C;stroke:#263238;stroke-miterlimit:10"/><line x1="105.71" y1="260.86" x2="106.49" y2="260.86" style="fill:#86BC5C;stroke:#263238;stroke-miterlimit:10"/><line x1="104.63" y1="265.98" x2="105.71" y2="266.75" style="fill:#86BC5C;stroke:#263238;stroke-miterlimit:10"/><line x1="70.34" y1="268.92" x2="68.17" y2="268.77" style="fill:#86BC5C;stroke:#263238;stroke-miterlimit:10"/><path d="M67.84,270.29l.82,24.78a4.8,4.8,0,0,0,4.8,4.6H101.3a4.79,4.79,0,0,0,4.8-4.6l.82-24.44Z" style="fill:#fff;stroke:#263238;stroke-miterlimit:10"/><line x1="68.01" y1="279.59" x2="106.81" y2="279.59" style="fill:#fff;stroke:#263238;stroke-miterlimit:10"/><line x1="68.74" y1="284.71" x2="106.81" y2="284.71" style="fill:#fff;stroke:#263238;stroke-miterlimit:10"/></g><g id="freepik--cactus-1--inject-47"><path d="M105.9,361.84a18.78,18.78,0,1,1-18.78-19.08A18.94,18.94,0,0,1,105.9,361.84Z" style="fill:#86BC5C;stroke:#263238;stroke-miterlimit:10"/><polyline points="70.95 356.5 76.75 357.42 71.56 348.56" style="fill:none;stroke:#263238;stroke-miterlimit:10"/><polyline points="75.84 360.47 76.75 357.42 78.58 349.78" style="fill:none;stroke:#263238;stroke-miterlimit:10"/><line x1="76.75" y1="357.42" x2="79.81" y2="356.5" style="fill:none;stroke:#263238;stroke-miterlimit:10"/><polyline points="87.74 350.09 90.49 352.84 88.96 356.5" style="fill:none;stroke:#263238;stroke-miterlimit:10"/><line x1="91.71" y1="352.23" x2="93.85" y2="349.17" style="fill:none;stroke:#263238;stroke-miterlimit:10"/><line x1="90.49" y1="352.84" x2="96.29" y2="355.89" style="fill:none;stroke:#263238;stroke-miterlimit:10"/><polyline points="84.39 360.47 84.69 363.22 81.03 362.91" style="fill:none;stroke:#263238;stroke-miterlimit:10"/><polyline points="89.58 361.08 84.69 363.22 83.16 366.57" style="fill:none;stroke:#263238;stroke-miterlimit:10"/><line x1="84.69" y1="363.22" x2="88.35" y2="367.18" style="fill:none;stroke:#263238;stroke-miterlimit:10"/><polyline points="84.08 341.85 87.44 344.9 88.35 339.71" style="fill:none;stroke:#263238;stroke-miterlimit:10"/><line x1="88.66" y1="345.21" x2="92.93" y2="342.15" style="fill:none;stroke:#263238;stroke-miterlimit:10"/><polyline points="108.81 353.45 102.4 358.33 102.7 353.75" style="fill:none;stroke:#263238;stroke-miterlimit:10"/><line x1="101.79" y1="359.55" x2="106.97" y2="360.47" style="fill:none;stroke:#263238;stroke-miterlimit:10"/><line x1="100.56" y1="359.25" x2="96.6" y2="358.94" style="fill:none;stroke:#263238;stroke-miterlimit:10"/><line x1="101.79" y1="360.77" x2="100.87" y2="363.52" style="fill:none;stroke:#263238;stroke-miterlimit:10"/><polyline points="92.93 368.4 95.68 370.24 93.54 372.98" style="fill:none;stroke:#263238;stroke-miterlimit:10"/><line x1="98.43" y1="366.27" x2="96.6" y2="368.71" style="fill:none;stroke:#263238;stroke-miterlimit:10"/><line x1="97.82" y1="370.24" x2="101.79" y2="369.93" style="fill:none;stroke:#263238;stroke-miterlimit:10"/><line x1="95.68" y1="370.24" x2="97.51" y2="373.59" style="fill:none;stroke:#263238;stroke-miterlimit:10"/><polyline points="75.53 365.96 75.53 369.63 72.78 369.63" style="fill:none;stroke:#263238;stroke-miterlimit:10"/><polyline points="78.89 368.1 75.53 369.63 75.84 372.37" style="fill:none;stroke:#263238;stroke-miterlimit:10"/><line x1="75.53" y1="369.63" x2="80.72" y2="371.46" style="fill:none;stroke:#263238;stroke-miterlimit:10"/><path d="M67.84,372.08l.82,19.65a4.8,4.8,0,0,0,4.8,4.61H101.3a4.79,4.79,0,0,0,4.8-4.6l.82-19.32Z" style="fill:#fff;stroke:#263238;stroke-miterlimit:10"/><rect x="64.41" y="368.04" width="45.17" height="7.27" rx="1.61" style="fill:#fff;stroke:#263238;stroke-miterlimit:10"/></g><g id="freepik--Character--inject-47"><path d="M297.67,430.36c-3.5-5-3-7-3-7l-13-172.5-30-1.45v0l-.5,0-.51,0v0l-30,1.45-13,172.5s.5,2-3,7-10,8.5-10,11a3.39,3.39,0,0,0,3.5,3.5h23.5s2.5-1.5,2.5-6.5.5-16,.5-16l22.5-143.5h8l22.5,143.5s.5,11,.5,16,2.5,6.5,2.5,6.5h23.5a3.39,3.39,0,0,0,3.5-3.5C307.67,438.86,301.17,435.36,297.67,430.36Z" style="fill:#fff;stroke:#263238;stroke-miterlimit:10"/><polygon points="281.67 250.86 251.68 249.41 251.68 249.36 251.18 249.39 250.67 249.36 250.67 249.41 220.68 250.86 209.57 398.36 228.44 398.36 247.18 278.86 250.67 278.86 251.68 278.86 255.17 278.86 273.91 398.36 292.79 398.36 281.67 250.86" style="fill:#263238;stroke:#263238;stroke-miterlimit:10"/><rect x="207.36" y="394.58" width="23.7" height="9.78" rx="1.82" transform="translate(26.53 -13.45) rotate(3.74)" style="fill:#fff;stroke:#263238;stroke-miterlimit:10"/><rect x="271.7" y="394.58" width="23.7" height="9.78" rx="1.82" transform="translate(592.56 779.59) rotate(176.26)" style="fill:#fff;stroke:#263238;stroke-miterlimit:10"/><path d="M224.18,438.36c0-2.44.12-6.32.24-9.65h-2.93v-3.48c0-2.39-1.52-7-7.83-6.74s-5.65,5.65-5.65,5.65h-.34c-.13,1-.71,3-3,6.22-3.5,5-10,8.5-10,11a3.39,3.39,0,0,0,3.5,3.5h23.5S224.18,443.36,224.18,438.36Z" style="fill:#fff;stroke:#263238;stroke-miterlimit:10"/><path d="M194.72,441.1c0,.09,0,.18,0,.26a3.39,3.39,0,0,0,3.5,3.5h23.5a5.93,5.93,0,0,0,2.2-3.76Z" style="fill:#fff;stroke:#263238;stroke-miterlimit:10"/><path d="M278,438.36c0-2.44-.12-6.32-.24-9.65h2.93v-3.48c0-2.39,1.53-7,7.83-6.74s5.65,5.65,5.65,5.65h.34c.13,1,.71,3,3,6.22,3.5,5,10,8.5,10,11a3.39,3.39,0,0,1-3.5,3.5h-23.5S278,443.36,278,438.36Z" style="fill:#fff;stroke:#263238;stroke-miterlimit:10"/><path d="M307.43,441.1c0,.09,0,.18,0,.26a3.39,3.39,0,0,1-3.5,3.5h-23.5a5.93,5.93,0,0,1-2.2-3.76Z" style="fill:#fff;stroke:#263238;stroke-miterlimit:10"/><path d="M247.42,86a12.14,12.14,0,0,0-5.83,1.32C237,89.61,227.73,95,224.52,101.7c-4.34,9-.67,24-.67,30.33s-19.33,68.67-19,78,18.67,21.33,47.33,18.67,39.67-11.34,40-19.67-19.33-62.67-19.33-80,.33-25-2.33-30C268,94.39,260.7,86.32,247.42,86Z" style="fill:#263238;stroke:#263238;stroke-miterlimit:10"/><path d="M195.86,138.93s1.12-.28,3.63.84a44.57,44.57,0,0,1,8.11,4.75c3.63,2.51,3.91,8.38,5.87,7s1.95-5.31.27-7.26-4.19-5.59-4.19-5.59l4.75-2.52L207.51,122c.39-1.29-6.79.5-9.69,4.67a13.31,13.31,0,0,1-3.08,3.35s-33.25,19.85-36.61,26-3.91,10.62-2.79,11.18,21.24,6.43,29.06,8.67A89.32,89.32,0,0,0,197,178.61l-2.8-18.25-15.37-1.31s9.22-13.42,12-16.49S195.86,138.93,195.86,138.93Z" style="fill:#fff;stroke:#263238;stroke-miterlimit:10"/><path d="M203.7,127.6l5,9.43a1.77,1.77,0,0,0,2.42.76l4-2.17a1.9,1.9,0,0,0,.77-2.54l-6-11.31a1.88,1.88,0,0,0-2.71-.69l-3.75,2.5a1.75,1.75,0,0,0-.63,2.16Z" style="fill:#fff;stroke:#263238;stroke-miterlimit:10"/><line x1="207.36" y1="134.46" x2="214.22" y2="130.65" style="fill:none;stroke:#263238;stroke-miterlimit:10"/><line x1="205.53" y1="130.8" x2="212.55" y2="126.84" style="fill:none;stroke:#263238;stroke-miterlimit:10"/><line x1="203.7" y1="127.6" x2="210.56" y2="123.79" style="fill:none;stroke:#263238;stroke-miterlimit:10"/><path d="M178.81,159.05s-6.63,6-13,7.65" style="fill:none;stroke:#263238;stroke-miterlimit:10"/><path d="M204.22,131.06a8,8,0,0,1-5.07,2.62" style="fill:none;stroke:#263238;stroke-miterlimit:10"/><path d="M296.45,136.26s-1.11-.28-3.63.84a44.81,44.81,0,0,0-8.1,4.75c-3.64,2.51-3.92,8.38-5.87,7s-2-5.31-.28-7.27,4.19-5.59,4.19-5.59L278,133.47l6.79-14.18c-.39-1.29,6.79.51,9.7,4.67a13.39,13.39,0,0,0,3.07,3.36s33.26,19.84,36.61,26,3.91,10.62,2.8,11.18-21.24,6.42-29.07,8.66a87.29,87.29,0,0,1-12.57,2.79l6.18-19.58,12,0s-9.22-13.41-12-16.49S296.45,136.26,296.45,136.26Z" style="fill:#fff;stroke:#263238;stroke-miterlimit:10"/><path d="M288.61,124.93l-5,9.44a1.78,1.78,0,0,1-2.42.75l-4-2.17a1.87,1.87,0,0,1-.77-2.53l6-11.32a1.88,1.88,0,0,1,2.71-.69l3.76,2.51a1.73,1.73,0,0,1,.62,2.15Z" style="fill:#fff;stroke:#263238;stroke-miterlimit:10"/><line x1="284.95" y1="131.8" x2="278.09" y2="127.98" style="fill:none;stroke:#263238;stroke-miterlimit:10"/><line x1="286.78" y1="128.14" x2="279.77" y2="124.17" style="fill:none;stroke:#263238;stroke-miterlimit:10"/><line x1="288.61" y1="124.93" x2="281.75" y2="121.12" style="fill:none;stroke:#263238;stroke-miterlimit:10"/><path d="M313.5,156.38s6.63,6,13,7.65" style="fill:none;stroke:#263238;stroke-miterlimit:10"/><path d="M288.09,128.4a8.07,8.07,0,0,0,5.07,2.62" style="fill:none;stroke:#263238;stroke-miterlimit:10"/><path d="M239.24,136.41s0,9.29-1.4,13.65-5.24,3.51-8.4,2.93-16.71,2.67-16.71,2.67l-22.38,4,6.38,23.67s13,.15,15.1,1.93,4.22,14.31,4.19,15.29,2.48,39.2,2.27,46.29-.77,9-.77,9,21.79-.56,34.48.31,30.82-.29,30.82-.29-2.09-36-2.64-42.14,2-26.6,3.84-29.72,14.83-5.18,14.83-5.18l6.36-24.26s-18.76-2.28-23.9-2.44l-23.7-.71s-2.61-10.6-2.49-14.51Z" style="fill:#fff;stroke:#263238;stroke-miterlimit:10"/><path d="M262.35,151.54l-4.74-.14s-2.61-10.6-2.49-14.51l-15.88-.48s0,9.29-1.4,13.65c-1.07,3.46-3.73,3.64-6.37,3.27.88,4,4.24,14.3,15.71,15.37C257.72,169.68,261.23,157.86,262.35,151.54Z" style="fill:#fff;stroke:#263238;stroke-miterlimit:10"/><path d="M255.12,137.3l-.54-.43-13-.39-2.34,1.42c0,1.11-.09,2.74-.22,4.51,2.35,2.14,5.9,4.85,9.34,5.42,2.91.48,5.72-1.18,7.84-3A48.62,48.62,0,0,1,255.12,137.3Z" style="fill:#263238;stroke:#263238;stroke-miterlimit:10"/><path d="M234.24,172.44a38.94,38.94,0,0,0,1.61,3.59" style="fill:none;stroke:#263238;stroke-miterlimit:10"/><path d="M229.85,156.36a113.92,113.92,0,0,0,3.41,13.32" style="fill:none;stroke:#263238;stroke-miterlimit:10"/><path d="M225.85,157.7s1.33,14,3.33,20" style="fill:none;stroke:#263238;stroke-miterlimit:10"/><path d="M267.32,166.13a42.9,42.9,0,0,1-3.14,4.23" style="fill:none;stroke:#263238;stroke-miterlimit:10"/><path d="M273.85,153.7a80.43,80.43,0,0,1-5.3,10.48" style="fill:none;stroke:#263238;stroke-miterlimit:10"/><path d="M274.52,159.7s-3.67,12.66-7.67,16.66" style="fill:none;stroke:#263238;stroke-miterlimit:10"/><path d="M249.46,97.59s-9.32,9-13.06,11.34a62.63,62.63,0,0,0-5.49,3.75l1.25,7.13s-3.07-3.76-4.66.35,2.94,7.91,3.9,8.68a10.83,10.83,0,0,0,2.16,1.28s3.47,6.47,5.13,8.23,6.88,6.81,11.82,5.25,8.5-5.86,10-8.26a29.3,29.3,0,0,0,2.65-7s6.27-5.19,5.16-8.89a3.35,3.35,0,0,0-4.57-2.34l-.75-7.61S252.26,102.08,249.46,97.59Z" style="fill:#fff;stroke:#263238;stroke-miterlimit:10"/><polyline points="249.45 114.22 250.62 123.79 246.22 123.9" style="fill:none;stroke:#263238;stroke-miterlimit:10"/><path d="M236.76,113.35s2.3-3.36,7.14-1.74" style="fill:none;stroke:#263238;stroke-miterlimit:10"/><path d="M250.51,111.32a8.5,8.5,0,0,1,7.79,1.21" style="fill:none;stroke:#263238;stroke-miterlimit:10"/><path d="M242.42,128.19a11.09,11.09,0,0,0,11.75-.38" style="fill:none;stroke:#263238;stroke-miterlimit:10"/><path d="M243,117.45c0,1.08-.61,1.94-1.28,1.92s-1.2-.92-1.16-2,.6-1.93,1.28-1.91S243,116.37,243,117.45Z" style="fill:#263238"/><path d="M255.72,116.85c0,1.08-.6,1.94-1.28,1.92s-1.19-.91-1.16-2,.61-1.94,1.28-1.92S255.76,115.78,255.72,116.85Z" style="fill:#263238"/><path d="M242,203.66a33.64,33.64,0,0,1-1.73-5.84c-.87-3.89-4.33-5.84-6.06-.65s-1.08,8.22,2,10.82,5.19,1.51,5.19,1.51Z" style="fill:#86BC5C;stroke:#263238;stroke-miterlimit:10"/><path d="M236.32,195.44a10.92,10.92,0,0,0-.43,7.57,7.45,7.45,0,0,0,5,5" style="fill:none;stroke:#263238;stroke-miterlimit:10;stroke-width:0.5px"/><path d="M237.62,195.22s-.86,4.11.43,6.71a7.34,7.34,0,0,0,3.68,3.46" style="fill:none;stroke:#263238;stroke-miterlimit:10;stroke-width:0.5px"/><path d="M259.47,209.05a31,31,0,0,0,1.55-5.23c.77-3.49,3.87-5.23,5.42-.58s1,7.36-1.74,9.69-4.65,1.35-4.65,1.35Z" style="fill:#86BC5C;stroke:#263238;stroke-miterlimit:10"/><path d="M264.51,201.69a9.76,9.76,0,0,1,.38,6.78,6.66,6.66,0,0,1-4.45,4.46" style="fill:none;stroke:#263238;stroke-miterlimit:10;stroke-width:0.5px"/><path d="M263.34,201.49s.78,3.69-.38,6a6.6,6.6,0,0,1-3.3,3.1" style="fill:none;stroke:#263238;stroke-miterlimit:10;stroke-width:0.5px"/><path d="M240.43,218.8s-.86-14.06,1.3-20.55,10.6-10.81,14.71-4.11,5.19,18.17,5,23.8Z" style="fill:#86BC5C;stroke:#263238;stroke-miterlimit:10"/><path d="M249.09,192s-5,6.06-5.85,13.19a40.64,40.64,0,0,0,.65,13.2" style="fill:none;stroke:#263238;stroke-miterlimit:10;stroke-width:0.5px"/><line x1="251.03" y1="192.41" x2="250.35" y2="219.19" style="fill:none;stroke:#263238;stroke-miterlimit:10;stroke-width:0.5px"/><path d="M252.76,192.2s6.27,13,4.54,26.6" style="fill:none;stroke:#263238;stroke-miterlimit:10;stroke-width:0.5px"/><path d="M238.05,219.45l.53,12.62a3.08,3.08,0,0,0,3.08,3h17.88a3.08,3.08,0,0,0,3.08-3l.52-12.4Z" style="fill:#fff;stroke:#263238;stroke-miterlimit:10"/><rect x="235.85" y="216.86" width="29" height="4.67" rx="1.61" style="fill:#fff;stroke:#263238;stroke-miterlimit:10"/><line x1="240.31" y1="215.03" x2="238.61" y2="214.77" style="fill:none;stroke:#263238;stroke-miterlimit:10"/><line x1="239.79" y1="212.04" x2="237.7" y2="212.3" style="fill:none;stroke:#263238;stroke-miterlimit:10"/><line x1="237.7" y1="209.44" x2="236.53" y2="211" style="fill:none;stroke:#263238;stroke-miterlimit:10"/><line x1="234.97" y1="207.49" x2="233.02" y2="208.14" style="fill:none;stroke:#263238;stroke-miterlimit:10"/><line x1="231.72" y1="205.4" x2="233.41" y2="204.49" style="fill:none;stroke:#263238;stroke-miterlimit:10"/><line x1="231.07" y1="201.89" x2="233.41" y2="201.76" style="fill:none;stroke:#263238;stroke-miterlimit:10"/><line x1="231.98" y1="198.25" x2="233.54" y2="198.51" style="fill:none;stroke:#263238;stroke-miterlimit:10"/><line x1="232.76" y1="194.87" x2="234.32" y2="196.17" style="fill:none;stroke:#263238;stroke-miterlimit:10"/><line x1="235.49" y1="192.13" x2="236.4" y2="193.82" style="fill:none;stroke:#263238;stroke-miterlimit:10"/><line x1="239" y1="192" x2="238.61" y2="194.61" style="fill:none;stroke:#263238;stroke-miterlimit:10"/><line x1="240.96" y1="195.13" x2="239.79" y2="196.3" style="fill:none;stroke:#263238;stroke-miterlimit:10"/><line x1="241.74" y1="193.3" x2="243.04" y2="195.13" style="fill:none;stroke:#263238;stroke-miterlimit:10"/><line x1="244.34" y1="191.09" x2="245.51" y2="192.26" style="fill:none;stroke:#263238;stroke-miterlimit:10"/><line x1="247.33" y1="188.36" x2="248.24" y2="191.48" style="fill:none;stroke:#263238;stroke-miterlimit:10"/><line x1="251.89" y1="188.1" x2="251.89" y2="190.96" style="fill:none;stroke:#263238;stroke-miterlimit:10"/><line x1="257.09" y1="189.79" x2="255.27" y2="192" style="fill:none;stroke:#263238;stroke-miterlimit:10"/><line x1="259.17" y1="193.56" x2="257.48" y2="195.65" style="fill:none;stroke:#263238;stroke-miterlimit:10"/><line x1="260.21" y1="197.86" x2="258.52" y2="198.64" style="fill:none;stroke:#263238;stroke-miterlimit:10"/><line x1="260.21" y1="200.59" x2="261.38" y2="202.28" style="fill:none;stroke:#263238;stroke-miterlimit:10"/><line x1="262.68" y1="198.51" x2="263.07" y2="200.07" style="fill:none;stroke:#263238;stroke-miterlimit:10"/><line x1="266.98" y1="199.42" x2="265.94" y2="201.76" style="fill:none;stroke:#263238;stroke-miterlimit:10"/><line x1="266.98" y1="204.62" x2="268.93" y2="203.45" style="fill:none;stroke:#263238;stroke-miterlimit:10"/><line x1="267.37" y1="208.4" x2="269.45" y2="208.4" style="fill:none;stroke:#263238;stroke-miterlimit:10"/><line x1="266.33" y1="211.91" x2="267.89" y2="212.95" style="fill:none;stroke:#263238;stroke-miterlimit:10"/><line x1="263.73" y1="213.73" x2="264.12" y2="215.03" style="fill:none;stroke:#263238;stroke-miterlimit:10"/><path d="M240.91,179.74v.75H240v-.8c0-.75-.3-1.21-1-1.21s-1,.46-1,1.21v4.44c0,.75.31,1.21,1,1.21s1-.46,1-1.21V183h.89v1c0,1.27-.6,2.11-1.89,2.11s-1.89-.84-1.89-2.11v-4.34c0-1.27.6-2.11,1.89-2.11S240.91,178.47,240.91,179.74Z" style="fill:#263238"/><path d="M242.71,184.42l-.32,1.69h-.86l1.6-8.4h1.36l1.6,8.4h-.93l-.33-1.69Zm.12-.81h1.87l-.94-4.84Z" style="fill:#263238"/><path d="M250.52,179.74v.75h-.88v-.8c0-.75-.3-1.21-1-1.21s-1,.46-1,1.21v4.44c0,.75.31,1.21,1,1.21s1-.46,1-1.21V183h.88v1c0,1.27-.6,2.11-1.89,2.11s-1.88-.84-1.88-2.11v-4.34c0-1.27.6-2.11,1.88-2.11S250.52,178.47,250.52,179.74Z" style="fill:#263238"/><path d="M252.59,186.11v-7.55H251v-.85h4v.85h-1.55v7.55Z" style="fill:#263238"/><path d="M256.58,184.13c0,.75.3,1.21,1,1.21s1-.46,1-1.21v-6.42h.87v6.37c0,1.27-.58,2.12-1.88,2.12s-1.87-.85-1.87-2.12v-6.37h.92Z" style="fill:#263238"/><path d="M264,179.73V180h-.88v-.27c0-.76-.29-1.2-1-1.2s-1,.44-1,1.19c0,1.88,2.82,2.06,2.82,4.42,0,1.27-.61,2.1-1.9,2.1s-1.88-.83-1.88-2.1v-.48h.87v.53c0,.76.32,1.2,1,1.2s1-.44,1-1.2c0-1.87-2.8-2-2.8-4.41,0-1.3.59-2.1,1.85-2.1S264,178.46,264,179.73Z" style="fill:#263238"/><path d="M239.7,246.35V238h.94v7.54H243v.85Z" style="fill:#263238"/><path d="M243.67,240c0-1.28.64-2.11,1.92-2.11s1.93.83,1.93,2.11v4.34c0,1.28-.63,2.12-1.93,2.12s-1.92-.84-1.92-2.12Zm.93,4.39c0,.77.32,1.21,1,1.21s1-.44,1-1.21v-4.43c0-.76-.31-1.22-1-1.22s-1,.46-1,1.22Z" style="fill:#263238"/><path d="M249.11,238l1.37,7.3,1.35-7.3h.87l-1.58,8.39h-1.37L248.16,238Z" style="fill:#263238"/><path d="M256.4,241.67v.84h-2v3h2.52v.85h-3.45V238h3.45v.85h-2.52v2.86Z" style="fill:#263238"/><path d="M259.61,238c1.32,0,1.87.67,1.87,1.92v.68c0,.92-.32,1.5-1,1.73.76.22,1.05.85,1.05,1.75v1.3a2.05,2.05,0,0,0,.17,1h-1a2.18,2.18,0,0,1-.15-1V244c0-.94-.45-1.24-1.23-1.24h-.66v3.58h-.93V238Zm-.24,3.95c.74,0,1.19-.24,1.19-1.15V240c0-.76-.28-1.15-1-1.15h-.92v3.1Z" style="fill:#263238"/></g></svg>