<svg xmlns="http://www.w3.org/2000/svg" viewBox="17.28 35.45 463.3 435.12"><g id="freepik--background-simple--inject-29"><path d="M414.4,123.5q-2.5-4.05-5.19-8C369.86,57.63,292.53,31.15,224.93,43.38c-42.16,7.62-93.32,32.87-107,76.82C101,174.44,73.05,208.59,41.35,269.49S12.47,404,65,436.84s200.67,44.32,294.73,22.65c32.14-7.4,64-22.86,87.15-46.71,49.77-51.26,23.42-130.39,7.07-190C444.64,188.73,433.24,154,414.4,123.5Z" style="fill:#86BC5C"/><path d="M414.4,123.5q-2.5-4.05-5.19-8C369.86,57.63,292.53,31.15,224.93,43.38c-42.16,7.62-93.32,32.87-107,76.82C101,174.44,73.05,208.59,41.35,269.49S12.47,404,65,436.84s200.67,44.32,294.73,22.65c32.14-7.4,64-22.86,87.15-46.71,49.77-51.26,23.42-130.39,7.07-190C444.64,188.73,433.24,154,414.4,123.5Z" style="fill:#fff;opacity:0.8"/></g><g id="freepik--Floor--inject-29"><line x1="76.09" y1="455.65" x2="467.71" y2="455.65" style="fill:none;stroke:#263238;stroke-linecap:round;stroke-linejoin:round"/><line x1="17.78" y1="455.65" x2="68.16" y2="455.65" style="fill:none;stroke:#263238;stroke-linecap:round;stroke-linejoin:round"/></g><g id="freepik--picture-2--inject-29"><rect x="329.46" y="35.95" width="105.75" height="143.69" style="fill:none;stroke:#263238;stroke-linecap:round;stroke-linejoin:round"/><rect x="335.49" y="44.14" width="93.7" height="127.32" style="fill:none;stroke:#263238;stroke-linecap:round;stroke-linejoin:round"/><rect x="362.24" y="80.49" width="40.19" height="54.62" style="fill:none;stroke:#263238;stroke-linecap:round;stroke-linejoin:round"/></g><g id="freepik--picture-1--inject-29"><polygon points="147.66 217.57 158.28 241.39 141.11 241.39 147.66 217.57" style="fill:#fff;stroke:#263238;stroke-linecap:round;stroke-linejoin:round"/><polygon points="153.07 201.5 121.21 201.5 114.5 241.97 146.36 241.97 153.07 201.5" style="fill:#fff;stroke:#263238;stroke-linecap:round;stroke-linejoin:round"/><polygon points="151.59 201.5 119.73 201.5 113.02 241.97 144.88 241.97 151.59 201.5" style="fill:#fff;stroke:#263238;stroke-linecap:round;stroke-linejoin:round"/><polygon points="147.21 206.09 122.59 206.09 117.4 237.38 142.03 237.38 147.21 206.09" style="fill:#fff;stroke:#263238;stroke-linecap:round;stroke-linejoin:round"/></g><g id="freepik--Lamp--inject-29"><path d="M86.46,165.63H78.71V181.7h2.73v17.79a1,1,0,0,0,2,0V181.7h3Z" style="fill:#263238"/><rect x="79.85" y="196.6" width="5.23" height="39.93" style="fill:#fff;stroke:#263238;stroke-linecap:round;stroke-linejoin:round"/><rect x="55.13" y="235.11" width="53.71" height="6.65" style="fill:#263238;stroke:#263238;stroke-linecap:round;stroke-linejoin:round"/><polygon points="122.52 174.26 42.41 174.26 71.68 137.25 93.25 137.25 122.52 174.26" style="fill:#fff;stroke:#263238;stroke-linecap:round;stroke-linejoin:round"/></g><g id="freepik--Plant--inject-29"><path d="M428.66,273.49h0a.12.12,0,0,0-.23-.09,165.09,165.09,0,0,0-8.69,27.24,253.8,253.8,0,0,0-4.8,28.24l-.67,7.14c-.11,1.19-.24,2.38-.32,3.57l-.2,3.58c-.1,2.39-.25,4.78-.32,7.17l.07,7.17.08,3.59c.05,1.19.14,2.39.22,3.58.18,2.38.32,4.77.54,7.15.46,4.75,1.17,9.48,1.91,14.19a.13.13,0,0,0,.25,0h0c0-2.39-.11-4.77-.17-7.15s-.27-4.75-.24-7.13,0-4.74-.08-7.12L416,361l.06-3.56,0-7.11.19-7.1.08-3.55c0-1.19.13-2.37.2-3.55l.43-7.1a252.34,252.34,0,0,1,4-28.17A163.79,163.79,0,0,1,428.66,273.49Z" style="fill:#263238"/><path d="M429.68,310.66a.14.14,0,0,0-.08-.16.13.13,0,0,0-.16.08,165.35,165.35,0,0,0-8.05,36.61c-.63,6.22-1.33,12.45-1.41,18.7a154.79,154.79,0,0,0,.66,18.76.14.14,0,0,0,.12.11.11.11,0,0,0,.13-.11c.73-6.23,1.17-12.44,1.6-18.65s.5-12.43.9-18.64a186.09,186.09,0,0,1,6.29-36.7Z" style="fill:#263238"/><path d="M450.28,323.74a.12.12,0,0,0-.17,0,62.84,62.84,0,0,0-13.78,12,55.83,55.83,0,0,0-5.39,7.49l-1.1,2.09-.87,2.17a22,22,0,0,0-.76,2.2c-.22.74-.47,1.48-.67,2.23a89.16,89.16,0,0,0-2.85,18.17,104.68,104.68,0,0,0,.69,18.31.12.12,0,0,0,.11.11.14.14,0,0,0,.14-.12l1.57-18.12c.62-6,1-12,2.29-17.87.17-.73.38-1.44.56-2.16a18.89,18.89,0,0,1,.64-2.14l.73-2.09.95-2a53,53,0,0,1,4.94-7.5,62.5,62.5,0,0,1,12.93-12.59h0A.13.13,0,0,0,450.28,323.74Z" style="fill:#263238"/><path d="M440.31,347c-2.81,1.81-4.69,4.66-6.27,7.53a44.78,44.78,0,0,0-3.51,9.23c-.24.79-.44,1.59-.61,2.39l-.57,2.41a42.58,42.58,0,0,0-.61,4.9c0,1.64-.06,3.28.05,4.92a43,43,0,0,0,.64,4.9.14.14,0,0,0,.1.1.14.14,0,0,0,.15-.1,43.63,43.63,0,0,0,.87-4.82c.26-1.6.5-3.18.69-4.77s.45-3.15.57-4.75.34-3.17.68-4.73a42.82,42.82,0,0,1,2.69-9.14,20.12,20.12,0,0,1,5.26-7.85l0,0a.11.11,0,0,0,0-.16A.12.12,0,0,0,440.31,347Z" style="fill:#263238"/><path d="M411.41,365.17c-.68-8-2-16-3.26-24s-2.64-15.9-4.1-23.82-3.08-15.81-4.79-23.68a.13.13,0,0,0-.15-.1.13.13,0,0,0-.1.14c1.38,7.94,2.63,15.89,3.8,23.85s2.35,15.92,3.35,23.9,1.75,16,2.75,23.95l2.95,23.94a.13.13,0,0,0,.11.12.14.14,0,0,0,.14-.12c.09-2,.09-4,.14-6.06s-.08-4-.12-6.06C412.06,373.22,411.71,369.2,411.41,365.17Z" style="fill:#263238"/><path d="M406.59,365.06c-.43-3.19-1-6.36-1.63-9.52l-1.13-4.69c-.37-1.57-.72-3.14-1.18-4.68a131.14,131.14,0,0,0-6.15-18.3l-1-2.21-1.07-2.17c-.68-1.46-1.51-2.85-2.29-4.25a35.73,35.73,0,0,0-5.81-7.7.14.14,0,0,0-.17,0,.13.13,0,0,0,0,.18h0a35.44,35.44,0,0,1,5.31,7.87c.7,1.44,1.44,2.84,2,4.32l.94,2.19.84,2.23a130.9,130.9,0,0,1,5.36,18.3c.73,3.1,1.22,6.25,1.82,9.37l.75,4.72c.28,1.57.61,3.12.83,4.7.5,3.15,1.08,6.28,1.63,9.43s1.07,6.31,1.73,9.46a.12.12,0,0,0,.12.1.12.12,0,0,0,.13-.12c0-3.21-.06-6.43-.22-9.64S406.92,368.26,406.59,365.06Z" style="fill:#263238"/><path d="M399.93,365.47c-1.49-4.22-3.22-8.36-5.1-12.41a110.08,110.08,0,0,0-6.4-11.74.13.13,0,0,0-.17-.05.14.14,0,0,0-.05.18,108.67,108.67,0,0,1,5.47,12.11c1.63,4.12,3.11,8.29,4.34,12.53s2.16,8.56,3.29,12.81,2.14,8.55,3.45,12.86a.14.14,0,0,0,.12.1.13.13,0,0,0,.13-.13,64.6,64.6,0,0,0-1.25-13.38A83.26,83.26,0,0,0,399.93,365.47Z" style="fill:#263238"/><path d="M399.65,379.53a28.66,28.66,0,0,0-3.54-7.43,30.59,30.59,0,0,0-5.15-6.4,24.55,24.55,0,0,0-3.28-2.48,13.72,13.72,0,0,0-3.72-1.68.13.13,0,0,0-.15.07.13.13,0,0,0,.07.17h0a18.55,18.55,0,0,1,6.17,4.8,29,29,0,0,1,4.3,6.5c1.22,2.31,1.85,4.87,2.91,7.25.47,1.22.94,2.45,1.48,3.67a32.27,32.27,0,0,0,1.61,3.71h0a.13.13,0,0,0,.24-.05,29.82,29.82,0,0,0-.15-4.12C400.26,382.2,400,380.86,399.65,379.53Z" style="fill:#263238"/><path d="M400.15,305.21s-13.18-3-16.22-17.24,6.76-8.11-2-30.42-6.76-27.38-3.72-33.8,4.73-4.39,7.44,4.06,12.5,21.63,16.22,46.31S400.15,305.21,400.15,305.21Z" style="fill:#86BC5C"/><path d="M426.18,281.21s-8.79-3-9.13-19.6,6.42-13.18,7.44-33.8,2.36-35.16,6.08-35.5,13.52,10.14,16.9,33.13-4.39,38.2-11.15,45S426.18,281.21,426.18,281.21Z" style="fill:#86BC5C"/><path d="M395.42,325.16s-2-12.17-6.09-17.92-12.84-10.82-18.59-22-12.17-16.56-11.83-.68,7.44,24,16.23,29.41S395.42,325.16,395.42,325.16Z" style="fill:#86BC5C"/><path d="M391.7,346.11s-8.11-15.55-19.94-27-21.3-17.24-17.92-11.49S361.28,313,367,323.13s4.06,17.58,12.17,23.32S391.7,346.11,391.7,346.11Z" style="fill:#86BC5C"/><path d="M390.69,366.06c-.34-1-.68-8.45-12.17-14.54s-22.31-3.72-21-.67S366,359,373.11,362,390.69,366.06,390.69,366.06Z" style="fill:#86BC5C"/><path d="M425.5,325.83s-5.07-6.42-2.36-19.94,8.78-10.14,15.54-17.24,5.41-8.11,12.17-15.55,12.85-11.49,15.55-8.45-1.35,12.51-5.41,17.92-10.47,8.11-13.52,14.87S445.78,315,438,320.09,425.5,325.83,425.5,325.83Z" style="fill:#86BC5C"/><path d="M442.4,329.55s12.17-13.86,21-24,12.17-17.91,12.51-11.15,3,12.17-4.06,21S442.4,329.55,442.4,329.55Z" style="fill:#86BC5C"/><path d="M436,351.86s-.34-5.41,18.93-17.92,27.38-14.87,25.35-9.8-10.48,10.14-19.6,19.27S436,351.86,436,351.86Z" style="fill:#86BC5C"/><path d="M401,303.77s-4.52-24.25-9.25-41.49-7.77-27.71-7.77-27.71" style="fill:none;stroke:#263238;stroke-linecap:round;stroke-linejoin:round"/><path d="M425.4,281.47s8.21-26.28,10.92-42.17-.34-27.72-1.69-34.82" style="fill:none;stroke:#263238;stroke-linecap:round;stroke-linejoin:round"/><path d="M394.35,324.65A127.81,127.81,0,0,0,381.9,306.9c-7.44-8.79-13.19-13.52-16.57-22" style="fill:none;stroke:#263238;stroke-linecap:round;stroke-linejoin:round"/><path d="M425.5,325.83s2.71-16.22,9.13-24.67S453.9,279.52,459,271.07" style="fill:none;stroke:#263238;stroke-linecap:round;stroke-linejoin:round"/><path d="M389.89,365.69s-11.37-7.41-19.49-11.46" style="fill:none;stroke:#263238;stroke-linecap:round;stroke-linejoin:round"/><rect x="392.75" y="379.1" width="41.13" height="76.54" style="fill:#263238;stroke:#263238;stroke-linecap:round;stroke-linejoin:round"/></g><g id="freepik--Furniture--inject-29"><rect x="40.14" y="241.67" width="127.55" height="204.38" style="fill:#fff;stroke:#263238;stroke-linecap:round;stroke-linejoin:round"/><rect x="40.14" y="241.67" width="103.77" height="204.38" style="fill:#fff;stroke:#263238;stroke-linecap:round;stroke-linejoin:round"/><rect x="47.22" y="253.03" width="89.21" height="35.97" style="fill:none;stroke:#263238;stroke-linecap:round;stroke-linejoin:round"/><rect x="82.25" y="268.44" width="15.41" height="4.2" style="fill:#263238;stroke:#263238;stroke-linecap:round;stroke-linejoin:round"/><rect x="47.22" y="298.33" width="89.21" height="35.96" style="fill:none;stroke:#263238;stroke-linecap:round;stroke-linejoin:round"/><rect x="82.25" y="313.75" width="15.41" height="4.2" style="fill:#263238;stroke:#263238;stroke-linecap:round;stroke-linejoin:round"/><rect x="47.22" y="343.64" width="89.21" height="35.97" style="fill:none;stroke:#263238;stroke-linecap:round;stroke-linejoin:round"/><rect x="82.25" y="359.05" width="15.41" height="4.2" style="fill:#263238;stroke:#263238;stroke-linecap:round;stroke-linejoin:round"/><rect x="47.22" y="388.95" width="89.21" height="35.97" style="fill:none;stroke:#263238;stroke-linecap:round;stroke-linejoin:round"/><rect x="82.25" y="404.36" width="15.41" height="4.2" style="fill:#263238;stroke:#263238;stroke-linecap:round;stroke-linejoin:round"/><rect x="44.83" y="446.05" width="6.42" height="9.42" style="fill:#c4c4c4;stroke:#263238;stroke-linecap:round;stroke-linejoin:round"/><rect x="74.16" y="446.05" width="6.42" height="9.42" style="fill:#c4c4c4;stroke:#263238;stroke-linecap:round;stroke-linejoin:round"/><rect x="125.12" y="446.05" width="6.42" height="9.42" style="fill:#c4c4c4;stroke:#263238;stroke-linecap:round;stroke-linejoin:round"/><rect x="158.09" y="446.05" width="6.42" height="9.42" style="fill:#c4c4c4;stroke:#263238;stroke-linecap:round;stroke-linejoin:round"/></g><g id="freepik--Character--inject-29"><path d="M167.29,457.06h0c-1.45-.16-2.55-1.06-2.47-2l8.07-97.22L183.31,359l-13.18,96.65C170,456.57,168.73,457.22,167.29,457.06Z" style="fill:#c4c4c4;stroke:#263238;stroke-linecap:round;stroke-linejoin:round"/><path d="M234,457.06h0c1.45-.16,2.54-1.06,2.46-2l-8.06-97.22L218,359l13.18,96.65C231.26,456.57,232.52,457.22,234,457.06Z" style="fill:#c4c4c4;stroke:#263238;stroke-linecap:round;stroke-linejoin:round"/><path d="M274.94,457.06h0c-1.45-.16-2.55-1.06-2.47-2l8.07-97.22L291,359l-13.18,96.65C277.65,456.57,276.38,457.22,274.94,457.06Z" style="fill:#c4c4c4;stroke:#263238;stroke-linecap:round;stroke-linejoin:round"/><path d="M341.62,457.06h0c1.45-.16,2.54-1.06,2.46-2L336,357.81,325.6,359l13.18,96.65C338.91,456.57,340.17,457.22,341.62,457.06Z" style="fill:#c4c4c4;stroke:#263238;stroke-linecap:round;stroke-linejoin:round"/><polygon points="171.75 371.54 181.59 371.54 183.31 358.96 172.89 357.81 171.75 371.54" style="fill:#263238;stroke:#263238;stroke-linecap:round;stroke-linejoin:round"/><polygon points="279.4 371.54 289.24 371.54 290.96 358.96 280.54 357.81 279.4 371.54" style="fill:#263238;stroke:#263238;stroke-linecap:round;stroke-linejoin:round"/><polygon points="336.02 357.81 325.6 358.96 327.31 371.54 337.16 371.54 336.02 357.81" style="fill:#263238;stroke:#263238;stroke-linecap:round;stroke-linejoin:round"/><path d="M247.53,160.53s.19,10.2-.2,13.14-9.22,5.1-14.91,5.69-9-.78-9,2.55,13.14,24.71,32,27.07,42.17-15.11,44.53-18.64,4.31-7.25,4.31-7.25-19-6.48-22-8.24-4.91-2-5.5-3.14S275,159.35,275,159.35s-3.14,5.49-11.77,6.87S247.53,160.53,247.53,160.53Z" style="fill:#fff;stroke:#263238;stroke-linecap:round;stroke-linejoin:round"/><path d="M280.25,203.65c2.08-1,4.06-2,5.93-3.09,1.08-6.5,2.84-16.63,4.17-22.38-1.58-.59-3.09-1.16-4.38-1.67A227.84,227.84,0,0,0,280.25,203.65Z" style="fill:#fff;stroke:#263238;stroke-linecap:round;stroke-linejoin:round"/><path d="M235.37,198.83a48.51,48.51,0,0,0,5.95,4.68l.85-26.22a40.77,40.77,0,0,1-4.61,1.25Z" style="fill:#fff;stroke:#263238;stroke-linecap:round;stroke-linejoin:round"/><path d="M239.09,132.28s2.16,15.5,3.14,19.62,6.08,13.14,9.42,18.24A10.31,10.31,0,0,0,264,174.46c3.53-1.38,11.58-10.2,13.34-14.71A47,47,0,0,0,280.28,147c0-2.16,1-10.4,1-10.4s1-6.47,1.18-10.4.59-8-10.59-9.41S247.53,116,243,120.71,238.5,129.73,239.09,132.28Z" style="fill:#fff;stroke:#263238;stroke-linecap:round;stroke-linejoin:round"/><path d="M246.55,146.21a7.11,7.11,0,0,0,7.84,1.18" style="fill:none;stroke:#263238;stroke-linecap:round;stroke-linejoin:round"/><path d="M264.59,147.58A9.06,9.06,0,0,0,274,147" style="fill:none;stroke:#263238;stroke-linecap:round;stroke-linejoin:round"/><path d="M255,156.8s2,3.14,4.9,2.75a5,5,0,0,0,3.93-2.94" style="fill:none;stroke:#263238;stroke-linecap:round;stroke-linejoin:round"/><path d="M253,161.71s4.12,2,7.65,1.76a14.47,14.47,0,0,0,6.86-2.74" style="fill:none;stroke:#263238;stroke-linecap:round;stroke-linejoin:round"/><path d="M264,142.88s6.08-3.14,10,0" style="fill:none;stroke:#263238;stroke-linecap:round;stroke-linejoin:round"/><path d="M254.2,143.27s-5.3-4.71-8.83-1.37" style="fill:none;stroke:#263238;stroke-linecap:round;stroke-linejoin:round"/><path d="M280.68,143.07s1.76-7.26,4.51-5.1,1.37,9.42-.2,12-5.29,2.74-5.29,2.74Z" style="fill:#fff;stroke:#263238;stroke-linecap:round;stroke-linejoin:round"/><path d="M240.07,138.17s-4.31-2.94-4.31,2.74,6.47,11,6.47,11Z" style="fill:#fff;stroke:#263238;stroke-linecap:round;stroke-linejoin:round"/><path d="M273.61,119.73s-2.15,3.92-6.08,5.1-3.72-2.75-3.72-2.75-17.46,11.77-20.6,13.93-4.12,3.53-9.81,3.53-5.49-4.71-3.72-6.27-5.89-1-5.89-7.07,6.28-22.55,27.27-30.4,31.19.39,32.75,3.92a20.83,20.83,0,0,1,1.57,7.46s6.87.59,6.87,9.8-4.32,14.91-5.89,15.89-3.33,4.51-3.53,5.1-1,6.08-2,7.06-1.17-1.76-1-4.12a25.84,25.84,0,0,0,0-4.31s-2.35,1.76-2.74-5.88,0-9.42,0-9.42S272.05,124.63,273.61,119.73Z" style="fill:#263238;stroke:#263238;stroke-linecap:round;stroke-linejoin:round"/><path d="M175.74,280.69h6.54a0,0,0,0,1,0,0v67a4.71,4.71,0,0,1-4.71,4.71h-1.83a0,0,0,0,1,0,0V280.69A0,0,0,0,1,175.74,280.69Z" style="fill:#c4c4c4;stroke:#263238;stroke-linecap:round;stroke-linejoin:round"/><path d="M177.21,280.69h6.54a0,0,0,0,1,0,0v67a4.71,4.71,0,0,1-4.71,4.71h-1.83a0,0,0,0,1,0,0V280.69A0,0,0,0,1,177.21,280.69Z" style="fill:#fff;stroke:#263238;stroke-linecap:round;stroke-linejoin:round"/><path d="M206.62,280.69h6.54a0,0,0,0,1,0,0v67a4.71,4.71,0,0,1-4.71,4.71h-1.83a0,0,0,0,1,0,0V280.69A0,0,0,0,1,206.62,280.69Z" style="fill:#c4c4c4;stroke:#263238;stroke-linecap:round;stroke-linejoin:round"/><path d="M208.19,280.69h6.54a0,0,0,0,1,0,0v67a4.64,4.64,0,0,1-4.64,4.64h-1.9a0,0,0,0,1,0,0V280.69A0,0,0,0,1,208.19,280.69Z" style="fill:#c4c4c4;stroke:#263238;stroke-linecap:round;stroke-linejoin:round"/><rect x="163.71" y="276.76" width="59.65" height="5.76" style="fill:#c4c4c4;stroke:#263238;stroke-linecap:round;stroke-linejoin:round"/><rect x="171.82" y="276.76" width="51.54" height="5.76" style="fill:#fff;stroke:#263238;stroke-linecap:round;stroke-linejoin:round"/><polygon points="346.23 337.34 346.23 208.67 261.98 208.67 261.98 337.78 346.23 337.34" style="fill:#86BC5C;stroke:#263238;stroke-linecap:round;stroke-linejoin:round"/><path d="M346.23,208.67s-18.7,51.91-11.71,124.26l11.71,4.41Z" style="fill:#86BC5C;stroke:#263238;stroke-linecap:round;stroke-linejoin:round"/><path d="M163.81,337.34H346.23a0,0,0,0,1,0,0v22.5a4.83,4.83,0,0,1-4.83,4.83H168.64a4.83,4.83,0,0,1-4.83-4.83V337.34A0,0,0,0,1,163.81,337.34Z" style="fill:#86BC5C;stroke:#263238;stroke-linecap:round;stroke-linejoin:round"/><path d="M346.23,337.34a78.8,78.8,0,0,0-27.63-6.42c-16-.78-38.46,3.93-42.13,4.45s-55.46-7.06-75.87-5.23a184.43,184.43,0,0,0-36.79,7.2Z" style="fill:#86BC5C;stroke:#263238;stroke-linecap:round;stroke-linejoin:round"/><path d="M223.16,286.57s-29.19,8-39.38,14.87-8.26,18.17-5.23,29.19,27.26,60.85,30.56,65.8,20.93,36.62,27.26,47.64,16.25,17.07,21.2,16.52,8.26-6.89,5-15.7-12.39-13.22-18.17-19.55-12.39-17.89-13.49-24.5-8.54-41.85-8.54-43.23,5.23-32.77,5.23-32.77,47.36-9.63,55.07-20.92,2.2-17.9-3-19.55S229.49,284.37,223.16,286.57Z" style="fill:#fff;stroke:#263238;stroke-linecap:round;stroke-linejoin:round"/><path d="M253.08,433.07c1.37,3.34,3.08,8,2.57,9.34-.83,2.21-6.89,5.51-10.19,5.23-2.08-.17-6.54-2.62-9.57-4.42l.48.85c6.34,11,16.25,17.07,21.2,16.52s8.26-6.89,5-15.7C260.67,439.93,257,436.37,253.08,433.07Z" style="fill:#263238;stroke:#263238;stroke-linecap:round;stroke-linejoin:round"/><path d="M230.87,400.84c-1.11-6.61-8.54-41.85-8.54-43.23S226.21,332,226.21,332s77.13,8.9,78.86-4.66c6.34-49.76-20.24-41.35-25.47-43s-50.11,0-56.44,2.2c0,0-29.19,8-39.38,14.87s-8.26,18.17-5.23,29.19,27.26,60.85,30.56,65.8c1.16,1.73,4.06,6.72,7.61,12.95a21.54,21.54,0,0,0,11.67-3.86q1.61-1.11,3.06-2.25A20.6,20.6,0,0,1,230.87,400.84Z" style="fill:#263238;stroke:#263238;stroke-linecap:round;stroke-linejoin:round"/><path d="M227.91,178.38s1.18,16.67,15.5,22.36,34.91,2.16,44.92-5.49,13.33-13.73,13.33-13.73,8,1.57,11.58,5.69,4.31,16.47,4.51,18.63S325.53,239,325.53,239s4.91,5.69,4.32,8.24-2,3.73-1.57,5.1,1.43,7.57.64,11.1,2.11,7.92-6.33,10.87-12,3.53-17.26,1-9.81-14.12-9.81-14.12,3,19.81,3.34,20.59-.2,5.89-2,7.65-29.43,5.49-51.2,2.75-24.52-3.34-24.71-7.06a75,75,0,0,1,1-12.36c.39-2.55-1-23.54-1-23.54L218.44,225l-17.85,29.62s-14.12-1.57-17.26-6.08a7.9,7.9,0,0,1,.78-10.39c1.77-1.77.39-2.75.79-5.1a14.08,14.08,0,0,1,5.68-8.24c2.95-1.77,12.42-13.71,14.38-22.15s4.91-18.83,8.63-21.38S227.91,178.38,227.91,178.38Z" style="fill:#c4c4c4;stroke:#263238;stroke-linecap:round;stroke-linejoin:round"/><path d="M218.87,222.59s1.76-16.71,2.34-21.38" style="fill:none;stroke:#263238;stroke-linecap:round;stroke-linejoin:round"/><path d="M217.5,203.24c-.1,4.76,0,11.61,1.37,15.55" style="fill:none;stroke:#263238;stroke-linecap:round;stroke-linejoin:round"/><path d="M217.71,198s-.05.78-.11,2.06" style="fill:none;stroke:#263238;stroke-linecap:round;stroke-linejoin:round"/><path d="M298.79,214.71c.22-2,.46-3.79.73-5.4" style="fill:none;stroke:#263238;stroke-linecap:round;stroke-linejoin:round"/><path d="M297.18,239.94s.25-8.38.89-17.15" style="fill:none;stroke:#263238;stroke-linecap:round;stroke-linejoin:round"/><path d="M303.6,243.15a34.89,34.89,0,0,1,13.42-5" style="fill:none;stroke:#263238;stroke-linecap:round;stroke-linejoin:round"/><path d="M313.52,246.8a18.63,18.63,0,0,1,11.66-.59" style="fill:none;stroke:#263238;stroke-linecap:round;stroke-linejoin:round"/><path d="M198,230.75s-12.69,10.65-14.73,15.46.44,15.46,7.29,18.38a13.31,13.31,0,0,0,15.9-4.52c2.62-3.79,8.93-33.4,8.93-33.4Z" style="fill:#c4c4c4;stroke:#263238;stroke-linecap:round;stroke-linejoin:round"/><path d="M325,251.92S291,238,288.46,237s-5.1-2-7.65.59-5.88,7.45-2.15,12.55,21.57,27.85,32.75,27.46,16.09-3.33,18-7.84,0-12.36-.59-14.91" style="fill:#c4c4c4;stroke:#263238;stroke-linecap:round;stroke-linejoin:round"/><path d="M235.2,218.79a10.84,10.84,0,0,0,3.79,2.34c2.19.73,8.17-.59,8.17-.59s3.21,19.55,3.06,21.15-4.08,4.23-9.48,5.83-5.69,1.61-9.48,1.46-1.31-.43-6.71,1-7,5.25-11.23-1.89-.58-5-6-6.56-6.56-9.48-6.56-9.48l33-9Z" style="fill:#86BC5C;stroke:#263238;stroke-linecap:round;stroke-linejoin:round"/><path d="M221.25,230.87s.09,2.63,2.54,2.78" style="fill:none;stroke:#263238;stroke-linecap:round;stroke-linejoin:round"/><path d="M225.42,231.39s.08,2.62,2.54,2.78" style="fill:none;stroke:#263238;stroke-linecap:round;stroke-linejoin:round"/><path d="M224.11,236.22s.09,2.62,2.54,2.78" style="fill:none;stroke:#263238;stroke-linecap:round;stroke-linejoin:round"/><path d="M229.59,231.91s.09,2.63,2.55,2.78" style="fill:none;stroke:#263238;stroke-linecap:round;stroke-linejoin:round"/><path d="M228.29,236.74s.08,2.63,2.54,2.78" style="fill:none;stroke:#263238;stroke-linecap:round;stroke-linejoin:round"/><path d="M234.29,228.12s.09,2.63,2.55,2.78" style="fill:none;stroke:#263238;stroke-linecap:round;stroke-linejoin:round"/><path d="M233,233s.08,2.63,2.54,2.78" style="fill:none;stroke:#263238;stroke-linecap:round;stroke-linejoin:round"/><path d="M221.11,234.65s.08,2.63,2.54,2.78" style="fill:none;stroke:#263238;stroke-linecap:round;stroke-linejoin:round"/><path d="M219.8,239.48s.09,2.63,2.55,2.78" style="fill:none;stroke:#263238;stroke-linecap:round;stroke-linejoin:round"/><path d="M216.41,234s.08,2.62,2.54,2.78" style="fill:none;stroke:#263238;stroke-linecap:round;stroke-linejoin:round"/><path d="M215.1,238.83s.09,2.62,2.55,2.78" style="fill:none;stroke:#263238;stroke-linecap:round;stroke-linejoin:round"/><path d="M224.76,239.35s.09,2.63,2.55,2.78" style="fill:none;stroke:#263238;stroke-linecap:round;stroke-linejoin:round"/><path d="M223.46,244.18s.08,2.63,2.54,2.78" style="fill:none;stroke:#263238;stroke-linecap:round;stroke-linejoin:round"/><path d="M233.25,236.61s.08,2.63,2.54,2.78" style="fill:none;stroke:#263238;stroke-linecap:round;stroke-linejoin:round"/><path d="M231.94,241.44s.09,2.63,2.55,2.78" style="fill:none;stroke:#263238;stroke-linecap:round;stroke-linejoin:round"/><path d="M238.47,229.43s.09,2.63,2.54,2.78" style="fill:none;stroke:#263238;stroke-linecap:round;stroke-linejoin:round"/><path d="M237.17,234.26s.08,2.63,2.54,2.78" style="fill:none;stroke:#263238;stroke-linecap:round;stroke-linejoin:round"/><path d="M212,231.52s.09,2.62,2.54,2.78" style="fill:none;stroke:#263238;stroke-linecap:round;stroke-linejoin:round"/><path d="M210.67,236.35s.08,2.62,2.54,2.78" style="fill:none;stroke:#263238;stroke-linecap:round;stroke-linejoin:round"/><path d="M254.21,215.63l-9.84,4.16-58,16.35a2.2,2.2,0,0,1-2.79-1.85h0a2.2,2.2,0,0,1,1.63-2.41l59.51-15.43Z" style="fill:#fff;stroke:#263238;stroke-linecap:round;stroke-linejoin:round"/><path d="M233.12,216.22s-.93-4-2.34-4.22-4.93,1.52-4.81,2.23,4.81,7.39,5.75,8.1,3.05,1.76,3.4-.24S232.19,214.82,233.12,216.22Z" style="fill:#fff;stroke:#263238;stroke-linecap:round;stroke-linejoin:round"/><path d="M226,214.23s-2.94-2.7-3.88-2.58-4.46,3.87-4.1,4.81,6.57,5.51,7.74,6.69,3.64,1,3.87-.59-1.17-4.22-1.87-5.4S226,214.23,226,214.23Z" style="fill:#fff;stroke:#263238;stroke-linecap:round;stroke-linejoin:round"/><path d="M218,216.46s-3.06.59-3.88,1.52-2,3.06-1.29,3.52,7.28,3.76,8.22,3.76,3.17-.23,2.93-1.76-2.23-3.76-3.52-5.05A14.25,14.25,0,0,0,218,216.46Z" style="fill:#fff;stroke:#263238;stroke-linecap:round;stroke-linejoin:round"/><path d="M212.82,221.5s-2.23.12-2.7,1.3-.58,2.34-.23,2.46,3.75,1.53,5.51,1.41,2.7-1.53,1.65-2.47A37.64,37.64,0,0,0,212.82,221.5Z" style="fill:#fff;stroke:#263238;stroke-linecap:round;stroke-linejoin:round"/><path d="M200.78,233.07l-.19,0a3.56,3.56,0,0,1-2.32-1.71,4.09,4.09,0,0,1,.14-3.61,1,1,0,1,1,1.83.8,2.42,2.42,0,0,0-.2,1.87,1.54,1.54,0,0,0,1,.69,1,1,0,0,1-.21,2Z" style="fill:#86BC5C;stroke:#263238;stroke-linecap:round;stroke-linejoin:round"/><path d="M205,232.19a1,1,0,0,1-.33-.06c-1.18-.41-3.11-2.1-1.93-5.5a1,1,0,0,1,1.89.66c-.78,2.24.46,2.86.72,3a1,1,0,0,1,.58,1.29A1,1,0,0,1,205,232.19Z" style="fill:#86BC5C;stroke:#263238;stroke-linecap:round;stroke-linejoin:round"/><path d="M208.94,230.73a1,1,0,0,1-.63-.22,4.65,4.65,0,0,1-1.35-4.67,1,1,0,0,1,1.94.49,2.66,2.66,0,0,0,.69,2.64,1,1,0,0,1-.65,1.76Z" style="fill:#86BC5C;stroke:#263238;stroke-linecap:round;stroke-linejoin:round"/><path d="M264.38,286.71a1,1,0,0,1-1-.77c0-.13-.73-3.15-.73-11.27a53.74,53.74,0,0,1,1.18-10.35,53.26,53.26,0,0,0,1.2-11.3,97.54,97.54,0,0,0-2.63-18.63,1,1,0,1,1,1.94-.49A97.35,97.35,0,0,1,267.06,253a55.13,55.13,0,0,1-1.23,11.7,51.23,51.23,0,0,0-1.15,10c0,7.89.67,10.78.67,10.8a1,1,0,0,1-.74,1.21A.91.91,0,0,1,264.38,286.71Z" style="fill:#86BC5C;stroke:#263238;stroke-linecap:round;stroke-linejoin:round"/><path d="M266.47,282.65a1,1,0,0,1-1-.93,167.08,167.08,0,0,1,.56-17.05l0-.33a150.06,150.06,0,0,0,.67-17.46c-.13-6.89-2.85-14.56-2.87-14.64a1,1,0,0,1,.6-1.27,1,1,0,0,1,1.28.6,55.7,55.7,0,0,1,3,15.27,153,153,0,0,1-.67,17.65l0,.33c-.55,7.12-.7,14.69-.56,16.77a1,1,0,0,1-.93,1.06Z" style="fill:#86BC5C;stroke:#263238;stroke-linecap:round;stroke-linejoin:round"/><path d="M235.24,206.72l8.68,6.22,44.24,40.86a2.21,2.21,0,0,1-.12,3.34h0a2.21,2.21,0,0,1-2.92-.13l-44.25-42.66Z" style="fill:#fff;stroke:#263238;stroke-linecap:round;stroke-linejoin:round"/><path d="M287.09,240s.14,3.92-2.8,6.08-4.46,1.18-5.63.79-4.71-5.89-4.71-5.89a6.18,6.18,0,0,1-4.68-2.41c-2.16-2.55-1.6-3.28-1.6-3.28L261,233.67a7,7,0,0,1-3.33,3.34c-2.16.78-1.77-2-1.77-2s-4.51-.59-4.51-2.36,2.94-7.65,3.34-8.43,3.72-1.18,3.72-1.18-4.71-1.76-5.69-1.57-5.49,5.69-6.67,6.08-2.15-1-1-3.13,5.5-8.44,6.67-8.44,10.79,2.16,10.79,2.16-4.12-3.34-6.47-5.3-5.49-5.49-5.49-6.67,1.76-1,3.72.4,7.46,5.29,10.79,7.25,5.1,5.3,6.87,7.65,10,13.15,10,13.15Z" style="fill:#fff;stroke:#263238;stroke-linecap:round;stroke-linejoin:round"/><line x1="258.45" y1="223.08" x2="263.75" y2="222.91" style="fill:none;stroke:#263238;stroke-linecap:round;stroke-linejoin:round"/><path d="M255.9,235.05s1.52-5.92,2.22-6.39,7.16.47,7.16.47" style="fill:none;stroke:#263238;stroke-linecap:round;stroke-linejoin:round"/><path d="M235.42,219.69a1,1,0,0,1-.28-2l23.41-8.79a1,1,0,0,1,.56,1.92l-23.41,8.79A1,1,0,0,1,235.42,219.69Z" style="fill:#86BC5C;stroke:#263238;stroke-linecap:round;stroke-linejoin:round"/><path d="M258.39,215.27a1,1,0,0,1-.5-1.87l4.09-2.33a1,1,0,0,1,1,1.74l-4.09,2.33A1,1,0,0,1,258.39,215.27Z" style="fill:#86BC5C;stroke:#263238;stroke-linecap:round;stroke-linejoin:round"/><ellipse cx="253.35" cy="290.09" rx="17.11" ry="16.93" style="fill:#86BC5C;stroke:#263238;stroke-linecap:round;stroke-linejoin:round"/><path d="M250.1,277.37s-5.61,4.21-8.77,14.21" style="fill:none;stroke:#263238;stroke-linecap:round;stroke-linejoin:round"/><path d="M244.66,278.6s-4.56,6.49-5.61,11.58" style="fill:none;stroke:#263238;stroke-linecap:round;stroke-linejoin:round"/><path d="M253.44,278.25s-6.49,7-7.9,13.16" style="fill:none;stroke:#263238;stroke-linecap:round;stroke-linejoin:round"/><path d="M236.24,290.09s10.18,7.63,30.18,5.53" style="fill:none;stroke:#263238;stroke-linecap:round;stroke-linejoin:round"/><path d="M242.73,297s12.29,4,21.94,2.11" style="fill:none;stroke:#263238;stroke-linecap:round;stroke-linejoin:round"/><path d="M243.44,300.18a32.15,32.15,0,0,0,16.84,1.93" style="fill:none;stroke:#263238;stroke-linecap:round;stroke-linejoin:round"/><path d="M249.23,286s6.84,3.33,9.47,9.65" style="fill:none;stroke:#263238;stroke-linecap:round;stroke-linejoin:round"/><path d="M253.09,282.11s7.54,6,8.94,12.28" style="fill:none;stroke:#263238;stroke-linecap:round;stroke-linejoin:round"/><path d="M257.47,279.3a22.58,22.58,0,0,1,9.65,13.33" style="fill:none;stroke:#263238;stroke-linecap:round;stroke-linejoin:round"/><path d="M211.87,395.61s-8.26,31.38-10.74,36.62-11.84,17.89-16.25,20.92-9.91,8.26-8.81,10.74,18.45,2.75,24,.27,12.94-11.56,16.52-14,4.95-7.16,4.4-11-1.37-12.39-1.37-12.39l11.56-27.53Z" style="fill:#fff;stroke:#263238;stroke-linecap:round;stroke-linejoin:round"/><path d="M221,439.11c-.17-1.24-.38-3-.57-4.72-4,5-21.43,21-25.58,21.24-3.91.24-7.17-3.41-7.85-4.24a15.85,15.85,0,0,1-2.07,1.76c-4.4,3-9.91,8.26-8.81,10.74s18.45,2.75,24,.27,12.94-11.56,16.52-14S221.5,443,221,439.11Z" style="fill:#263238;stroke:#263238;stroke-linecap:round;stroke-linejoin:round"/><path d="M281.75,294.72s-54.74,5.89-63,15.26-5.51,67.18-5.51,67.18-2.47,17.07-4.13,19.27.28,1.38,4.69,3,15.41,4.41,19.27,3.3,2.48-5.23,3-8.81,8-27,11.56-38.82,5-19.27,5-19.27,4.4-.83,20.92-1.1c9.09-.16,19.44,1.41,27.77-3.16,10.77-5.9,8.91-21.86,5-31.46-.86-2.12-1.84-5.3-4-6.48L273.7,296" style="fill:#263238;stroke:#263238;stroke-linecap:round;stroke-linejoin:round"/><path d="M236.33,302.3s-17.64,7.05-19.85,12.79-2.2,63.53-3.09,68.82-2.2,7.06-2.2,7.06" style="fill:none;stroke:#878787;stroke-linecap:round;stroke-linejoin:round"/><path d="M281.95,337.34h64.28a0,0,0,0,1,0,0v22.5a4.83,4.83,0,0,1-4.83,4.83H281.95a0,0,0,0,1,0,0V337.34A0,0,0,0,1,281.95,337.34Z" style="fill:#86BC5C;stroke:#263238;stroke-linecap:round;stroke-linejoin:round"/><path d="M290.6,280.69h6.54a0,0,0,0,1,0,0v67a4.71,4.71,0,0,1-4.71,4.71H290.6a0,0,0,0,1,0,0V280.69A0,0,0,0,1,290.6,280.69Z" style="fill:#c4c4c4;stroke:#263238;stroke-linecap:round;stroke-linejoin:round"/><path d="M292.17,280.69h6.54a0,0,0,0,1,0,0v67a4.64,4.64,0,0,1-4.64,4.64h-1.9a0,0,0,0,1,0,0V280.69A0,0,0,0,1,292.17,280.69Z" style="fill:#fff;stroke:#263238;stroke-linecap:round;stroke-linejoin:round"/><path d="M321.47,280.69H328a0,0,0,0,1,0,0v67a4.71,4.71,0,0,1-4.71,4.71h-1.83a0,0,0,0,1,0,0V280.69A0,0,0,0,1,321.47,280.69Z" style="fill:#c4c4c4;stroke:#263238;stroke-linecap:round;stroke-linejoin:round"/><path d="M323,280.69h6.54a0,0,0,0,1,0,0v67a4.64,4.64,0,0,1-4.64,4.64H323a0,0,0,0,1,0,0V280.69A0,0,0,0,1,323,280.69Z" style="fill:#fff;stroke:#263238;stroke-linecap:round;stroke-linejoin:round"/><rect x="278.57" y="276.76" width="59.65" height="5.76" style="fill:#c4c4c4;stroke:#263238;stroke-linecap:round;stroke-linejoin:round"/><rect x="286.68" y="276.76" width="51.54" height="5.76" style="fill:#fff;stroke:#263238;stroke-linecap:round;stroke-linejoin:round"/></g></svg>