<svg xmlns="http://www.w3.org/2000/svg" viewBox="5.43 22.01 480.99 451.47"><g id="freepik--background-simple--inject-3"><path d="M461.12,106.18q-2.37-4-5-7.9C433,63.94,393.06,40.44,353.82,29.82a231.78,231.78,0,0,0-52.71-7.69c-116.62-3.95-163.06,88-201.61,111.68S1.67,198,5.62,283s65.23,165,183.82,170,126.49-48.42,192.71-68.19c43.81-13.08,75-57.26,90.19-98.09C493.12,231.09,492.14,158.82,461.12,106.18Z" style="fill:#86BC5C"/><path d="M461.12,106.18q-2.37-4-5-7.9C433,63.94,393.06,40.44,353.82,29.82a231.78,231.78,0,0,0-52.71-7.69c-116.62-3.95-163.06,88-201.61,111.68S1.67,198,5.62,283s65.23,165,183.82,170,126.49-48.42,192.71-68.19c43.81-13.08,75-57.26,90.19-98.09C493.12,231.09,492.14,158.82,461.12,106.18Z" style="fill:#fff;opacity:0.7000000000000001"/></g><g id="freepik--Floor--inject-3"><line x1="440.97" y1="401.81" x2="453.56" y2="401.81" style="fill:#fff;stroke:#263238;stroke-linecap:round;stroke-linejoin:round"/><line x1="30.89" y1="401.81" x2="433.99" y2="401.81" style="fill:#fff;stroke:#263238;stroke-linecap:round;stroke-linejoin:round"/></g><g id="freepik--Mirror--inject-3"><rect x="83.09" y="49.57" width="115.07" height="203.43" style="fill:#86BC5C;stroke:#263238;stroke-linecap:round;stroke-linejoin:round"/><rect x="101.18" y="76.55" width="78.9" height="149.46" style="fill:#fff;stroke:#263238;stroke-linecap:round;stroke-linejoin:round"/><line x1="131.41" y1="133.15" x2="127.04" y2="137.52" style="fill:none;stroke:#263238;stroke-linecap:round;stroke-linejoin:round"/><line x1="172.56" y1="92" x2="134.75" y2="129.8" style="fill:none;stroke:#263238;stroke-linecap:round;stroke-linejoin:round"/><line x1="172.05" y1="102.8" x2="161.76" y2="113.09" style="fill:none;stroke:#263238;stroke-linecap:round;stroke-linejoin:round"/><line x1="114.46" y1="203.75" x2="131.18" y2="187.04" style="fill:none;stroke:#263238;stroke-linecap:round;stroke-linejoin:round"/><line x1="102.39" y1="68.79" x2="102.39" y2="72.46" style="fill:none;stroke:#263238;stroke-linecap:round;stroke-linejoin:round"/><line x1="102.39" y1="50.97" x2="102.39" y2="66.11" style="fill:none;stroke:#263238;stroke-linecap:round;stroke-linejoin:round"/><line x1="86.28" y1="77.09" x2="97.51" y2="77.09" style="fill:none;stroke:#263238;stroke-linecap:round;stroke-linejoin:round"/><line x1="84.57" y1="51.95" x2="99.95" y2="73.43" style="fill:none;stroke:#263238;stroke-linecap:round;stroke-linejoin:round"/><line x1="95.73" y1="58.07" x2="85.3" y2="72.46" style="fill:none;stroke:#263238;stroke-linecap:round;stroke-linejoin:round"/><line x1="99.46" y1="52.93" x2="97.28" y2="55.93" style="fill:none;stroke:#263238;stroke-linecap:round;stroke-linejoin:round"/><line x1="179.77" y1="68.79" x2="179.77" y2="72.46" style="fill:none;stroke:#263238;stroke-linecap:round;stroke-linejoin:round"/><line x1="179.77" y1="50.97" x2="179.77" y2="66.11" style="fill:none;stroke:#263238;stroke-linecap:round;stroke-linejoin:round"/><line x1="195.89" y1="77.09" x2="184.66" y2="77.09" style="fill:none;stroke:#263238;stroke-linecap:round;stroke-linejoin:round"/><line x1="197.6" y1="51.95" x2="182.22" y2="73.43" style="fill:none;stroke:#263238;stroke-linecap:round;stroke-linejoin:round"/><line x1="186.43" y1="58.07" x2="196.86" y2="72.46" style="fill:none;stroke:#263238;stroke-linecap:round;stroke-linejoin:round"/><line x1="182.7" y1="52.93" x2="184.89" y2="55.93" style="fill:none;stroke:#263238;stroke-linecap:round;stroke-linejoin:round"/><line x1="102.39" y1="235.08" x2="102.39" y2="231.5" style="fill:none;stroke:#263238;stroke-linecap:round;stroke-linejoin:round"/><line x1="102.39" y1="252.46" x2="102.39" y2="237.69" style="fill:none;stroke:#263238;stroke-linecap:round;stroke-linejoin:round"/><line x1="86.28" y1="226.98" x2="97.51" y2="226.98" style="fill:none;stroke:#263238;stroke-linecap:round;stroke-linejoin:round"/><line x1="84.57" y1="251.5" x2="99.95" y2="230.55" style="fill:none;stroke:#263238;stroke-linecap:round;stroke-linejoin:round"/><line x1="95.73" y1="245.53" x2="85.3" y2="231.5" style="fill:none;stroke:#263238;stroke-linecap:round;stroke-linejoin:round"/><line x1="99.46" y1="250.55" x2="97.28" y2="247.62" style="fill:none;stroke:#263238;stroke-linecap:round;stroke-linejoin:round"/><line x1="179.77" y1="235.08" x2="179.77" y2="231.5" style="fill:none;stroke:#263238;stroke-linecap:round;stroke-linejoin:round"/><line x1="179.77" y1="252.46" x2="179.77" y2="237.69" style="fill:none;stroke:#263238;stroke-linecap:round;stroke-linejoin:round"/><line x1="195.89" y1="226.98" x2="184.66" y2="226.98" style="fill:none;stroke:#263238;stroke-linecap:round;stroke-linejoin:round"/><line x1="197.6" y1="251.5" x2="182.22" y2="230.55" style="fill:none;stroke:#263238;stroke-linecap:round;stroke-linejoin:round"/><line x1="186.43" y1="245.53" x2="196.86" y2="231.5" style="fill:none;stroke:#263238;stroke-linecap:round;stroke-linejoin:round"/><line x1="182.7" y1="250.55" x2="184.89" y2="247.62" style="fill:none;stroke:#263238;stroke-linecap:round;stroke-linejoin:round"/></g><g id="freepik--Picture--inject-3"><polygon points="111.67 252.96 101.48 270.31 110.3 270.31 114.15 258.74 111.67 252.96" style="fill:#263238"/><polygon points="148.76 271.14 112.94 271.14 106.55 228.44 142.36 228.44 148.76 271.14" style="fill:#263238"/><polygon points="142.97 265.96 117.17 265.96 112.33 233.62 138.13 233.62 142.97 265.96" style="fill:#fff;stroke:#263238;stroke-linecap:round;stroke-linejoin:round"/></g><g id="freepik--Table--inject-3"><rect x="81.79" y="358.75" width="118.92" height="6.58" style="fill:#bdbdbd;stroke:#263238;stroke-linecap:round;stroke-linejoin:round"/><path d="M75,410.34c-.06-.7-1.51-17.22-.94-24.63s1.47-12.8,2.28-17.63c.57-3.41,1.11-6.64,1.49-10.22,1.33-12.69,0-17.64-1.51-23.37-.6-2.24-1.22-4.56-1.74-7.45-2-10.74-.58-27.6-.52-28.31l8,.66c0,.17-1.34,16.52.42,26.22.47,2.57,1,4.73,1.6,6.82,1.66,6.22,3.22,12.1,1.73,26.27-.4,3.82-1,7.16-1.55,10.7-.82,4.89-1.66,9.94-2.2,16.92-.52,6.76.92,23.15.94,23.31Z" style="fill:#bdbdbd;stroke:#263238;stroke-linecap:round;stroke-linejoin:round"/><path d="M207.48,410.34c.06-.7,1.52-17.22,1-24.63s-1.48-12.8-2.29-17.63c-.57-3.41-1.11-6.64-1.48-10.22-1.34-12.69,0-17.64,1.5-23.37.6-2.24,1.22-4.56,1.74-7.45,2-10.74.58-27.6.52-28.31l-8,.66c0,.17,1.34,16.52-.42,26.22-.47,2.57-1,4.73-1.6,6.82-1.66,6.22-3.22,12.1-1.73,26.27.4,3.82,1,7.16,1.55,10.7.82,4.89,1.66,9.94,2.2,16.92.52,6.76-.92,23.15-.94,23.31Z" style="fill:#bdbdbd;stroke:#263238;stroke-linecap:round;stroke-linejoin:round"/><path d="M209,276.11H73.85v27.54h7.52c4.85.39,30.5,3.85,39.11,5.66s15.57,1.38,20.11-2.59c4.48,4,11.29,4.42,19.83,2.59S194.18,304,199,303.65h10Z" style="fill:#bdbdbd;stroke:#263238;stroke-linecap:round;stroke-linejoin:round"/><path d="M145.45,291.85a4.89,4.89,0,1,0-4.88,4.89A4.88,4.88,0,0,0,145.45,291.85Z" style="fill:#fff;stroke:#263238;stroke-linecap:round;stroke-linejoin:round"/><rect x="73.85" y="276.11" width="135.11" height="6.41" style="fill:#263238;stroke:#263238;stroke-linecap:round;stroke-linejoin:round"/><rect x="67.68" y="270.98" width="145.89" height="7.71" style="fill:#bdbdbd;stroke:#263238;stroke-linecap:round;stroke-linejoin:round"/></g><g id="freepik--Plant--inject-3"><path d="M420.68,264.94h0a.12.12,0,0,0-.06-.15.11.11,0,0,0-.14.06,145.47,145.47,0,0,0-7.65,24,223.8,223.8,0,0,0-4.22,24.85L408,320c-.09,1.05-.21,2.1-.28,3.15l-.17,3.15c-.09,2.1-.22,4.2-.28,6.31l.06,6.31.07,3.15c0,1.05.12,2.1.19,3.15.16,2.1.29,4.2.48,6.29.4,4.19,1,8.35,1.68,12.5a.11.11,0,0,0,.11.09A.11.11,0,0,0,410,364h0c0-2.1-.1-4.19-.15-6.29s-.24-4.17-.21-6.27-.05-4.18-.07-6.26l-.06-3.13.06-3.13,0-6.26.17-6.25.07-3.13c0-1,.12-2.08.17-3.12l.39-6.25a220.78,220.78,0,0,1,3.54-24.79A144.22,144.22,0,0,1,420.68,264.94Z" style="fill:#263238"/><path d="M421.57,297.65a.1.1,0,0,0-.07-.13.12.12,0,0,0-.14.06,145.8,145.8,0,0,0-7.08,32.22c-.55,5.47-1.17,10.95-1.24,16.46a136,136,0,0,0,.58,16.51.11.11,0,0,0,.1.09.1.1,0,0,0,.12-.09c.64-5.48,1-10.95,1.41-16.42s.44-10.94.79-16.4a165.37,165.37,0,0,1,5.53-32.3Z" style="fill:#263238"/><path d="M439.71,309.16a.1.1,0,0,0-.15,0,55.28,55.28,0,0,0-12.13,10.57,48.28,48.28,0,0,0-4.74,6.59l-1,1.84L421,330a17,17,0,0,0-.66,1.94c-.2.65-.42,1.3-.59,1.95a77.25,77.25,0,0,0-2.51,16,92.25,92.25,0,0,0,.6,16.11.13.13,0,0,0,.1.1A.11.11,0,0,0,418,366l1.38-15.94a141.77,141.77,0,0,1,2-15.73c.15-.64.33-1.27.49-1.9a18.62,18.62,0,0,1,.56-1.88l.65-1.85.83-1.74a47.19,47.19,0,0,1,4.35-6.59,55.15,55.15,0,0,1,11.38-11.09h0A.11.11,0,0,0,439.71,309.16Z" style="fill:#263238"/><path d="M430.93,329.65a17.73,17.73,0,0,0-5.51,6.63,38.93,38.93,0,0,0-3.09,8.12c-.22.7-.39,1.4-.54,2.11l-.5,2.12a34.61,34.61,0,0,0-.54,4.3c0,1.45-.06,2.9,0,4.34a37.13,37.13,0,0,0,.57,4.31.1.1,0,0,0,.09.08.1.1,0,0,0,.13-.08,38.2,38.2,0,0,0,.76-4.24c.23-1.41.45-2.8.61-4.2s.39-2.78.5-4.18.3-2.79.6-4.16a38.06,38.06,0,0,1,2.36-8,17.93,17.93,0,0,1,4.63-6.92h0a.12.12,0,0,0,0-.15A.11.11,0,0,0,430.93,329.65Z" style="fill:#263238"/><path d="M405.5,345.63c-.6-7.08-1.77-14.09-2.87-21.1s-2.33-14-3.61-21-2.71-13.92-4.22-20.85a.1.1,0,0,0-.12-.08.11.11,0,0,0-.09.13q1.82,10.47,3.34,21c1.06,7,2.06,14,2.95,21s1.54,14.07,2.42,21.08l2.59,21.07a.11.11,0,0,0,.11.1.1.1,0,0,0,.11-.1c.08-1.78.08-3.56.13-5.34s-.07-3.55-.11-5.33C406.07,352.71,405.76,349.17,405.5,345.63Z" style="fill:#263238"/><path d="M401.25,345.52c-.38-2.8-.89-5.59-1.43-8.37l-1-4.13c-.33-1.38-.63-2.76-1-4.12a117.11,117.11,0,0,0-5.41-16.1l-.85-1.95-.94-1.9c-.6-1.29-1.33-2.51-2-3.75a31.21,31.21,0,0,0-5.11-6.77.11.11,0,0,0-.15.15v0a31.08,31.08,0,0,1,4.68,6.92c.61,1.26,1.26,2.5,1.79,3.8l.83,1.93.74,2a115.1,115.1,0,0,1,4.71,16.1c.65,2.72,1.08,5.5,1.6,8.25l.67,4.15c.24,1.38.53,2.75.73,4.13.44,2.77.95,5.53,1.43,8.3s.94,5.55,1.52,8.33a.12.12,0,0,0,.11.09.11.11,0,0,0,.11-.11c0-2.83-.05-5.66-.19-8.49S401.55,348.34,401.25,345.52Z" style="fill:#263238"/><path d="M395.39,345.89c-1.31-3.72-2.83-7.36-4.48-10.92a97.47,97.47,0,0,0-5.64-10.34.11.11,0,0,0-.19.12,97.14,97.14,0,0,1,4.82,10.66c1.43,3.62,2.73,7.29,3.81,11s1.9,7.53,2.9,11.27,1.88,7.53,3,11.32a.13.13,0,0,0,.11.08.11.11,0,0,0,.11-.11,56.05,56.05,0,0,0-1.1-11.78A72.27,72.27,0,0,0,395.39,345.89Z" style="fill:#263238"/><path d="M395.15,358.26a25.52,25.52,0,0,0-3.12-6.54,27,27,0,0,0-4.53-5.63,20.27,20.27,0,0,0-2.89-2.18,11.91,11.91,0,0,0-3.27-1.48.11.11,0,0,0-.13.06.12.12,0,0,0,.06.15h0a16.46,16.46,0,0,1,5.43,4.22,25.62,25.62,0,0,1,3.78,5.73c1.08,2,1.63,4.28,2.57,6.38.41,1.07.82,2.15,1.29,3.22a27.49,27.49,0,0,0,1.43,3.27h0a.12.12,0,0,0,.1.06.11.11,0,0,0,.11-.11,25.78,25.78,0,0,0-.13-3.62C395.69,360.61,395.43,359.43,395.15,358.26Z" style="fill:#263238"/><path d="M395.59,292.86a20.16,20.16,0,0,1-14.28-15.17c-2.68-12.5,5.95-7.14-1.78-26.77s-5.95-24.1-3.28-29.75,4.17-3.87,6.55,3.57,11,19,14.28,40.75S395.59,292.86,395.59,292.86Z" style="fill:#86BC5C"/><path d="M418.49,271.74s-7.73-2.68-8-17.25,5.65-11.61,6.55-29.75,2.08-30.94,5.35-31.24,11.9,8.93,14.88,29.16-3.87,33.61-9.82,39.56S418.49,271.74,418.49,271.74Z" style="fill:#86BC5C"/><path d="M391.42,310.41s-1.78-10.71-5.35-15.77-11.3-9.51-16.36-19.33-10.71-14.58-10.41-.6,6.54,21.12,14.28,25.88S391.42,310.41,391.42,310.41Z" style="fill:#86BC5C"/><path d="M388.15,328.85S381,315.17,370.6,305.06s-18.74-15.18-15.77-10.12,6.55,4.76,11.61,13.69,3.57,15.46,10.71,20.52S388.15,328.85,388.15,328.85Z" style="fill:#86BC5C"/><path d="M387.26,346.4c-.3-.89-.6-7.43-10.71-12.79s-19.63-3.27-18.44-.59,7.43,7.14,13.68,9.82S387.26,346.4,387.26,346.4Z" style="fill:#86BC5C"/><path d="M417.9,311s-4.46-5.66-2.08-17.56,7.73-8.92,13.68-15.17,4.76-7.14,10.71-13.68,11.3-10.11,13.68-7.44-1.19,11-4.76,15.77-9.22,7.14-11.89,13.09-1.49,15.47-8.33,19.93S417.9,311,417.9,311Z" style="fill:#86BC5C"/><path d="M432.77,314.28s10.71-12.2,18.45-21.12,10.71-15.77,11-9.82,2.68,10.71-3.57,18.44S432.77,314.28,432.77,314.28Z" style="fill:#86BC5C"/><path d="M427.12,333.91s-.3-4.76,16.66-15.77,24.09-13.08,22.31-8.62-9.22,8.92-17.25,17S427.12,333.91,427.12,333.91Z" style="fill:#86BC5C"/><path d="M396.3,291.59s-4-21.34-8.15-36.51-6.84-24.39-6.84-24.39" style="fill:none;stroke:#263238;stroke-linecap:round;stroke-linejoin:round"/><path d="M417.81,272s7.23-23.13,9.61-37.11-.3-24.39-1.49-30.64" style="fill:none;stroke:#263238;stroke-linecap:round;stroke-linejoin:round"/><path d="M390.49,310a112.46,112.46,0,0,0-11-15.61C373,286.61,367.92,282.45,365,275" style="fill:none;stroke:#263238;stroke-linecap:round;stroke-linejoin:round"/><path d="M417.9,311s2.38-14.28,8-21.72,17-19,21.42-26.48" style="fill:none;stroke:#263238;stroke-linecap:round;stroke-linejoin:round"/><path d="M386.56,346.08s-10-6.52-17.15-10.09" style="fill:none;stroke:#263238;stroke-linecap:round;stroke-linejoin:round"/><path d="M415.67,409.17H402.58a5.75,5.75,0,0,1-5.31-3.53c-4.28-10.25-15.7-39.84-8.82-48.23,6.55-8,34.79-8,41.35,0,6.88,8.39-4.55,38-8.82,48.23A5.76,5.76,0,0,1,415.67,409.17Z" style="fill:#263238;stroke:#263238;stroke-linecap:round;stroke-linejoin:round"/></g><g id="freepik--Vase--inject-3"><path d="M127.53,426a21,21,0,0,1-11.37-8.76c-4.28-6.89-5.21-10.43-5.21-10.43s-12.68-.19-17.52,5.59-5,14.91-4.66,16.21,5.59.56,11.37,4.85,9.13,11.92,9.5,12.67.56,1.67,3.36.74,5-4.28,6.52-5,7.27,1.68,8.94.37a7.23,7.23,0,0,0,2.24-7.64C129.77,431.06,127,424.91,127.53,426Z" style="fill:#86BC5C;stroke:#263238;stroke-linecap:round;stroke-linejoin:round"/><path d="M113,446.9c2.79-.93,5-4.28,6.52-5s7.27,1.68,8.94.37a7.23,7.23,0,0,0,2.24-7.64,85.27,85.27,0,0,0-3.19-8.57c-.26,0-4.17-.53-6.69.37s-4.47,1.49-4.47,1.49l3.35,3a25.45,25.45,0,0,0-4.65,4.47c-2,2.61-2.61,3.54-2,5s-1.5,2.8-2.43,4.29l-.93,1.49,2.25,1A7.88,7.88,0,0,0,113,446.9Z" style="fill:#fff;stroke:#263238;stroke-linecap:round;stroke-linejoin:round"/><path d="M117.84,429s5.4-1.3,7.08-1.12,3.54,1.87,3.92,5.41.18,5-.38,6.34,0,1.11-2.05,1.11a15.85,15.85,0,0,1-3.91-.56,5.15,5.15,0,0,0-2.42.38s-4.29,4.1-6,4.66-2.79.93-2-.56a10.47,10.47,0,0,1,1.68-2.43l-.74-1.86s6.33-6.15,6.52-7.83l.18-1.67Z" style="fill:#fff;stroke:#263238;stroke-linecap:round;stroke-linejoin:round"/><path d="M102,439.82s-1.68-3-3.73-3.54c-3.9-1.06-8.18,9.72-8.84,12.4s1.69,8.72,5.3,6.42c2-1.3,3.17-1.67,2.8-3.91s-1.31-.75-.56-3.73S102,439.82,102,439.82Z" style="fill:#86BC5C;stroke:#263238;stroke-linecap:round;stroke-linejoin:round"/><path d="M97.53,451.19s-1.87-1.31-2.8-.93-1.67.93-1.67,1.67-.94.75-.94,1.68.56,1.12,1.12,1.49S97.16,455.1,97.53,451.19Z" style="fill:#fff;stroke:#263238;stroke-linecap:round;stroke-linejoin:round"/><path d="M141.13,422.3l.75,4.29s5.78,3.73,9.32,4.66,7.45-.19,9.87-1.31,8-3,8-3l-.56-2.61S146.73,429,141.13,422.3Z" style="fill:#fff;stroke:#263238;stroke-linecap:round;stroke-linejoin:round"/><path d="M142.07,413.36l-.94,8.94s7.27,8,15.29,7.09,12.11-5,12.11-5v-10.8S150.08,419,142.07,413.36Z" style="fill:#fff;stroke:#263238;stroke-linecap:round;stroke-linejoin:round"/><path d="M143.74,434.79s-6.33,6.52-8,8a12.86,12.86,0,0,1-4.29,2.24s6.34,6.15,9.51,7.83,4.28.37,10.81-4.1,6.33-6.15,6-7.46S149.89,434.79,143.74,434.79Z" style="fill:#fff;stroke:#263238;stroke-linecap:round;stroke-linejoin:round"/><path d="M141.13,459s-4.65-3.92-9.69-3.36-9.13,5.59-9.13,5.59l7.46,3.54a27.94,27.94,0,0,0,2.23,2c.56.38,5.41-1.86,5.41-1.86l5.77-.75A33.3,33.3,0,0,0,141.13,459Z" style="fill:#86BC5C;stroke:#263238;stroke-linecap:round;stroke-linejoin:round"/><path d="M122.31,461.25l.19,2.05,9.5,3.54s.93-.18-2.23-2A63,63,0,0,0,122.31,461.25Z" style="fill:#fff;stroke:#263238;stroke-linecap:round;stroke-linejoin:round"/><path d="M163.5,462.56s-3.17-3.54-4.85-4.29-5.22-.37-6.71,1.12l-1.49,1.49,5.41,3.91S162,462.74,163.5,462.56Z" style="fill:#86BC5C;stroke:#263238;stroke-linecap:round;stroke-linejoin:round"/><ellipse cx="232.73" cy="438.89" rx="7.55" ry="17.7" style="fill:#86BC5C;stroke:#263238;stroke-linecap:round;stroke-linejoin:round"/><path d="M191.64,422.3l-.94,6a47.91,47.91,0,0,1-7.26,4.28c-2.8,1.12-8.76,1.31-11,.75s-2.23,4.66-.93,8.76,2.61,9.32,9.88,13.6,18.82,6.34,29.44,5,20.5-5.4,21.43-15.28.56-20.5-8.2-25S199.46,417.83,191.64,422.3Z" style="fill:#86BC5C;stroke:#263238;stroke-linecap:round;stroke-linejoin:round"/><path d="M183.44,432.55c-2.8,1.12-8.76,1.31-11,.75s-2.23,4.66-.93,8.76,2.61,9.32,9.88,13.6a29.71,29.71,0,0,0,3.29,1.66c1.29-.29,2.44-.54,2.67-.54a15.87,15.87,0,0,0,2.42-.56l3.54-3.35s2.05-5.41,2.24-6.71-.19-8.76-.19-8.76l9.51,2.42h11.18l5.22-1.86-.56-3.92s-4.29-5-4.85-5.77a31.09,31.09,0,0,0-3.54-3.54c-.56-.38-7.83-2.05-7.83-2.05l-12.85-.38-.94,6A47.91,47.91,0,0,1,183.44,432.55Z" style="fill:#fff;stroke:#263238;stroke-linecap:round;stroke-linejoin:round"/><path d="M193.31,447.09a36,36,0,0,1-2.05,4.47,13.54,13.54,0,0,1-1.67,1.68,3.31,3.31,0,0,1-1.68,1.3,13.87,13.87,0,0,1-3,.19h-1.31a39.13,39.13,0,0,1-4.1-.37l0,.1c.57.41,1.17.81,1.84,1.2a29.71,29.71,0,0,0,3.29,1.66c1.29-.29,2.44-.54,2.67-.54a15.87,15.87,0,0,0,2.42-.56l3.54-3.35s2.05-5.41,2.24-6.71-.19-8.76-.19-8.76l-1.3,2.05S194.06,445.23,193.31,447.09Z" style="fill:#fff;stroke:#263238;stroke-linecap:round;stroke-linejoin:round"/><path d="M191.36,424.07l.28.1s6.15.18,8.57.18S210.46,426,210.46,426s6.71,5.78,7.27,7.08,1.49,3.92,1.49,3.92l-.16,1.72,2.21-.79-.56-3.92s-4.29-5-4.85-5.77a31.09,31.09,0,0,0-3.54-3.54c-.56-.38-7.83-2.05-7.83-2.05l-12.85-.38Z" style="fill:#fff;stroke:#263238;stroke-linecap:round;stroke-linejoin:round"/><path d="M202,457.32s-1.55,5.33-4.44,7.32-7.54,1.34-8.65.89a1.36,1.36,0,0,0-2,1.33v2.44s-.45.67.44,1.56,2.22,2,2.22,2,1.33.45,7.32-.44,9.09-5.33,10.65-8.21,2.66-4.44,1.55-6.43S205.52,455.55,202,457.32Z" style="fill:#86BC5C;stroke:#263238;stroke-linecap:round;stroke-linejoin:round"/></g><g id="freepik--speech-bubble--inject-3"><path d="M367.48,52.52a30.54,30.54,0,0,0-19.42,54.11l-9.26,14.89,16.53-10.44a30.54,30.54,0,1,0,12.15-58.56Z" style="fill:#fff;stroke:#263238;stroke-linecap:round;stroke-linejoin:round"/><path d="M361.79,105.8V97.28h8.63v8.52Zm2.8-11.54L362,60.52H371l-3.31,33.74Z"/></g><g id="freepik--Character--inject-3"><path d="M274.61,86.82s-12.84,5.05-15.45,12.61-.65,10.51-1.31,16-8.7,8.62-7.83,14.71,8.92,5,4.57,10.72-10.23,4.42-6.1,13.67,15.68,21,37.87,18.92S321,164.81,324,159.76s6.74-10.51,3.7-12.82-7.62-1.68-5.45-6.1,5.23-5.46,3.05-11.56-15.45-4.83-12.4-13,3-12.4-3.7-20S287.67,81.15,274.61,86.82Z" style="fill:#263238;stroke:#263238;stroke-linecap:round;stroke-linejoin:round"/><path d="M241.22,289.26c.22-.67-.67,24.76-.23,33.46s.67,19.85,1.12,31.23.67,33.91.89,36.58-1.12,12.27-1.12,12.27,1.34,2.23,5.58,1.56,4.46.9,5.58-2.23,3.34-11.82,6.24-26.76,4.69-22.53,3.8-28.78-2-12.27-2-13.16,7.58-38.81,7.58-38.81Z" style="fill:#fff;stroke:#263238;stroke-linecap:round;stroke-linejoin:round"/><path d="M239.21,399.23s-2.68,4.91-3.57,6-7.14,4.46-9.59,6.24-4.46,2.9-2.23,5.36,12.93,2,16.06.89,6.91-4.24,9.14-4.24,6.47,0,6.47-4.46a48.72,48.72,0,0,0-.44-7.14s1.56-2.23-1.34-1.78a23.56,23.56,0,0,0-6.47,2.45S242.78,394.55,239.21,399.23Z" style="fill:#86BC5C;stroke:#263238;stroke-linecap:round;stroke-linejoin:round"/><path d="M255.45,409.77a37.92,37.92,0,0,0-4.64.39c-6.25.9-8,4.69-16.73,6.47-5.66,1.16-9.23-.88-11-2.45-.37.74-.23,1.57.78,2.68,2.23,2.45,12.93,2,16.06.89s6.91-4.24,9.14-4.24S255,413.51,255.45,409.77Z" style="fill:#fff;stroke:#263238;stroke-linecap:round;stroke-linejoin:round"/><path d="M288.51,295.06s9.14,32.57,11.37,38.15a68.67,68.67,0,0,0,6.92,12s10.7,29,14.05,36.14,6.47,19.18,7.14,21.19a50.32,50.32,0,0,1,1.78,6.47c0,.67,1.79,4,4.91,2.45s3.57-6.24,3.57-6.24-.45-12.5-3.12-32.79-6.7-28.33-8.7-31.9-2.9-3.57-3.13-6.25S318,292.38,318,291.49,295.2,296.85,288.51,295.06Z" style="fill:#fff;stroke:#263238;stroke-linecap:round;stroke-linejoin:round"/><path d="M335.57,408.16a6.08,6.08,0,0,0-3.57-3.57c-2.67-.9-4.46,0-5.13,2.45s-1.78,5.58-1.78,5.58-4.24,7.14-5.8,9.37.69,7.21,6.54,7.1c7-.15,9.3-1.53,11.3-6a100.57,100.57,0,0,0,4-11.37c1.34-4-1.34-8.93-1.34-8.93L338.25,401S336.69,406.59,335.57,408.16Z" style="fill:#86BC5C;stroke:#263238;stroke-linecap:round;stroke-linejoin:round"/><path d="M341.34,407.33c-.59,1.64-1.44,4-2.49,7.18-2.15,6.45-1.79,10.87-10.51,11.59-6.35.52-8.7-1.17-9.51-2.13.2,2.35,2.56,5.21,7,5.12,7-.15,9.3-1.53,11.3-6a100.57,100.57,0,0,0,4-11.37A9,9,0,0,0,341.34,407.33Z" style="fill:#fff;stroke:#263238;stroke-linecap:round;stroke-linejoin:round"/><path d="M256.16,233.05a57.58,57.58,0,0,0-13.38,21.86c-4.24,13.16-6.92,34.8-6.92,34.8s6.69,3.57,24.32,6.69,20.07,1.78,20.07,1.78,9.37,2,24.32-.66,24.09-7.14,24.09-7.14-4.69-32.57-8.93-41.27a75.36,75.36,0,0,0-8.25-13.61Z" style="fill:#86BC5C;stroke:#263238;stroke-linecap:round;stroke-linejoin:round"/><polyline points="271.11 271.19 277.8 281.45 280.25 298.18" style="fill:none;stroke:#263238;stroke-linecap:round;stroke-linejoin:round"/><path d="M303.23,238s3.34,4.68,4,14" style="fill:none;stroke:#263238;stroke-linecap:round;stroke-linejoin:round"/><line x1="295.87" y1="239.07" x2="297.43" y2="247.33" style="fill:none;stroke:#263238;stroke-linecap:round;stroke-linejoin:round"/><path d="M264.64,235.73s-3.13,8.7-3.35,10.93" style="fill:none;stroke:#263238;stroke-linecap:round;stroke-linejoin:round"/><line x1="259.28" y1="234.61" x2="256.83" y2="239.07" style="fill:none;stroke:#263238;stroke-linecap:round;stroke-linejoin:round"/><path d="M256.19,227.25l0,5.8s6.92,3.79,26.77,5.35c19.57,1.54,28.55-2.9,28.55-2.9v-5.13Z" style="fill:#263238;stroke:#263238;stroke-linecap:round;stroke-linejoin:round"/><path d="M293.24,141.94s-.21,10.8.42,13.13.85,3.81,5.5,3,6.35-3.39,11.86-2.12,7.83,8.89,7.62,21.59-5.08,24.35-5.5,30.27.21,18.42-.85,20.33-2.54,5.29-22.23,3.38-31.12-2.75-33.87-4.23-.42-5.93.21-7.41,2.33-9.1.64-14A27.45,27.45,0,0,1,256,190a130.85,130.85,0,0,0,1.91-14.6s-21.59,16.08-26.46,16.51-4.87-2.75-3.18-5.72,10.16-8.89,15.24-18,9.32-11.64,15-12.7,15.88,1.06,15.88,1.06,3-10.8,1.9-16.3Z" style="fill:#fff;stroke:#263238;stroke-linecap:round;stroke-linejoin:round"/><path d="M312.29,228.1c1.06-1.91.42-14.4.85-20.33.25-3.54,2.08-9.12,3.57-15.75a23,23,0,0,1-8.87-16.42,65.74,65.74,0,0,1,.67-20c-3.65-.1-5.48,1.76-9.35,2.46a7.34,7.34,0,0,1-3.62,0,15.81,15.81,0,0,1-11.62,3.77c-6.85-.65-10.05-4.07-11.16-5.6-1.65-.29-4.36-.71-7.18-.92-1.09,6.66-7.69,20.07-7.69,20.07A130.85,130.85,0,0,1,256,190,27.45,27.45,0,0,0,257,205.87c1.69,4.87,0,12.49-.64,14s-3,5.93-.21,7.41,14.19,2.33,33.87,4.23S311.23,230,312.29,228.1Z" style="fill:#fff;stroke:#263238;stroke-linecap:round;stroke-linejoin:round"/><circle cx="274.2" cy="157.36" r="1.03" style="fill:#263238;stroke:#263238;stroke-linecap:round;stroke-linejoin:round"/><path d="M275.24,160.08a1,1,0,1,0-2.07,0,1,1,0,0,0,2.07,0Z" style="fill:#263238;stroke:#263238;stroke-linecap:round;stroke-linejoin:round"/><path d="M275.52,162.7a1,1,0,0,0-2.07,0,1,1,0,1,0,2.07,0Z" style="fill:#263238;stroke:#263238;stroke-linecap:round;stroke-linejoin:round"/><path d="M276,165.77a1,1,0,1,0-1,1A1,1,0,0,0,276,165.77Z" style="fill:#263238;stroke:#263238;stroke-linecap:round;stroke-linejoin:round"/><circle cx="275.24" cy="168.74" r="1.03" style="fill:#263238;stroke:#263238;stroke-linecap:round;stroke-linejoin:round"/><path d="M276.79,171.46a1,1,0,1,0-2.07,0,1,1,0,0,0,2.07,0Z" style="fill:#263238;stroke:#263238;stroke-linecap:round;stroke-linejoin:round"/><path d="M277.18,174.3a1,1,0,1,0-1,1A1,1,0,0,0,277.18,174.3Z" style="fill:#263238;stroke:#263238;stroke-linecap:round;stroke-linejoin:round"/><path d="M277.69,176.5a1,1,0,1,0-1,1A1,1,0,0,0,277.69,176.5Z" style="fill:#263238;stroke:#263238;stroke-linecap:round;stroke-linejoin:round"/><path d="M278.21,179a1,1,0,1,0-1,1A1,1,0,0,0,278.21,179Z" style="fill:#263238;stroke:#263238;stroke-linecap:round;stroke-linejoin:round"/><path d="M279.38,181.54a1,1,0,1,0-1,1A1,1,0,0,0,279.38,181.54Z" style="fill:#263238;stroke:#263238;stroke-linecap:round;stroke-linejoin:round"/><circle cx="280.02" cy="183.36" r="1.03" style="fill:#263238;stroke:#263238;stroke-linecap:round;stroke-linejoin:round"/><circle cx="282.35" cy="183.61" r="1.03" style="fill:#263238;stroke:#263238;stroke-linecap:round;stroke-linejoin:round"/><circle cx="285.32" cy="183.48" r="1.03" style="fill:#263238;stroke:#263238;stroke-linecap:round;stroke-linejoin:round"/><circle cx="287.78" cy="182.19" r="1.03" style="fill:#263238;stroke:#263238;stroke-linecap:round;stroke-linejoin:round"/><path d="M290.76,180a1,1,0,1,0-1,1A1,1,0,0,0,290.76,180Z" style="fill:#263238;stroke:#263238;stroke-linecap:round;stroke-linejoin:round"/><circle cx="291.4" cy="177.41" r="1.03" style="fill:#263238;stroke:#263238;stroke-linecap:round;stroke-linejoin:round"/><path d="M293.34,175a1,1,0,1,0-1,1A1,1,0,0,0,293.34,175Z" style="fill:#263238;stroke:#263238;stroke-linecap:round;stroke-linejoin:round"/><path d="M294.64,172.49a1,1,0,1,0-1,1A1,1,0,0,0,294.64,172.49Z" style="fill:#263238;stroke:#263238;stroke-linecap:round;stroke-linejoin:round"/><circle cx="294.25" cy="169.91" r="1.03" style="fill:#263238;stroke:#263238;stroke-linecap:round;stroke-linejoin:round"/><path d="M296.7,167.45a1,1,0,1,0-1,1A1,1,0,0,0,296.7,167.45Z" style="fill:#263238;stroke:#263238;stroke-linecap:round;stroke-linejoin:round"/><path d="M297.35,165.12a1,1,0,0,0-2.07,0,1,1,0,1,0,2.07,0Z" style="fill:#263238;stroke:#263238;stroke-linecap:round;stroke-linejoin:round"/><path d="M298,162.53a1,1,0,1,0-1,1A1,1,0,0,0,298,162.53Z" style="fill:#263238;stroke:#263238;stroke-linecap:round;stroke-linejoin:round"/><path d="M298.64,160.34a1,1,0,1,0-1,1A1,1,0,0,0,298.64,160.34Z" style="fill:#263238;stroke:#263238;stroke-linecap:round;stroke-linejoin:round"/><circle cx="298.13" cy="158.03" r="1.03" style="fill:#263238;stroke:#263238;stroke-linecap:round;stroke-linejoin:round"/><path d="M289.07,99s-2,4.92-3.2,6.4-5.16,3.2-8.85,2.95-6.16-1.47-9.6,1.72-2,9.11-2,10.09,2.71,16.24,3.69,19.2S280,148.74,282.92,149s10.09-3.93,12.8-6.64,3.2-11.07,3.93-13.29,1.24-10.82,1.24-10.82a6.47,6.47,0,0,0-3-6.65C294,108.87,288.09,103.71,289.07,99Z" style="fill:#fff;stroke:#263238;stroke-linecap:round;stroke-linejoin:round"/><path d="M279.86,127.24s1.69,1.69,3.26,1.56a5.45,5.45,0,0,0,3.52-2.08" style="fill:none;stroke:#263238;stroke-linecap:round;stroke-linejoin:round"/><path d="M270.22,115.12s.78-3.64,5.6-2.86" style="fill:none;stroke:#263238;stroke-linecap:round;stroke-linejoin:round"/><path d="M288.46,111.87s5.6-1.18,7,2.47" style="fill:none;stroke:#263238;stroke-linecap:round;stroke-linejoin:round"/><ellipse cx="275.89" cy="120.66" rx="1.37" ry="2.67" transform="translate(-9.9 25.81) rotate(-5.26)" style="fill:#263238"/><path d="M291.84,120.81c-.17,1.47-.91,2.59-1.66,2.51s-1.22-1.35-1.06-2.81.91-2.59,1.66-2.5S292,119.35,291.84,120.81Z" style="fill:#263238"/><path d="M265.79,122.55s-2.61-5.6-4.17-.91.78,7.16,2.22,8.34a42,42,0,0,0,3.77,2.6Z" style="fill:#fff;stroke:#263238;stroke-linecap:round;stroke-linejoin:round"/><path d="M300.84,122s2.6-4,3.65-.39-.13,5.86-1.57,7.43a36.42,36.42,0,0,1-4,3.51l1.31-5.21Z" style="fill:#fff;stroke:#263238;stroke-linecap:round;stroke-linejoin:round"/><path d="M265.53,159.94s1.69-10.29,2.21-12.76,1.83-5,2.87-9.25,1.82-4.43,2.74-3.52.78,3.12.52,4.17-.65,2.73-.65,2.73,3.12-4.56,4.3-6.51,2.08-3,3-2.74a1.4,1.4,0,0,1,.91,1.83,31.76,31.76,0,0,0,2.22-3.26c.26-.52,1.17-.65,1.95.26a2.08,2.08,0,0,1,.39,2.21c-.13.66-1.43,4.56-1.43,4.56s1.83-1.69,2.61-1.43.78,1.7-.13,3.39-1.83,6-2.09,7-.59,2.33-.59,2.33a10.7,10.7,0,0,0,3.2-3.24c1.43-2.21,1.82-3.65,2.47-2.86s0,2.08-.78,3.77a15.44,15.44,0,0,1-4.95,7.17c-3.91,3.52-8,8-9.64,9.77s-11.6,13.16-17.33,19.94-15.63,16.67-18.24,19.41-5.86,6.12-12.12,2.22-4.17-13.29.13-17.59,27.23-15.9,31.27-19.42A47.35,47.35,0,0,0,265.53,159.94Z" style="fill:#fff;stroke:#263238;stroke-linecap:round;stroke-linejoin:round"/><line x1="281.42" y1="133.89" x2="275.95" y2="146" style="fill:none;stroke:#263238;stroke-linecap:round;stroke-linejoin:round"/><line x1="284.55" y1="137.66" x2="280.38" y2="148.09" style="fill:none;stroke:#263238;stroke-linecap:round;stroke-linejoin:round"/><line x1="284.35" y1="148.98" x2="283.25" y2="151.21" style="fill:none;stroke:#263238;stroke-linecap:round;stroke-linejoin:round"/><path d="M273.22,141.31s-2.83,2.48-3.47,4.4" style="fill:none;stroke:#263238;stroke-linecap:round;stroke-linejoin:round"/><path d="M314.76,176.92l16.76,17.53s-12.19,15.81-15.81,19.81a57.48,57.48,0,0,1-6.29,6.1s-5.52-1.15-7.24-2.67-3-4-5.9-5.91-10.67-2.66-10.1-.95,5.34,2.1,5.34,2.1l4.57,4.19,1,3a11.66,11.66,0,0,1-4.38-2.48c-1.71-1.72-6.67-3.05-6.29-.76s2.29,2.28,5,4.76,3,4.57,5.71,6.09a9.87,9.87,0,0,0,5.91,1,6.46,6.46,0,0,0,5.33,1.71c3.43-.38,4.76-1.33,6.29-3.43S337.81,211.4,341,207.21s10.29-11.43,10.67-13.71-4.19-7.81-8-12.39-7.9-9.61-17.14-20.76c-5.53-6.67-13.72-8.38-18.86-3.43" style="fill:#fff;stroke:#263238;stroke-linecap:round;stroke-linejoin:round"/><path d="M303.14,216.58s-5-5.16-6.41-5.91-3.13.49-5.21,2.26-1,2.39.3,2,4.15-1.76,4.15-1.76l4,5.28" style="fill:#fff;stroke:#263238;stroke-linecap:round;stroke-linejoin:round"/><path d="M306.79,218.09s-2.52-3.78-3.27-4.15-4.66,4.65-5.16,5.78-1.13,3.4.25,3,2.77-2.14,3.4-2.89a3.77,3.77,0,0,1,1.89-1l1,1.26" style="fill:#fff;stroke:#263238;stroke-linecap:round;stroke-linejoin:round"/><path d="M310.43,222.36a20,20,0,0,0-2.38-4.65c-1.14-1.26-3.4.25-4.15,1.13s-1.26,4.4-1.77,5.53.38,1.39,1.51.51a17.09,17.09,0,0,0,2.77-3.27" style="fill:#fff;stroke:#263238;stroke-linecap:round;stroke-linejoin:round"/></g></svg>