<svg xmlns="http://www.w3.org/2000/svg" viewBox="0.01 0 464.65 416.67"><g id="freepik--background-simple--inject-19"><path d="M464.86,277.39c-14.73,39.43-44.81,82.11-87.14,94.75-64,19.1-71.6,70.65-186.16,65.87A230.92,230.92,0,0,1,142,430.75,194.41,194.41,0,0,1,118.73,423C51.8,395.89,16.89,336.23,14,273.81c-3.82-82.11,53.46-121.24,90.69-144.15S186.79,18,299.44,21.77a224.06,224.06,0,0,1,50.92,7.44c37.91,10.26,76.44,32.95,98.84,66.12q2.52,3.75,4.82,7.64C484,153.82,484.93,223.63,464.86,277.39Z" transform="translate(-13.81 -21.65)" style="fill:#86BC5C"/><path d="M464.86,277.39c-14.73,39.43-44.81,82.11-87.14,94.75-64,19.1-71.6,70.65-186.16,65.87A230.92,230.92,0,0,1,142,430.75,194.41,194.41,0,0,1,118.73,423C51.8,395.89,16.89,336.23,14,273.81c-3.82-82.11,53.46-121.24,90.69-144.15S186.79,18,299.44,21.77a224.06,224.06,0,0,1,50.92,7.44c37.91,10.26,76.44,32.95,98.84,66.12q2.52,3.75,4.82,7.64C484,153.82,484.93,223.63,464.86,277.39Z" transform="translate(-13.81 -21.65)" style="fill:#fff;opacity:0.8"/></g><g id="freepik--plant-2--inject-19"><path d="M451.81,345.36c.06,0,1.14-4.53,1.17-4.83.41-3.42-.83-10.28-4.34-11.89a4.57,4.57,0,0,0-6.16,2.89c-.88,2.58.37,5.7,1.81,7.83C446,341.86,451.81,345.36,451.81,345.36Z" transform="translate(-13.81 -21.65)" style="fill:#263238"/><path d="M383.21,345.31c2.8,1.15,9.57.86,9.58.85s-1.55-4.4-1.69-4.67c-1.55-3.08-6.36-8.12-10.18-7.52a4.56,4.56,0,0,0-3.54,5.8C378.07,342.41,380.83,344.33,383.21,345.31Z" transform="translate(-13.81 -21.65)" style="fill:#263238"/><path d="M386,364.89c2.89.36,8.9-1.52,9.38-1.67a80,80,0,0,0,3.88,10.08c.87,1.91,1.81,3.8,2.78,5.69-.57-.8-1.09-1.5-1.17-1.6-2.31-2.56-8.28-6.15-11.81-4.56a4.57,4.57,0,0,0-1.88,6.53c1.36,2.37,4.53,3.48,7.08,3.8s7.76-1.18,9.12-1.6c.37.73.74,1.45,1.12,2.17,1.83,3.45,3.67,6.89,5.36,10.31.6,1.21,1.15,2.42,1.7,3.63-.51-.71-.94-1.3-1-1.38-2.32-2.56-8.29-6.15-11.81-4.57a4.58,4.58,0,0,0-1.89,6.54c1.36,2.36,4.53,3.47,7.09,3.79s7.25-1,8.87-1.52c.52,1.26,1.05,2.51,1.51,3.75.29.86.63,1.66.87,2.53s.52,1.71.77,2.56c.43,1.64.88,3.33,1.26,4.94.28,1.12.52,2.19.76,3.27-.58-1.2-1.77-3.55-1.89-3.73-1.9-2.88-7.26-7.33-11-6.3a4.57,4.57,0,0,0-2.86,6.17c1,2.54,4,4.13,6.43,4.83,2.73.77,8.72-.11,9.47-.23.4,1.79.77,3.53,1.09,5.18.9,4.54,1.54,8.5,2,11.62h2.58c-.54-3.2-1.29-7.33-2.34-12.09-.4-1.82-.86-3.75-1.35-5.73a50.34,50.34,0,0,0,5.23-2.59c2,2.1,7.14,4.5,7.8,4.8-.65,1.71-1.3,3.37-1.94,4.92-1.74,4.24-3.37,7.85-4.7,10.69h2.78c1.19-2.72,2.58-6,4-9.84.68-1.74,1.36-3.6,2-5.53.73.14,6.7,1.22,9.46.54,2.5-.62,5.51-2.11,6.58-4.61a4.57,4.57,0,0,0-2.65-6.27c-3.69-1.15-9.19,3.13-11.18,5.94-.12.17-1.19,2.12-1.84,3.35.27-.78.55-1.54.82-2.36.55-1.6,1.05-3.22,1.6-5,.24-.85.47-1.7.71-2.57s.42-1.79.63-2.69c.46-2.1.81-4.25,1.13-6.43,1.4.48,6.42,2.11,9,1.88s5.77-1.25,7.21-3.57a4.57,4.57,0,0,0-1.68-6.59c-3.47-1.7-9.55,1.69-11.94,4.18-.15.15-1.67,2.13-2.48,3.23.18-1.31.36-2.62.5-3.95.39-3.83.67-7.73,1-11.62.09-1.19.19-2.38.29-3.57.5.18,6.42,2.25,9.31,2,2.57-.23,5.77-1.24,7.21-3.56a4.56,4.56,0,0,0-1.67-6.59c-3.47-1.7-9.56,1.69-11.95,4.17-.18.19-2.36,3-2.88,3.79.22-2.62.46-5.22.81-7.78a80.65,80.65,0,0,1,2-10.24c.23.08,6.41,2.26,9.36,2,2.57-.23,5.77-1.24,7.21-3.56a4.56,4.56,0,0,0-1.67-6.59c-3.47-1.7-9.56,1.69-11.95,4.17-.16.17-1.82,2.33-2.59,3.38l-.19-.09a57.76,57.76,0,0,1,3.84-9.77c.85-1.74,1.75-3.36,2.66-4.9,1.11.52,6.2,2.86,8.89,2.91s5.87-.6,7.55-2.75a4.57,4.57,0,0,0-.94-6.74c-3.26-2.06-9.68.64-12.33,2.85-.14.12-1.48,1.5-2.43,2.52.42-.7.85-1.42,1.26-2.07,1.57-2.47,3.15-4.63,4.57-6.54.82-1.07,1.58-2,2.3-2.92,1.35,0,6.81-.33,9.18-1.5s4.93-3.25,5.44-5.93a4.57,4.57,0,0,0-3.94-5.54c-3.85-.34-8.3,5-9.64,8.2-.11.28-1.43,4.78-1.36,4.78h.08c-.7.84-1.46,1.75-2.26,2.76-1.46,1.88-3.1,4-4.72,6.45a82,82,0,0,0-4.87,8.13,60.18,60.18,0,0,0-4.1,9.78l0,.12c0-1.13-.12-4.3-.16-4.54-.51-3.41-3.51-9.7-7.32-10.32a4.56,4.56,0,0,0-5.18,4.41c-.17,2.72,1.86,5.4,3.81,7.08,2.21,1.88,8.27,3.63,8.75,3.77a80.18,80.18,0,0,0-2.32,10.55c-.33,2.07-.59,4.17-.83,6.28,0-1-.07-1.86-.09-2-.52-3.41-3.52-9.7-7.33-10.32a4.56,4.56,0,0,0-5.18,4.41c-.17,2.72,1.86,5.4,3.82,7.08s7.12,3.29,8.48,3.69c-.08.81-.17,1.62-.25,2.43-.39,3.89-.75,7.77-1.22,11.56-.17,1.34-.38,2.65-.59,4,0-.87-.07-1.6-.08-1.71-.52-3.41-3.52-9.7-7.33-10.32a4.56,4.56,0,0,0-5.18,4.41c-.17,2.72,1.86,5.4,3.82,7.07s6.61,3.14,8.23,3.63c-.25,1.33-.5,2.67-.81,4-.23.87-.39,1.73-.67,2.59s-.51,1.71-.76,2.56c-.55,1.6-1.1,3.26-1.68,4.82-.39,1.08-.78,2.11-1.17,3.14.18-1.33.48-3.94.48-4.16a17.72,17.72,0,0,0-2.56-8.58,5.66,5.66,0,0,0-.08-1,4.57,4.57,0,0,0-5.67-3.76c-3.72,1.07-5.95,7.67-6.05,11.12,0,.2.17,2.42.31,3.81-.21-.8-.4-1.59-.62-2.42-.42-1.64-.9-3.27-1.4-5-.27-.84-.55-1.68-.83-2.54s-.63-1.72-1-2.59c-.78-2-1.67-4-2.61-6,1.44-.38,6.52-1.79,8.54-3.41s4.13-4.22,4.05-6.94a4.57,4.57,0,0,0-5-4.58c-3.84.5-7,6.68-7.67,10.08,0,.21-.21,2.69-.28,4.06-.57-1.19-1.14-2.38-1.76-3.57-1.79-3.42-3.71-6.82-5.6-10.23-.59-1-1.15-2.09-1.72-3.13.51-.13,6.59-1.68,8.85-3.49,2-1.61,4.13-4.22,4-6.95a4.57,4.57,0,0,0-5-4.57c-3.83.49-7,6.68-7.66,10.07,0,.26-.29,3.83-.31,4.75-1.26-2.31-2.49-4.61-3.61-6.94a80.54,80.54,0,0,1-4-9.65c.24-.06,6.6-1.65,8.91-3.5,2-1.61,4.13-4.22,4.05-6.95a4.57,4.57,0,0,0-5-4.58c-3.84.5-7,6.69-7.66,10.08-.05.22-.24,2.95-.3,4.25l-.22,0a59.89,59.89,0,0,1-2.18-10.27c-.25-1.91-.39-3.76-.48-5.55,1.21-.18,6.75-1,9-2.47s4.56-3.75,4.78-6.46a4.57,4.57,0,0,0-4.5-5.1c-3.86.07-7.72,5.87-8.72,9.17-.05.18-.4,2.07-.63,3.44,0-.81-.08-1.64-.09-2.42-.06-2.92.07-5.6.2-8,.09-1.35.19-2.57.3-3.7,1.11-.8,5.51-4,6.83-6.32s2.33-5.43,1.27-7.94a4.56,4.56,0,0,0-6.34-2.46c-3.4,1.85-4.15,8.77-3.51,12.16.05.3,1.44,4.78,1.5,4.74l.07,0c-.13,1.09-.26,2.27-.37,3.55-.18,2.37-.37,5.05-.38,8a80.65,80.65,0,0,0,.43,9.46,60.25,60.25,0,0,0,2,10.42l0,.12c-.62-.94-2.47-3.52-2.63-3.7-2.31-2.56-8.28-6.15-11.81-4.57a4.58,4.58,0,0,0-1.89,6.54C380.24,363.46,383.41,364.58,386,364.89Z" transform="translate(-13.81 -21.65)" style="fill:#263238"/><path d="M383.21,345.31c2.8,1.15,9.57.86,9.58.85s-1.55-4.4-1.69-4.67c-1.55-3.08-6.36-8.12-10.18-7.52a4.56,4.56,0,0,0-3.54,5.8C378.07,342.41,380.83,344.33,383.21,345.31Z" transform="translate(-13.81 -21.65)" style="fill:#263238;opacity:0.30000000000000004"/><path d="M451.81,345.36c.06,0,1.14-4.53,1.17-4.83.41-3.42-.83-10.28-4.34-11.89a4.57,4.57,0,0,0-6.16,2.89c-.88,2.58.37,5.7,1.81,7.83C446,341.86,451.81,345.36,451.81,345.36Z" transform="translate(-13.81 -21.65)" style="fill:#263238;opacity:0.30000000000000004"/><path d="M386,364.89c2.89.36,8.9-1.52,9.38-1.67a80,80,0,0,0,3.88,10.08c.87,1.91,1.81,3.8,2.78,5.69-.57-.8-1.09-1.5-1.17-1.6-2.31-2.56-8.28-6.15-11.81-4.56a4.57,4.57,0,0,0-1.88,6.53c1.36,2.37,4.53,3.48,7.08,3.8s7.76-1.18,9.12-1.6c.37.73.74,1.45,1.12,2.17,1.83,3.45,3.67,6.89,5.36,10.31.6,1.21,1.15,2.42,1.7,3.63-.51-.71-.94-1.3-1-1.38-2.32-2.56-8.29-6.15-11.81-4.57a4.58,4.58,0,0,0-1.89,6.54c1.36,2.36,4.53,3.47,7.09,3.79s7.25-1,8.87-1.52c.52,1.26,1.05,2.51,1.51,3.75.29.86.63,1.66.87,2.53s.52,1.71.77,2.56c.43,1.64.88,3.33,1.26,4.94.28,1.12.52,2.19.76,3.27-.58-1.2-1.77-3.55-1.89-3.73-1.9-2.88-7.26-7.33-11-6.3a4.57,4.57,0,0,0-2.86,6.17c1,2.54,4,4.13,6.43,4.83,2.73.77,8.72-.11,9.47-.23.4,1.79.77,3.53,1.09,5.18.9,4.54,1.54,8.5,2,11.62h2.58c-.54-3.2-1.29-7.33-2.34-12.09-.4-1.82-.86-3.75-1.35-5.73a50.34,50.34,0,0,0,5.23-2.59c2,2.1,7.14,4.5,7.8,4.8-.65,1.71-1.3,3.37-1.94,4.92-1.74,4.24-3.37,7.85-4.7,10.69h2.78c1.19-2.72,2.58-6,4-9.84.68-1.74,1.36-3.6,2-5.53.73.14,6.7,1.22,9.46.54,2.5-.62,5.51-2.11,6.58-4.61a4.57,4.57,0,0,0-2.65-6.27c-3.69-1.15-9.19,3.13-11.18,5.94-.12.17-1.19,2.12-1.84,3.35.27-.78.55-1.54.82-2.36.55-1.6,1.05-3.22,1.6-5,.24-.85.47-1.7.71-2.57s.42-1.79.63-2.69c.46-2.1.81-4.25,1.13-6.43,1.4.48,6.42,2.11,9,1.88s5.77-1.25,7.21-3.57a4.57,4.57,0,0,0-1.68-6.59c-3.47-1.7-9.55,1.69-11.94,4.18-.15.15-1.67,2.13-2.48,3.23.18-1.31.36-2.62.5-3.95.39-3.83.67-7.73,1-11.62.09-1.19.19-2.38.29-3.57.5.18,6.42,2.25,9.31,2,2.57-.23,5.77-1.24,7.21-3.56a4.56,4.56,0,0,0-1.67-6.59c-3.47-1.7-9.56,1.69-11.95,4.17-.18.19-2.36,3-2.88,3.79.22-2.62.46-5.22.81-7.78a80.65,80.65,0,0,1,2-10.24c.23.08,6.41,2.26,9.36,2,2.57-.23,5.77-1.24,7.21-3.56a4.56,4.56,0,0,0-1.67-6.59c-3.47-1.7-9.56,1.69-11.95,4.17-.16.17-1.82,2.33-2.59,3.38l-.19-.09a57.76,57.76,0,0,1,3.84-9.77c.85-1.74,1.75-3.36,2.66-4.9,1.11.52,6.2,2.86,8.89,2.91s5.87-.6,7.55-2.75a4.57,4.57,0,0,0-.94-6.74c-3.26-2.06-9.68.64-12.33,2.85-.14.12-1.48,1.5-2.43,2.52.42-.7.85-1.42,1.26-2.07,1.57-2.47,3.15-4.63,4.57-6.54.82-1.07,1.58-2,2.3-2.92,1.35,0,6.81-.33,9.18-1.5s4.93-3.25,5.44-5.93a4.57,4.57,0,0,0-3.94-5.54c-3.85-.34-8.3,5-9.64,8.2-.11.28-1.43,4.78-1.36,4.78h.08c-.7.84-1.46,1.75-2.26,2.76-1.46,1.88-3.1,4-4.72,6.45a82,82,0,0,0-4.87,8.13,60.18,60.18,0,0,0-4.1,9.78l0,.12c0-1.13-.12-4.3-.16-4.54-.51-3.41-3.51-9.7-7.32-10.32a4.56,4.56,0,0,0-5.18,4.41c-.17,2.72,1.86,5.4,3.81,7.08,2.21,1.88,8.27,3.63,8.75,3.77a80.18,80.18,0,0,0-2.32,10.55c-.33,2.07-.59,4.17-.83,6.28,0-1-.07-1.86-.09-2-.52-3.41-3.52-9.7-7.33-10.32a4.56,4.56,0,0,0-5.18,4.41c-.17,2.72,1.86,5.4,3.82,7.08s7.12,3.29,8.48,3.69c-.08.81-.17,1.62-.25,2.43-.39,3.89-.75,7.77-1.22,11.56-.17,1.34-.38,2.65-.59,4,0-.87-.07-1.6-.08-1.71-.52-3.41-3.52-9.7-7.33-10.32a4.56,4.56,0,0,0-5.18,4.41c-.17,2.72,1.86,5.4,3.82,7.07s6.61,3.14,8.23,3.63c-.25,1.33-.5,2.67-.81,4-.23.87-.39,1.73-.67,2.59s-.51,1.71-.76,2.56c-.55,1.6-1.1,3.26-1.68,4.82-.39,1.08-.78,2.11-1.17,3.14.18-1.33.48-3.94.48-4.16a17.72,17.72,0,0,0-2.56-8.58,5.66,5.66,0,0,0-.08-1,4.57,4.57,0,0,0-5.67-3.76c-3.72,1.07-5.95,7.67-6.05,11.12,0,.2.17,2.42.31,3.81-.21-.8-.4-1.59-.62-2.42-.42-1.64-.9-3.27-1.4-5-.27-.84-.55-1.68-.83-2.54s-.63-1.72-1-2.59c-.78-2-1.67-4-2.61-6,1.44-.38,6.52-1.79,8.54-3.41s4.13-4.22,4.05-6.94a4.57,4.57,0,0,0-5-4.58c-3.84.5-7,6.68-7.67,10.08,0,.21-.21,2.69-.28,4.06-.57-1.19-1.14-2.38-1.76-3.57-1.79-3.42-3.71-6.82-5.6-10.23-.59-1-1.15-2.09-1.72-3.13.51-.13,6.59-1.68,8.85-3.49,2-1.61,4.13-4.22,4-6.95a4.57,4.57,0,0,0-5-4.57c-3.83.49-7,6.68-7.66,10.07,0,.26-.29,3.83-.31,4.75-1.26-2.31-2.49-4.61-3.61-6.94a80.54,80.54,0,0,1-4-9.65c.24-.06,6.6-1.65,8.91-3.5,2-1.61,4.13-4.22,4.05-6.95a4.57,4.57,0,0,0-5-4.58c-3.84.5-7,6.69-7.66,10.08-.05.22-.24,2.95-.3,4.25l-.22,0a59.89,59.89,0,0,1-2.18-10.27c-.25-1.91-.39-3.76-.48-5.55,1.21-.18,6.75-1,9-2.47s4.56-3.75,4.78-6.46a4.57,4.57,0,0,0-4.5-5.1c-3.86.07-7.72,5.87-8.72,9.17-.05.18-.4,2.07-.63,3.44,0-.81-.08-1.64-.09-2.42-.06-2.92.07-5.6.2-8,.09-1.35.19-2.57.3-3.7,1.11-.8,5.51-4,6.83-6.32s2.33-5.43,1.27-7.94a4.56,4.56,0,0,0-6.34-2.46c-3.4,1.85-4.15,8.77-3.51,12.16.05.3,1.44,4.78,1.5,4.74l.07,0c-.13,1.09-.26,2.27-.37,3.55-.18,2.37-.37,5.05-.38,8a80.65,80.65,0,0,0,.43,9.46,60.25,60.25,0,0,0,2,10.42l0,.12c-.62-.94-2.47-3.52-2.63-3.7-2.31-2.56-8.28-6.15-11.81-4.57a4.58,4.58,0,0,0-1.89,6.54C380.24,363.46,383.41,364.58,386,364.89Z" transform="translate(-13.81 -21.65)" style="fill:#263238;opacity:0.30000000000000004"/></g><g id="freepik--Window--inject-19"><rect x="35.2" y="23.15" width="223.07" height="381.92" style="fill:none;stroke:#263238;stroke-linecap:round;stroke-linejoin:round"/><rect x="41.81" y="31.4" width="209.84" height="365.42" style="fill:none;stroke:#263238;stroke-linecap:round;stroke-linejoin:round"/><rect x="41.81" y="145.05" width="206.17" height="8.35" style="fill:none;stroke:#263238;stroke-linecap:round;stroke-linejoin:round"/><polyline points="149.08 282.38 149.08 396.72 140.72 396.72 140.72 282.38" style="fill:none;stroke:#263238;stroke-linecap:round;stroke-linejoin:round"/><line x1="140.72" y1="274.02" x2="140.72" y2="153.41" style="fill:none;stroke:#263238;stroke-linecap:round;stroke-linejoin:round"/><line x1="149.08" y1="274.02" x2="149.08" y2="153.41" style="fill:none;stroke:#263238;stroke-linecap:round;stroke-linejoin:round"/><polyline points="140.72 145.05 140.72 31.34 149.08 31.34 149.08 145.05" style="fill:none;stroke:#263238;stroke-linecap:round;stroke-linejoin:round"/><rect x="41.81" y="274.02" width="206.17" height="8.35" style="fill:none;stroke:#263238;stroke-linecap:round;stroke-linejoin:round"/><line x1="242.29" y1="274.02" x2="242.29" y2="153.41" style="fill:none;stroke:#263238;stroke-linecap:round;stroke-linejoin:round"/><polyline points="242.29 145.05 242.29 31.4 41.81 31.4 41.81 145.05 41.81 153.41 41.81 274.02 41.81 282.38 41.81 396.82 242.29 396.82 242.29 282.38" style="fill:none;stroke:#263238;stroke-linecap:round;stroke-linejoin:round"/><line x1="236.25" y1="48.98" x2="171.53" y2="113.69" style="fill:none;stroke:#263238;stroke-linecap:round;stroke-linejoin:round"/><line x1="214.34" y1="87.47" x2="197.08" y2="104.73" style="fill:none;stroke:#263238;stroke-linecap:round;stroke-linejoin:round"/><line x1="192.44" y1="110.71" x2="185.14" y2="118.01" style="fill:none;stroke:#263238;stroke-linecap:round;stroke-linejoin:round"/><line x1="94.2" y1="205.62" x2="63.67" y2="236.16" style="fill:none;stroke:#263238;stroke-linecap:round;stroke-linejoin:round"/><line x1="132.03" y1="187.04" x2="95.86" y2="223.21" style="fill:none;stroke:#263238;stroke-linecap:round;stroke-linejoin:round"/><line x1="123.4" y1="44.33" x2="85.57" y2="82.16" style="fill:none;stroke:#263238;stroke-linecap:round;stroke-linejoin:round"/><line x1="93.54" y1="108.71" x2="84.91" y2="117.34" style="fill:none;stroke:#263238;stroke-linecap:round;stroke-linejoin:round"/><line x1="226.29" y1="236.16" x2="217" y2="245.45" style="fill:none;stroke:#263238;stroke-linecap:round;stroke-linejoin:round"/><line x1="228.94" y1="198.99" x2="174.51" y2="253.42" style="fill:none;stroke:#263238;stroke-linecap:round;stroke-linejoin:round"/><line x1="185.8" y1="372.89" x2="213.35" y2="345.35" style="fill:none;stroke:#263238;stroke-linecap:round;stroke-linejoin:round"/><line x1="68.98" y1="341.03" x2="55.7" y2="354.31" style="fill:none;stroke:#263238;stroke-linecap:round;stroke-linejoin:round"/></g><g id="freepik--Picture--inject-19"><rect x="317.22" y="25.74" width="136.07" height="172.58" style="fill:none;stroke:#263238;stroke-linecap:round;stroke-linejoin:round"/><rect x="322.38" y="32.29" width="125.75" height="159.49" style="fill:none;stroke:#263238;stroke-linecap:round;stroke-linejoin:round"/><rect x="351.87" y="69.69" width="66.78" height="84.69" style="fill:none;stroke:#263238;stroke-linecap:round;stroke-linejoin:round"/></g><g id="freepik--plant-1--inject-19"><path d="M110.18,394.09a68.42,68.42,0,0,0,2.15-10.47,43.25,43.25,0,0,0,.38-5.32,30.07,30.07,0,0,0-.32-5.22l-.23-1.27-.29-1.35-.62-2.7c-.4-1.81-.81-3.62-1.18-5.46s-.69-3.7-.88-5.6A43.13,43.13,0,0,1,109,351h0a1,1,0,0,1,2,0,44.55,44.55,0,0,0,1.69,10.67c.47,1.76,1,3.53,1.51,5.3l.78,2.66.39,1.34.36,1.45a33.72,33.72,0,0,1,.73,5.79,48.1,48.1,0,0,1,0,5.76,71.53,71.53,0,0,1-1.6,11.37,2.41,2.41,0,0,1-4.71-1,.83.83,0,0,1,0-.15Z" transform="translate(-13.81 -21.65)" style="fill:#86BC5C;stroke:#263238;stroke-linecap:round;stroke-linejoin:round"/><path d="M111.88,356.33s0-5.62,3.12-8.74,7.14-3.84,9.79-4.14c2.81-.31,15.81,1.95,15.81,1.95a39.71,39.71,0,0,1-9,9.37C125.93,358.83,111.88,356.33,111.88,356.33Z" transform="translate(-13.81 -21.65)" style="fill:#86BC5C;stroke:#263238;stroke-linecap:round;stroke-linejoin:round"/><path d="M129.16,348.38a37.41,37.41,0,0,1,4.34-.77" transform="translate(-13.81 -21.65)" style="fill:none;stroke:#263238;stroke-linecap:round;stroke-linejoin:round"/><path d="M111.88,356.33a52.54,52.54,0,0,1,14.79-7.28" transform="translate(-13.81 -21.65)" style="fill:none;stroke:#263238;stroke-linecap:round;stroke-linejoin:round"/><path d="M109,351s-3.41-8.16-9.15-10.53-13.45,3.36-13.45,3.36,3.36,7.32,10.29,8.31A26.46,26.46,0,0,0,109,351Z" transform="translate(-13.81 -21.65)" style="fill:#86BC5C;stroke:#263238;stroke-linecap:round;stroke-linejoin:round"/><path d="M109,351s-7.37-4.6-13.5-5.59" transform="translate(-13.81 -21.65)" style="fill:#86BC5C;stroke:#263238;stroke-linecap:round;stroke-linejoin:round"/><polygon points="131.62 367.01 68.35 367.01 75.65 413.02 124.32 413.02 131.62 367.01" style="fill:#263238;stroke:#263238;stroke-linecap:round;stroke-linejoin:round"/></g><g id="freepik--Character--inject-19"><path d="M286,342.74s-25.79-3.87-37.78-6.37c-9.17-1.91-22.41-5.33-22.41-5.33s-29.66-12.48-32.46-12-11.13,8.46-11.13,8.46,16.28,21.59,17,21.45,21.43-5,21.43-5,46.63,27.39,55.22,30.11,13.23,3.76,13.23,3.76Z" transform="translate(-13.81 -21.65)" style="fill:#fff;stroke:#263238;stroke-linecap:round;stroke-linejoin:round"/><path d="M170.94,322.88s17.22,20.9,19.45,26.29,7.11,30.75,9.85,36.05c1.54,3,6.6,9.95,10.72,15.45a9.33,9.33,0,0,0,13.29,1.7l20.36-16.27a9.34,9.34,0,0,0,1.16-13.48l-9.34-11.17a19,19,0,0,0-3.44-3.2c-7.34-5.29-33.52-24.26-38.28-29.74-5.55-6.39-10.93-13.33-10.93-13.33Z" transform="translate(-13.81 -21.65)" style="fill:#fff;stroke:#263238;stroke-linecap:round;stroke-linejoin:round"/><path d="M173.5,325.59l11.77-7.79a3.68,3.68,0,0,1,.67-3.78c1.56-1.58,4-5.67,2.21-8.5s-14.75-3.5-19.88.26-13.48,13.06-13.48,13.06l5.68,7.15,6.69-3.77S171.08,325.22,173.5,325.59Z" transform="translate(-13.81 -21.65)" style="fill:#999;stroke:#263238;stroke-linecap:round;stroke-linejoin:round"/><polygon points="141.63 298.06 138.34 301.04 142.16 305.81 145.69 302.9 141.63 298.06" style="fill:#fff;stroke:#263238;stroke-linecap:round;stroke-linejoin:round"/><line x1="136.65" y1="303.59" x2="125.27" y2="306.91" style="fill:none;stroke:#263238;stroke-linecap:round;stroke-linejoin:round"/><line x1="132.82" y1="316.45" x2="130.96" y2="319.24" style="fill:none;stroke:#263238;stroke-linecap:round;stroke-linejoin:round"/><line x1="139.02" y1="307.15" x2="134.57" y2="313.82" style="fill:none;stroke:#263238;stroke-linecap:round;stroke-linejoin:round"/><path d="M174.17,326.76s-4.1,1.64-3.6,4.52,3.56,4.39,3.56,4.39,9.75-.58,10-1.87-1.66-3.31-3.48-3.93a44.17,44.17,0,0,0-4.89-1.2Z" transform="translate(-13.81 -21.65)" style="fill:#fff;stroke:#263238;stroke-linecap:round;stroke-linejoin:round"/><path d="M174.13,335.67a5.87,5.87,0,0,0,1.26,4.62c1.81,2.35,2.4,3,5.36,2.06s7.95-3.71,7.89-5.89-4.52-2.66-4.52-2.66S176.51,335.88,174.13,335.67Z" transform="translate(-13.81 -21.65)" style="fill:#fff;stroke:#263238;stroke-linecap:round;stroke-linejoin:round"/><path d="M178.37,343.07s.24,3.23,2.37,3.81,5.16-.89,6.58-1.75,5.06-4.15,4.32-6.68-3.77-.14-3.77-.14S182.62,342.34,178.37,343.07Z" transform="translate(-13.81 -21.65)" style="fill:#fff;stroke:#263238;stroke-linecap:round;stroke-linejoin:round"/><path d="M183.27,347.07s.29,2.6,1.79,3.13,5.46-1.87,6.82-4-1-3.74-1-3.74S184.69,347.14,183.27,347.07Z" transform="translate(-13.81 -21.65)" style="fill:#fff;stroke:#263238;stroke-linecap:round;stroke-linejoin:round"/><path d="M223.61,331.94S200,316.33,197,314.48s-6.49.33-7.59,1.56a37.18,37.18,0,0,1-9.7,6.12c-3,1-5.89,2.32-3.8,3.8s5.31,2,8.88,1.36a59.07,59.07,0,0,0,9.2-2.89s3.84,11.66,12.16,11.28" transform="translate(-13.81 -21.65)" style="fill:#fff;stroke:#263238;stroke-linecap:round;stroke-linejoin:round"/><path d="M270.7,149.81s-3.26,12-1.63,15,3.81,6.26,3.54,9.52-5.44,12.79-3.81,14.42,7.62,3.26,7.62,3.26,10.06,19.86,12.51,19.86,9.79-4.08,11.15-4.35,3.26-.28,5.44,4.07,4.89,9,4.89,10.07-9,9.25-9,9.25-20.95,12-22.58,16.59-8.16,38.07-9.79,43.51-8.16,7.35-5.71,10.88a15.44,15.44,0,0,1,2.72,6.8s-7.07,6-4.9,9.52,6.26,9.25,6.26,9.25-3.26-1.09-3.81,2.72-4.05,8.35-3,8.35,10.31-1,18.19,2,5.71,3.81,5.71,3.81L273.7,435.12H401.53l-3.81-83.77S392,261.6,391.46,247.73s-.54-13.87-6.52-16.59-34.55-11.43-38.08-12.51a17.12,17.12,0,0,1-7.89-4.9c-1.63-1.9-7.07-15.5-7.07-15.5s-9.52-41.34-15.78-54.4S302.53,127.78,290,132.41,273.42,143.56,270.7,149.81Z" transform="translate(-13.81 -21.65)" style="fill:#fff;stroke:#263238;stroke-linecap:round;stroke-linejoin:round"/><path d="M284.94,435.12h44.8c.08-21.57.7-128.74,4.61-151.22,3.7-21.3,14.89-54.21,18.14-63.54l-5.63-1.73c-.61-.19-1.18-.41-1.74-.64-5.43,9.43-28,47.62-36.34,47.15-9.52-.55-3.64-37.73-3.64-37.73S294.64,245,290,261.87s-3,54.94-3,54.94v38.62Z" transform="translate(-13.81 -21.65)" style="fill:#fff;stroke:#263238;stroke-linecap:round;stroke-linejoin:round"/><path d="M283.07,171c.71,1.57.62,3.15-.2,3.52s-2.06-.6-2.77-2.18-.63-3.15.19-3.52S282.36,169.46,283.07,171Z" transform="translate(-13.81 -21.65)" style="fill:#263238"/><path d="M275.33,164s1.09-3.27,6-1.91" transform="translate(-13.81 -21.65)" style="fill:none;stroke:#263238;stroke-linecap:round;stroke-linejoin:round;stroke-width:2px"/><path d="M282.4,193.33a8,8,0,0,0,8.16-4.89" transform="translate(-13.81 -21.65)" style="fill:none;stroke:#263238;stroke-linecap:round;stroke-linejoin:round"/><path d="M284.57,344.28,273.7,435.12h14.42c.07-13.83.65-112.25,2.17-125.65,1.42-12.54,12.09-67.86,14.85-82.06-1.95,1.87-3.7,3.46-3.7,3.46s-20.95,12-22.58,16.59-8.16,38.07-9.79,43.51-8.16,7.35-5.71,10.88a15.44,15.44,0,0,1,2.72,6.8s-7.07,6-4.9,9.52,6.26,9.25,6.26,9.25-3.26-1.09-3.81,2.72-4.05,8.35-3,8.35,7.46,3.34,15.32,4C284.4,343.18,284.57,344.28,284.57,344.28Z" transform="translate(-13.81 -21.65)" style="fill:#86BC5C;stroke:#263238;stroke-linecap:round;stroke-linejoin:round"/><path d="M397.72,351.35S392,261.6,391.46,247.73s-.54-13.87-6.52-16.59-34.55-11.43-38.08-12.51c-.69-.22-1.33-.46-2-.73-4.58,13.54-21.49,64.5-23.61,84.22-2.2,20.55.22,114.31.73,133h79.51Z" transform="translate(-13.81 -21.65)" style="fill:#86BC5C;stroke:#263238;stroke-linecap:round;stroke-linejoin:round"/><polyline points="353.17 367.42 322.84 369.44 322.84 373.49 362.47 370.66" style="fill:#86BC5C;stroke:#263238;stroke-linecap:round;stroke-linejoin:round"/><path d="M285,264.43c.7-3.55,1.18-5.82,1.18-5.82" transform="translate(-13.81 -21.65)" style="fill:none;stroke:#263238;stroke-linecap:round;stroke-linejoin:round"/><path d="M284.57,344.28s.28-16-.27-19.31-5.71-11.69-5.44-22c.18-6.75,3.26-23.59,5.37-34.46" transform="translate(-13.81 -21.65)" style="fill:none;stroke:#263238;stroke-linecap:round;stroke-linejoin:round"/><path d="M276,326.73c-1.65,0-2.88-.13-2.88-.13" transform="translate(-13.81 -21.65)" style="fill:none;stroke:#263238;stroke-linecap:round;stroke-linejoin:round"/><path d="M278.86,314.64s-12.24,1.36-10.06,2.72,17.41,5.16,15.5,7.61a5.68,5.68,0,0,1-3.51,1.48" transform="translate(-13.81 -21.65)" style="fill:none;stroke:#263238;stroke-linecap:round;stroke-linejoin:round"/><path d="M368.89,357.88s-4.62,15.23-8.16,28.29S345,429.68,345,429.68l-2.17,5.44h22.85s14.68-28,20.67-37.26,11.69-22,14.41-28.28l2.72-6.26,1.09-3.26L370,355.43Z" transform="translate(-13.81 -21.65)" style="fill:#fff;stroke:#263238;stroke-linecap:round;stroke-linejoin:round"/><path d="M359.1,269.22s5.44,40.25,6,44.06-4.35,9.24-3.26,12.24,12,12,11.69,12.78-6.25,3-5.44,6.25,2.45,7.89,2.45,7.89l-1.63,5.44s5.17,3,15.77,4.62,20.67,1.09,21.22-.27-1.09-14.68-1.09-16.86,0-4.9,2.18-7.34,3.26-5.71,1.36-10.34a39.23,39.23,0,0,1-2.45-9.25s6.53-9,4.89-13.87-8.7-11.42-8.7-13.05-2.45-43-4.62-51.41-26.39-12.51-26.39-12.51" transform="translate(-13.81 -21.65)" style="fill:#86BC5C;stroke:#263238;stroke-linecap:round;stroke-linejoin:round"/><path d="M406.42,309.47S372.15,320.35,380,320.62s23.39-6.53,23.39-6.53" transform="translate(-13.81 -21.65)" style="fill:none;stroke:#263238;stroke-linecap:round;stroke-linejoin:round"/><path d="M375.69,330.68s27.74,5.44,24.2,6.53-18.49-1.63-19.31-1.63" transform="translate(-13.81 -21.65)" style="fill:none;stroke:#263238;stroke-linecap:round;stroke-linejoin:round"/><path d="M372.42,353.26s33.73,3,32.1,4.35-10.34-.54-10.34-.54" transform="translate(-13.81 -21.65)" style="fill:none;stroke:#263238;stroke-linecap:round;stroke-linejoin:round"/><path d="M307.76,352.14a64.15,64.15,0,0,0,3.87,6.39" transform="translate(-13.81 -21.65)" style="fill:none;stroke:#263238;stroke-linecap:round;stroke-linejoin:round"/><path d="M294.1,322.6s5.84,14.24,11.55,25.51" transform="translate(-13.81 -21.65)" style="fill:none;stroke:#263238;stroke-linecap:round;stroke-linejoin:round"/><path d="M299.8,343.63S307.68,366,312.07,373" transform="translate(-13.81 -21.65)" style="fill:none;stroke:#263238;stroke-linecap:round;stroke-linejoin:round"/><path d="M275.06,116.09s-8.44,8.43-11.7,19.31-1.9,17.41-1.9,17.41l15,.27L279.13,143l1.36,9.79,6.53.81,3-6s1.09,3.26,3.81,12.78,7.07,16.05,8.16,30.46a84.41,84.41,0,0,1-2.72,27.2s7.89.55,32.37-3,34.54-9.25,37.8-9.79a37.51,37.51,0,0,1,8.16,0,123.68,123.68,0,0,1-10.06-25.84c-3.26-13.33-6.26-34.27-7.62-43.24s-7.88-20.4-23.66-29.38-39.44-5.71-47.6-1.09A64.8,64.8,0,0,0,275.06,116.09Z" transform="translate(-13.81 -21.65)" style="fill:#263238;stroke:#263238;stroke-linecap:round;stroke-linejoin:round"/><path d="M305.47,164.1c.29,1.45.55,2.87.76,4.23" transform="translate(-13.81 -21.65)" style="fill:none;stroke:#999;stroke-linecap:round;stroke-linejoin:round"/><path d="M297.41,135.16s4.71,13.65,7.48,26.18" transform="translate(-13.81 -21.65)" style="fill:none;stroke:#999;stroke-linecap:round;stroke-linejoin:round"/><path d="M301.64,126c1.06-.35,12,21.88,13.41,35.65" transform="translate(-13.81 -21.65)" style="fill:none;stroke:#999;stroke-linecap:round;stroke-linejoin:round"/><path d="M323.89,142.9c.52,1.52,1,3.07,1.4,4.61" transform="translate(-13.81 -21.65)" style="fill:none;stroke:#999;stroke-linecap:round;stroke-linejoin:round"/><path d="M314,122.81a105.48,105.48,0,0,1,9,17.57" transform="translate(-13.81 -21.65)" style="fill:none;stroke:#999;stroke-linecap:round;stroke-linejoin:round"/><path d="M325.29,123.87s8.82,16.23,9.52,25.41" transform="translate(-13.81 -21.65)" style="fill:none;stroke:#999;stroke-linecap:round;stroke-linejoin:round"/><path d="M338.69,143.18a23.27,23.27,0,0,1,.36,2.57" transform="translate(-13.81 -21.65)" style="fill:none;stroke:#999;stroke-linecap:round;stroke-linejoin:round"/><path d="M329.52,120.34s6.22,11.44,8.63,20.54" transform="translate(-13.81 -21.65)" style="fill:none;stroke:#999;stroke-linecap:round;stroke-linejoin:round"/><path d="M341,130a37,37,0,0,1,4.47,14" transform="translate(-13.81 -21.65)" style="fill:none;stroke:#999;stroke-linecap:round;stroke-linejoin:round"/><path d="M333,118.57a60.09,60.09,0,0,1,6.54,9" transform="translate(-13.81 -21.65)" style="fill:none;stroke:#999;stroke-linecap:round;stroke-linejoin:round"/><path d="M353.69,144.22c.39,2,.7,4.09.89,6.12" transform="translate(-13.81 -21.65)" style="fill:none;stroke:#999;stroke-linecap:round;stroke-linejoin:round"/><path d="M348.22,125.63A115.79,115.79,0,0,1,353,140.91" transform="translate(-13.81 -21.65)" style="fill:none;stroke:#999;stroke-linecap:round;stroke-linejoin:round"/><path d="M274.47,120.34s-5.3,7.41-7.41,14.82" transform="translate(-13.81 -21.65)" style="fill:none;stroke:#999;stroke-linecap:round;stroke-linejoin:round"/><path d="M273.51,133.63a26.41,26.41,0,0,0-1.51,3.65" transform="translate(-13.81 -21.65)" style="fill:none;stroke:#999;stroke-linecap:round;stroke-linejoin:round"/><path d="M281.17,120.69s-3.43,5.06-6.18,10.08" transform="translate(-13.81 -21.65)" style="fill:none;stroke:#999;stroke-linecap:round;stroke-linejoin:round"/><path d="M286.11,124.57s-4.31,9.79-5.64,14.12" transform="translate(-13.81 -21.65)" style="fill:none;stroke:#999;stroke-linecap:round;stroke-linejoin:round"/><path d="M288.1,136.69c-.33,1-.65,2.05-.93,3.06" transform="translate(-13.81 -21.65)" style="fill:none;stroke:#999;stroke-linecap:round;stroke-linejoin:round"/><path d="M292.11,126s-1.54,3.6-3.07,7.92" transform="translate(-13.81 -21.65)" style="fill:none;stroke:#999;stroke-linecap:round;stroke-linejoin:round"/></g><g id="freepik--Table--inject-19"><line x1="458.67" y1="413.47" x2="8.57" y2="413.47" style="fill:none;stroke:#263238;stroke-linecap:round;stroke-linejoin:round"/></g></svg>