<?xml version="1.0" encoding="UTF-8"?>
<svg width="33px" height="25px" viewBox="0 0 33 25" version="1.1" xmlns="http://www.w3.org/2000/svg" xmlns:xlink="http://www.w3.org/1999/xlink">
    <!-- Generator: Sketch 58 (84663) - https://sketch.com -->
    <title>Shop/Maintenance/High</title>
    <desc>Created with Sketch.</desc>
    <g id="Symbols" stroke="none" stroke-width="1" fill="none" fill-rule="evenodd" stroke-linecap="round" stroke-linejoin="round">
        <g id="Shop/Dropdown/Maintenance" transform="translate(-196.000000, -19.000000)" stroke="#414141">
            <g id="Shop/Maintenance/High" transform="translate(197.000000, 19.000000)">
                <path d="M24.1358564,0.790523835 C24.1358564,0.790523835 30.6830018,4.52878244 31.1093018,11.9443928 C31.1354018,12.1903933 31.1504291,12.4395578 31.1504291,12.6926773 C31.1504291,16.5669876 28.0097291,19.7080424 24.1358564,19.7080424 C23.3889912,19.7080424 22.6693965,19.5913367 21.9943088,19.3751697 C22.271781,18.6216863 22.4226682,17.8075836 22.4226682,16.9582154 C22.4226682,16.7050959 22.4076409,16.4559314 22.3815409,16.2099309 C22.1491349,12.1746494 20.1047505,9.22850477 18.2892193,7.38105607 C20.2720967,2.99636886 24.1358564,0.790523835 24.1358564,0.790523835 Z" id="Combined-Shape"></path>
                <path d="M7.01544273,0.790523835 C7.01544273,0.790523835 10.7438692,2.91962058 12.7567551,7.15163494 C10.8875461,8.98007055 8.6756928,12.0031644 8.43385909,16.2099309 C8.40775909,16.4559314 8.39273182,16.7050959 8.39273182,16.9582154 C8.39273182,17.8410026 8.55572608,18.6856946 8.85326035,19.463834 C8.26760476,19.6233888 7.6514035,19.7080424 7.01544273,19.7080424 C3.14077909,19.7080424 7.90909091e-05,16.5669876 7.90909091e-05,12.6926773 C7.90909091e-05,12.4395578 0.0151063636,12.1903933 0.0404154545,11.9443928 C0.467506364,4.52878244 7.01544273,0.790523835 7.01544273,0.790523835 Z" id="Combined-Shape"></path>
                <path d="M22.3815409,16.2099309 C21.95445,8.79432059 15.4080955,5.05685299 15.4080955,5.05685299 C15.4080955,5.05685299 8.86015909,8.79432059 8.43385909,16.2099309 C8.40775909,16.4559314 8.39273182,16.7050959 8.39273182,16.9582154 C8.39273182,20.8333168 11.5334318,23.9743715 15.4080955,23.9743715 C19.2819682,23.9743715 22.4226682,20.8333168 22.4226682,16.9582154 C22.4226682,16.7050959 22.4076409,16.4559314 22.3815409,16.2099309 Z" id="Stroke-7"></path>
            </g>
        </g>
    </g>
</svg>