<svg xmlns="http://www.w3.org/2000/svg" width="25" height="25" viewBox="0 0 25 25">
  <g fill="none" fill-rule="evenodd" stroke="#414141" stroke-linecap="round" stroke-linejoin="round" transform="translate(1)">
    <path d="M15.7430455,0.790523835 C15.7430455,0.790523835 22.2901909,4.52878244 22.7164909,11.9443928 C22.7425909,12.1903933 22.7576182,12.4395578 22.7576182,12.6926773 C22.7576182,16.5669876 19.6169182,19.7080424 15.7430455,19.7080424 C14.9961803,19.7080424 14.2765856,19.5913367 13.6014978,19.3751697 C13.878891,18.6216863 14.0297782,17.8075836 14.0297782,16.9582154 C14.0297782,16.7050959 14.0147509,16.4559314 13.9886509,16.2099309 C13.7566753,12.1746494 11.7122529,9.22850477 9.89659762,7.38105607 C11.8792858,2.99636886 15.7430455,0.790523835 15.7430455,0.790523835 Z"/>
    <path d="M13.9886509,16.2099309 C13.5623509,8.79432059 7.01520545,5.05685299 7.01520545,5.05685299 C7.01520545,5.05685299 0.467269091,8.79432059 0.0409690909,16.2099309 C0.0148690909,16.4559314 -0.000158181818,16.7050959 -0.000158181818,16.9582154 C-0.000158181818,20.8333168 3.14054182,23.9743715 7.01520545,23.9743715 C10.8890782,23.9743715 14.0297782,20.8333168 14.0297782,16.9582154 C14.0297782,16.7050959 14.0147509,16.4559314 13.9886509,16.2099309 Z"/>
  </g>
</svg>
