<?xml version="1.0" encoding="UTF-8"?>
<svg width="31px" height="38px" viewBox="0 0 31 38" version="1.1" xmlns="http://www.w3.org/2000/svg" xmlns:xlink="http://www.w3.org/1999/xlink">
    <!-- Generator: Sketch 58 (84663) - https://sketch.com -->
    <title>Shop/Plant/Large</title>
    <desc>Created with Sketch.</desc>
    <g id="Symbols" stroke="none" stroke-width="1" fill="none" fill-rule="evenodd">
        <g id="Shop/Dropdown/Size" transform="translate(-198.000000, -9.000000)">
            <g id="Shop/Plant/Large" transform="translate(198.000000, 9.000000)">
                <g id="Page-1">
                    <path d="M17.3354908,11.287233 C16.6184384,10.6552859 16.3320781,9.6817656 16.7435771,8.83770665 C16.9907836,8.32936959 17.1136192,7.75739896 17.0775362,7.15763437 C17.0245634,6.2909014 16.6468441,5.51705879 16.0633753,4.93411687 C15.5029382,4.37531181 15.3125431,3.5978121 15.4875838,2.842255 C15.5728009,2.47215636 15.564356,2.07060666 15.4369141,1.66027991 C15.177424,0.824998 14.415076,0.177691094 13.5137702,0.0343327286 C11.8823608,-0.223858613 10.5257958,1.01151016 10.6148516,2.48605335 C10.6286706,2.69670238 10.6701276,2.89784294 10.7369194,3.0880122 C10.9987126,3.82747805 10.9173341,4.62472611 10.4244565,5.24789615 C9.91622447,5.89008311 9.63523818,6.70049673 9.688211,7.56649828 C9.72352622,8.15236589 9.90777952,8.6950797 10.2033525,9.16538291 C10.7039073,9.96189955 10.5910522,10.9727223 9.95307513,11.6748857 C8.97192628,12.754462 8.4828873,14.2407079 8.79227931,15.80741 C9.22220369,17.9819224 11.2182811,19.6466348 13.5383373,19.7673192 C16.6606631,19.9296945 19.1488505,17.481631 18.9730421,14.5932525 C18.8924313,13.2781589 18.2751827,12.1159321 17.3354908,11.287233" id="Fill-1"></path>
                    <path d="M17.1587733,11.2164489 C16.4779815,10.6164588 16.2061021,9.69216839 16.5967921,8.89079266 C16.8314976,8.40816169 16.9481215,7.86511505 16.9138632,7.29567996 C16.8635692,6.4727768 16.5049508,5.73806664 15.9509874,5.18460351 C15.418891,4.65405667 15.2381241,3.91587434 15.4043131,3.19852501 C15.4852209,2.84714189 15.477203,2.46589815 15.3562057,2.07632121 C15.1098378,1.28327868 14.3860409,0.668705433 13.5303133,0.532596557 C11.9814026,0.287461693 10.6934378,1.4603591 10.7779901,2.86033612 C10.7911103,3.06033283 10.8304708,3.25130192 10.893885,3.43185451 C11.1424397,4.13392632 11.0651764,4.89085833 10.5972231,5.48251529 C10.1146918,6.0922275 9.84791475,6.86165931 9.89820879,7.68386803 C9.93173815,8.2401089 10.106674,8.75537822 10.3873001,9.20189866 C10.8625424,9.95813625 10.7553942,10.9178427 10.149679,11.5844984 C9.21814587,12.6094816 8.75383711,14.0205695 9.04758347,15.5080451 C9.455767,17.5725946 11.3509048,19.1531242 13.5536381,19.2677056 C16.518071,19.4218698 18.8804332,17.0976024 18.7135153,14.3552863 C18.6369808,13.1066957 18.0509459,12.0032416 17.1587733,11.2164489 Z" id="Stroke-3" stroke="#414141" stroke-linecap="round" stroke-linejoin="round"></path>
                    <path d="M14.4648234,28.2853446 C14.4648234,28.2853446 14.7894727,18.589096 21.1513948,14.2212659 C27.5125636,9.85495457 29.8634468,9.99923269 29.8634468,9.99923269 C29.0258364,11.0585378 28.2748494,12.3623563 27.4364857,13.4231801 C27.013161,13.9585279 26.5792909,14.5037473 26.0083299,14.8735549 C25.4795506,15.2160256 24.8475766,15.399031 24.3805636,15.8235124 C23.8804078,16.2776087 23.6310831,16.9564752 23.1535247,17.4356304 C22.2880442,18.3035772 20.9269273,18.3225612 19.7104338,18.4258339 C18.4939403,18.5291067 16.8646675,18.9087859 16.4669532,20.0728825" id="Fill-5"></path>
                    <path d="M15.0079226,24.4948581 C15.7239812,21.2892675 17.3728516,16.8154559 21.1513948,14.2212659 C27.5125636,9.85495457 29.8634468,9.99923269 29.8634468,9.99923269 C29.0258364,11.0585378 28.2748494,12.3623563 27.4364857,13.4231801 C27.013161,13.9585279 26.5792909,14.5037473 26.0083299,14.8735549 C25.4795506,15.2160256 24.8475766,15.399031 24.3805636,15.8235124 C23.8804078,16.2776087 23.6310831,16.9564752 23.1535247,17.4356304 C22.2880442,18.3035772 20.9269273,18.3225612 19.7104338,18.4258339 C18.4939403,18.5291067 16.8646675,18.9087859 16.4669532,20.0728825" id="Stroke-7" stroke="#414141" stroke-linecap="round" stroke-linejoin="round"></path>
                    <path d="M13.6953069,28.4137843 C13.6953069,28.4137843 14.5869528,16.5049733 0.967997799,10.9136691 C0.371569091,11.4571839 0.513183445,12.5608903 0.95526,13.2385783 C1.39733656,13.9170242 2.11140258,14.3506232 2.77976239,14.8016571 C3.44737292,15.2519329 4.12397483,15.781045 4.40795282,16.5406012 C4.62749254,17.1258082 4.5952734,17.8050122 4.92420833,18.3363984 C5.18046287,18.7510463 5.6277844,19.0148443 6.09308871,19.1452272 C6.55989158,19.2763682 7.04917292,19.2900129 7.53171072,19.3013835 C8.19482555,19.3180604 8.71707531,19.8911388 9.02053464,20.4884744 C9.32324469,21.085052 9.48284182,21.7604658 9.87696431,22.2994324 C10.5580619,23.2287896 11.7696514,23.5486826 12.8845834,23.8071742" id="Fill-9"></path>
                    <path d="M13.305401,24.5524836 C12.4186831,20.5743344 9.62477724,14.4677367 0.967997799,10.9136691 C0.371569091,11.4571839 0.513183445,12.5608903 0.95526,13.2385783 C1.39733656,13.9170242 2.11140258,14.3506232 2.77976239,14.8016571 C3.44737292,15.2519329 4.12397483,15.781045 4.40795282,16.5406012 C4.62749254,17.1258082 4.5952734,17.8050122 4.92420833,18.3363984 C5.18046287,18.7510463 5.6277844,19.0148443 6.09308871,19.1452272 C6.55989158,19.2763682 7.04917292,19.2900129 7.53171072,19.3013835 C8.19482555,19.3180604 8.71707531,19.8911388 9.02053464,20.4884744 C9.32324469,21.085052 9.48284182,21.7604658 9.87696431,22.2994324 C10.5580619,23.2287896 11.7696514,23.5486826 12.8845834,23.8071742" id="Stroke-11" stroke="#414141" stroke-linecap="round" stroke-linejoin="round"></path>
                    <path d="M13.9255364,27.4954292 C13.9255364,27.4954292 14.8192636,20.2417218 13.5158455,11.1464623" id="Fill-13" fill="#FFFFFF"></path>
                    <path d="M14.1533211,24.4349353 C14.2887669,21.4790169 14.3045233,16.6498605 13.5158455,11.1464623" id="Stroke-15" stroke="#414141" stroke-linecap="round" stroke-linejoin="round"></path>
                    <path d="M13.6330968,37.1769264 C10.0498193,37.1769264 7.11818182,34.1495479 7.11818182,30.4484819 L7.11818182,24.5209515 L20.5636364,24.5209515 L20.5636364,30.4484819 C20.5636364,34.1495479 17.6319988,37.1769264 14.0479792,37.1769264 L13.6330968,37.1769264 Z" id="Fill-17"></path>
                    <path d="M14.0479792,37.1769264 L13.6330968,37.1769264 C10.0498193,37.1769264 7.11818182,34.1495479 7.11818182,30.4484819 L7.11818182,24.5209515 L13.1330566,24.5209515 L20.5636364,24.5209515 L20.5636364,30.4484819 C20.5636364,34.1495479 17.6319988,37.1769264 14.0479792,37.1769264 Z" id="Stroke-19" stroke="#414141"></path>
                    <path d="M7.56130737,27.382151 L21.1353055,27.382151" id="Fill-21" fill="#FFFFFF"></path>
                    <path d="M7.49945043,27.382151 L20.1353055,27.382151" id="Stroke-23" stroke="#414141"></path>
                </g>
            </g>
        </g>
    </g>
</svg>