<?xml version="1.0" encoding="UTF-8"?>
<svg width="14px" height="30px" viewBox="0 0 14 30" version="1.1" xmlns="http://www.w3.org/2000/svg" xmlns:xlink="http://www.w3.org/1999/xlink">
    <!-- Generator: Sketch 58 (84663) - https://sketch.com -->
    <title>Shop/Plant/Medium</title>
    <desc>Created with Sketch.</desc>
    <g id="Symbols" stroke="none" stroke-width="1" fill="none" fill-rule="evenodd">
        <g id="Shop/Dropdown/Size" transform="translate(-125.000000, -13.000000)">
            <g id="Shop/Plant/Medium" transform="translate(125.000000, 13.000000)">
                <g id="Group-4" transform="translate(0.000000, 2.000000)">
                    <g id="Page-1">
                        <path d="M7.03832876,27.1414678 L6.64841058,27.1414678 C3.28093537,27.1414678 0.52461719,24.3337095 0.52461719,20.9013822 L0.52461719,15.4048014 L13.1627333,15.4048014 L13.1627333,20.9013822 C13.1627333,24.3337095 10.4070263,27.1414678 7.03832876,27.1414678 Z" id="Stroke-3" stroke="#414141"></path>
                        <g id="Group-8" transform="translate(0.000000, 17.090079)">
                            <path d="M0.524494959,0.439066401 L13.1626111,0.439066401" id="Fill-5" fill="#FFFFFF"></path>
                            <path d="M0.524494959,0.439066401 L13.1626111,0.439066401" id="Stroke-7" stroke="#414141"></path>
                        </g>
                        <path d="M12.7219669,6.62397151 C10.6513669,13.1050424 11.3908669,15.4052995 11.3908669,15.4052995 L11.3908669,15.4052995 L9.8388336,15.4050504 C9.68346718,14.5915952 9.75777008,13.2353011 9.96298062,11.6339382 C11.1980794,8.40935302 12.7219669,6.62397151 12.7219669,6.62397151 Z" id="Combined-Shape" stroke="#414141" stroke-linecap="round" stroke-linejoin="round"></path>
                        <path d="M3.6733593,15.4050504 C3.6733593,15.4050504 3.81209194,5.89267157 0.964711364,3.20945342 C0.964711364,3.20945342 2.36976136,13.523871 1.92667252,15.4050504 L3.6733593,15.4050504 Z" id="Stroke-15" stroke="#414141" stroke-linecap="round" stroke-linejoin="round"></path>
                        <path d="M8.5077336,0.21270536 C7.93133722,3.13243948 7.81122742,6.81277972 7.8396316,9.81976866 C7.3563597,11.5477102 7.02048464,13.2960337 6.96341043,14.9213043 L6.9547836,15.4050504 L6.06799475,15.4050504 C5.85686664,14.6489443 5.74213243,12.9445467 5.68596022,10.894965 C6.45280358,4.68576151 8.5077336,0.21270536 8.5077336,0.21270536 Z" id="Combined-Shape" stroke="#414141" stroke-linecap="round" stroke-linejoin="round"></path>
                    </g>
                </g>
                <path d="M6.9547836,17.4050504 C6.9547836,10.2969197 12.7222724,0.474435812 12.7222724,0.474435812 C12.7222724,0.474435812 9.1732836,13.9204162 9.8388336,17.4050504 L6.9547836,17.4050504 Z" id="Stroke-27" stroke="#414141" stroke-linecap="round" stroke-linejoin="round"></path>
                <path d="M3.92344475,17.4050504 C3.92344475,17.4050504 2.59234475,6.26181793 5.7715836,0.474435812 C5.7715836,0.474435812 5.32849475,14.7567035 6.06799475,17.4050504 L3.92344475,17.4050504 Z" id="Stroke-23" stroke="#414141" stroke-linecap="round" stroke-linejoin="round"></path>
            </g>
        </g>
    </g>
</svg>