<?xml version="1.0" encoding="UTF-8"?>
<svg width="15px" height="19px" viewBox="0 0 15 19" version="1.1" xmlns="http://www.w3.org/2000/svg" xmlns:xlink="http://www.w3.org/1999/xlink">
    <!-- Generator: Sketch 58 (84663) - https://sketch.com -->
    <title>Shop/Plant/Smal</title>
    <desc>Created with Sketch.</desc>
    <g id="Symbols" stroke="none" stroke-width="1" fill="none" fill-rule="evenodd">
        <g id="Shop/Dropdown/Size" transform="translate(-43.000000, -22.000000)" stroke="#414141">
            <g id="Shop/Plant/Smal" transform="translate(43.000000, 22.000000)">
                <path d="M7.46811164,18.4666931 L7.05739255,18.4666931 C3.51182618,18.4666931 0.611167091,15.5768212 0.611167091,12.0437312 L0.611167091,7.9679618 L13.9150489,7.9679618 L13.9150489,12.0437312 C13.9150489,15.5768212 11.0129662,18.4666931 7.46811164,18.4666931 Z" id="Stroke-3"></path>
                <path d="M12.2992216,4.03950899 C12.3412189,4.59549906 12.0023935,5.06284276 11.5916744,5.34651116 C11.4407689,5.45091689 11.2680711,5.54667653 11.0874221,5.63622978 C10.435935,5.80430059 9.79013886,6.08408968 9.21411015,6.38521998 C8.90260485,6.47524036 8.58653242,6.55383166 8.26819527,6.64925831 C8.27502873,6.64721589 8.28350221,6.63594178 8.29261203,6.61962208 C8.69749939,6.11492051 9.02011328,5.54391193 9.24122982,4.92497227 C9.35551309,4.7471365 9.47785947,4.57431305 9.60641345,4.4061504 C9.96018709,3.94306173 10.4022262,3.43813197 10.9595798,3.22183482 C11.5610662,2.98851755 12.2493944,3.37359741 12.2992216,4.03950899 Z" id="Combined-Shape" stroke-linecap="round" stroke-linejoin="round"></path>
                <path d="M3.56585318,3.22183482 C4.05175122,3.41040157 4.45000718,3.81833669 4.77854342,4.2266726 C4.96695891,5.08284642 5.34413902,5.86806621 5.86344574,6.53883744 C5.67960814,6.48828819 5.49667738,6.43982366 5.31498929,6.38807701 C4.73868263,6.0853135 4.09141474,5.8046704 3.43933251,5.63513223 C3.25736191,5.54667653 3.08466409,5.45091689 2.93375864,5.34651116 C2.52303955,5.06284276 2.18492591,4.59549906 2.22621136,4.03950899 C2.27603864,3.37359741 2.96507864,2.98851755 3.56585318,3.22183482 Z" id="Combined-Shape" stroke-linecap="round" stroke-linejoin="round"></path>
                <path d="M9.57993382,2.96142722 L9.57993382,2.90185686 C9.54861382,-0.246862429 4.67123564,-0.246862429 4.63991564,2.90185686 L4.63991564,2.96142722 C4.63991564,4.93150429 5.61653018,6.67110077 7.10992473,7.73769397 C8.60331927,6.67110077 9.57993382,4.93150429 9.57993382,2.96142722 Z" id="Stroke-27" stroke-linecap="round" stroke-linejoin="round"></path>
                <path d="M7.11013827,7.73790672 C7.11013827,7.73790672 10.4485655,5.05440362 12.8751537,5.524584 C15.3017419,5.99547355 13.520061,8.77471474 7.11013827,7.73790672 Z" id="Stroke-15" stroke-linecap="round" stroke-linejoin="round"></path>
                <path d="M7.41600655,7.73790672 C7.41600655,7.73790672 4.07757927,5.05440362 1.65027927,5.524584 C-0.776308909,5.99547355 1.00608382,8.77471474 7.41600655,7.73790672 Z" id="Stroke-23" stroke-linecap="round" stroke-linejoin="round"></path>
            </g>
        </g>
    </g>
</svg>