<svg xmlns="http://www.w3.org/2000/svg" width="27" height="27" viewBox="0 0 27 27">
  <g fill="none" fill-rule="evenodd" stroke="#414141" stroke-linecap="round" stroke-linejoin="round" transform="translate(1 1)">
    <path d="M4.83617182 12.7286677C4.83617182 8.37026633 8.36916273 4.83687633 12.7270718 4.83687633 17.0849809 4.83687633 20.6179718 8.37026633 20.6179718 12.7286677 20.6179718 17.0870691 17.0849809 20.6204591 12.7270718 20.6204591 8.36916273 20.6204591 4.83617182 17.0870691 4.83617182 12.7286677zM12.7267555 4.83679723L12.7267555-.000158199687M18.3063818 7.14841105L21.7262727 3.72813382M20.6180509 12.7286677L25.4536691 12.7286677M18.3063818 18.3089244L21.7262727 21.7292016M12.7267555 20.6200636L12.7267555 25.457019M7.14712909 18.3089244L3.72802909 21.7292016M4.83617182 12.7286677L.000553636364 12.7286677M7.14712909 7.14841105L3.72802909 3.72813382"/>
  </g>
</svg>
