<svg xmlns="http://www.w3.org/2000/svg" width="18" height="18" viewBox="0 0 18 18">
  <g fill="none" fill-rule="evenodd" stroke="#414141" stroke-linecap="round" stroke-linejoin="round" transform="translate(1 1)">
    <path d="M3.07756388 8.10006127C3.07756388 5.32653312 5.32583083 3.07801221 8.0990457 3.07801221 10.8722606 3.07801221 13.1205275 5.32653312 13.1205275 8.10006127 13.1205275 10.8735894 10.8722606 13.1221103 8.0990457 13.1221103 5.32583083 13.1221103 3.07756388 10.8735894 3.07756388 8.10006127zM8.09884438 3.07796187L8.09884438-.000100672528M11.6495157 4.54898885L13.8258099 2.37244879M13.1205779 8.10006127L16.1977894 8.10006127M11.6495157 11.6511337L13.8258099 13.8276737M8.09884438 13.1218586L8.09884438 16.1999212M4.54817306 11.6511337L2.37238215 13.8276737M3.07756388 8.10006127L.00035231405 8.10006127M4.54817306 4.54898885L2.37238215 2.37244879"/>
  </g>
</svg>
