<svg xmlns="http://www.w3.org/2000/svg" width="22" height="22" viewBox="0 0 22 22">
  <g fill="none" fill-rule="evenodd" stroke="#414141" stroke-linecap="round" stroke-linejoin="round" transform="translate(1 1)">
    <path d="M3.81031719 10.0286473C3.81031719 6.59475529 6.59388579 3.81087226 10.0273899 3.81087226 13.460894 3.81087226 16.2444626 6.59475529 16.2444626 10.0286473 16.2444626 13.4625393 13.460894 16.2464223 10.0273899 16.2464223 6.59388579 16.2464223 3.81031719 13.4625393 3.81031719 10.0286473zM10.0271407 3.81080994L10.0271407-.000124642178M14.4232099 5.63208143L17.1176694 2.93731756M16.244525 10.0286473L20.054406 10.0286473M14.4232099 14.4252131L17.1176694 17.119977M10.0271407 16.2461107L10.0271407 20.0570453M5.6310714 14.4252131L2.93723504 17.119977M3.81031719 10.0286473L.000436198347 10.0286473M5.6310714 5.63208143L2.93723504 2.93731756"/>
  </g>
</svg>
