<svg xmlns="http://www.w3.org/2000/svg" width="412.5" viewBox="0 0 412.5 240" height="240" version="1.0"><defs><clipPath id="a"><path d="M 103 30 L 119 30 L 119 72 L 103 72 Z M 103 30"/></clipPath><clipPath id="b"><path d="M 20.429688 65.84375 L 157.09375 13.765625 L 212.378906 158.839844 L 75.714844 210.917969 Z M 20.429688 65.84375"/></clipPath><clipPath id="c"><path d="M 20.429688 65.84375 L 157.09375 13.765625 L 212.378906 158.839844 L 75.714844 210.917969 Z M 20.429688 65.84375"/></clipPath><clipPath id="d"><path d="M 126 40 L 168 40 L 168 67 L 126 67 Z M 126 40"/></clipPath><clipPath id="e"><path d="M 20.429688 65.84375 L 157.09375 13.765625 L 212.378906 158.839844 L 75.714844 210.917969 Z M 20.429688 65.84375"/></clipPath><clipPath id="f"><path d="M 20.429688 65.84375 L 157.09375 13.765625 L 212.378906 158.839844 L 75.714844 210.917969 Z M 20.429688 65.84375"/></clipPath><clipPath id="g"><path d="M 111 74 L 159 74 L 159 93 L 111 93 Z M 111 74"/></clipPath><clipPath id="h"><path d="M 20.429688 65.84375 L 157.09375 13.765625 L 212.378906 158.839844 L 75.714844 210.917969 Z M 20.429688 65.84375"/></clipPath><clipPath id="i"><path d="M 20.429688 65.84375 L 157.09375 13.765625 L 212.378906 158.839844 L 75.714844 210.917969 Z M 20.429688 65.84375"/></clipPath><clipPath id="j"><path d="M 102 94 L 144 94 L 144 112 L 102 112 Z M 102 94"/></clipPath><clipPath id="k"><path d="M 20.429688 65.84375 L 157.09375 13.765625 L 212.378906 158.839844 L 75.714844 210.917969 Z M 20.429688 65.84375"/></clipPath><clipPath id="l"><path d="M 20.429688 65.84375 L 157.09375 13.765625 L 212.378906 158.839844 L 75.714844 210.917969 Z M 20.429688 65.84375"/></clipPath><clipPath id="m"><path d="M 96 116 L 142 116 L 142 134 L 96 134 Z M 96 116"/></clipPath><clipPath id="n"><path d="M 20.429688 65.84375 L 157.09375 13.765625 L 212.378906 158.839844 L 75.714844 210.917969 Z M 20.429688 65.84375"/></clipPath><clipPath id="o"><path d="M 20.429688 65.84375 L 157.09375 13.765625 L 212.378906 158.839844 L 75.714844 210.917969 Z M 20.429688 65.84375"/></clipPath><clipPath id="p"><path d="M 88 134 L 133 134 L 133 157 L 88 157 Z M 88 134"/></clipPath><clipPath id="q"><path d="M 20.429688 65.84375 L 157.09375 13.765625 L 212.378906 158.839844 L 75.714844 210.917969 Z M 20.429688 65.84375"/></clipPath><clipPath id="r"><path d="M 20.429688 65.84375 L 157.09375 13.765625 L 212.378906 158.839844 L 75.714844 210.917969 Z M 20.429688 65.84375"/></clipPath><clipPath id="s"><path d="M 75 47 L 103 47 L 103 86 L 75 86 Z M 75 47"/></clipPath><clipPath id="t"><path d="M 20.429688 65.84375 L 157.09375 13.765625 L 212.378906 158.839844 L 75.714844 210.917969 Z M 20.429688 65.84375"/></clipPath><clipPath id="u"><path d="M 20.429688 65.84375 L 157.09375 13.765625 L 212.378906 158.839844 L 75.714844 210.917969 Z M 20.429688 65.84375"/></clipPath><clipPath id="v"><path d="M 57 68 L 90 68 L 90 105 L 57 105 Z M 57 68"/></clipPath><clipPath id="w"><path d="M 20.429688 65.84375 L 157.09375 13.765625 L 212.378906 158.839844 L 75.714844 210.917969 Z M 20.429688 65.84375"/></clipPath><clipPath id="x"><path d="M 20.429688 65.84375 L 157.09375 13.765625 L 212.378906 158.839844 L 75.714844 210.917969 Z M 20.429688 65.84375"/></clipPath><clipPath id="y"><path d="M 45 93 L 79 93 L 79 127 L 45 127 Z M 45 93"/></clipPath><clipPath id="z"><path d="M 20.429688 65.84375 L 157.09375 13.765625 L 212.378906 158.839844 L 75.714844 210.917969 Z M 20.429688 65.84375"/></clipPath><clipPath id="A"><path d="M 20.429688 65.84375 L 157.09375 13.765625 L 212.378906 158.839844 L 75.714844 210.917969 Z M 20.429688 65.84375"/></clipPath><clipPath id="B"><path d="M 39 115 L 72 115 L 72 154 L 39 154 Z M 39 115"/></clipPath><clipPath id="C"><path d="M 20.429688 65.84375 L 157.09375 13.765625 L 212.378906 158.839844 L 75.714844 210.917969 Z M 20.429688 65.84375"/></clipPath><clipPath id="D"><path d="M 20.429688 65.84375 L 157.09375 13.765625 L 212.378906 158.839844 L 75.714844 210.917969 Z M 20.429688 65.84375"/></clipPath><clipPath id="E"><path d="M 77 42 L 163 42 L 163 209 L 77 209 Z M 77 42"/></clipPath><clipPath id="F"><path d="M 20.429688 65.84375 L 157.09375 13.765625 L 212.378906 158.839844 L 75.714844 210.917969 Z M 20.429688 65.84375"/></clipPath><clipPath id="G"><path d="M 20.429688 65.84375 L 157.09375 13.765625 L 212.378906 158.839844 L 75.714844 210.917969 Z M 20.429688 65.84375"/></clipPath><clipPath id="H"><path d="M 109 40 L 112 40 L 112 82 L 109 82 Z M 109 40"/></clipPath><clipPath id="I"><path d="M 20.429688 65.84375 L 157.09375 13.765625 L 212.378906 158.839844 L 75.714844 210.917969 Z M 20.429688 65.84375"/></clipPath><clipPath id="J"><path d="M 20.429688 65.84375 L 157.09375 13.765625 L 212.378906 158.839844 L 75.714844 210.917969 Z M 20.429688 65.84375"/></clipPath><clipPath id="K"><path d="M 81 54 L 104 54 L 104 93 L 81 93 Z M 81 54"/></clipPath><clipPath id="L"><path d="M 20.429688 65.84375 L 157.09375 13.765625 L 212.378906 158.839844 L 75.714844 210.917969 Z M 20.429688 65.84375"/></clipPath><clipPath id="M"><path d="M 20.429688 65.84375 L 157.09375 13.765625 L 212.378906 158.839844 L 75.714844 210.917969 Z M 20.429688 65.84375"/></clipPath><clipPath id="N"><path d="M 63 76 L 93 76 L 93 115 L 63 115 Z M 63 76"/></clipPath><clipPath id="O"><path d="M 20.429688 65.84375 L 157.09375 13.765625 L 212.378906 158.839844 L 75.714844 210.917969 Z M 20.429688 65.84375"/></clipPath><clipPath id="P"><path d="M 20.429688 65.84375 L 157.09375 13.765625 L 212.378906 158.839844 L 75.714844 210.917969 Z M 20.429688 65.84375"/></clipPath><clipPath id="Q"><path d="M 51 98 L 85 98 L 85 137 L 51 137 Z M 51 98"/></clipPath><clipPath id="R"><path d="M 20.429688 65.84375 L 157.09375 13.765625 L 212.378906 158.839844 L 75.714844 210.917969 Z M 20.429688 65.84375"/></clipPath><clipPath id="S"><path d="M 20.429688 65.84375 L 157.09375 13.765625 L 212.378906 158.839844 L 75.714844 210.917969 Z M 20.429688 65.84375"/></clipPath><clipPath id="T"><path d="M 46 121 L 80 121 L 80 164 L 46 164 Z M 46 121"/></clipPath><clipPath id="U"><path d="M 20.429688 65.84375 L 157.09375 13.765625 L 212.378906 158.839844 L 75.714844 210.917969 Z M 20.429688 65.84375"/></clipPath><clipPath id="V"><path d="M 20.429688 65.84375 L 157.09375 13.765625 L 212.378906 158.839844 L 75.714844 210.917969 Z M 20.429688 65.84375"/></clipPath><clipPath id="W"><path d="M 78 136 L 125 136 L 125 161 L 78 161 Z M 78 136"/></clipPath><clipPath id="X"><path d="M 20.429688 65.84375 L 157.09375 13.765625 L 212.378906 158.839844 L 75.714844 210.917969 Z M 20.429688 65.84375"/></clipPath><clipPath id="Y"><path d="M 20.429688 65.84375 L 157.09375 13.765625 L 212.378906 158.839844 L 75.714844 210.917969 Z M 20.429688 65.84375"/></clipPath><clipPath id="Z"><path d="M 84 123 L 133 123 L 133 133 L 84 133 Z M 84 123"/></clipPath><clipPath id="aa"><path d="M 20.429688 65.84375 L 157.09375 13.765625 L 212.378906 158.839844 L 75.714844 210.917969 Z M 20.429688 65.84375"/></clipPath><clipPath id="ab"><path d="M 20.429688 65.84375 L 157.09375 13.765625 L 212.378906 158.839844 L 75.714844 210.917969 Z M 20.429688 65.84375"/></clipPath><clipPath id="ac"><path d="M 93 99 L 139 99 L 139 111 L 93 111 Z M 93 99"/></clipPath><clipPath id="ad"><path d="M 20.429688 65.84375 L 157.09375 13.765625 L 212.378906 158.839844 L 75.714844 210.917969 Z M 20.429688 65.84375"/></clipPath><clipPath id="ae"><path d="M 20.429688 65.84375 L 157.09375 13.765625 L 212.378906 158.839844 L 75.714844 210.917969 Z M 20.429688 65.84375"/></clipPath><clipPath id="af"><path d="M 104 78 L 153 78 L 153 91 L 104 91 Z M 104 78"/></clipPath><clipPath id="ag"><path d="M 20.429688 65.84375 L 157.09375 13.765625 L 212.378906 158.839844 L 75.714844 210.917969 Z M 20.429688 65.84375"/></clipPath><clipPath id="ah"><path d="M 20.429688 65.84375 L 157.09375 13.765625 L 212.378906 158.839844 L 75.714844 210.917969 Z M 20.429688 65.84375"/></clipPath></defs><g clip-path="url(#a)"><g clip-path="url(#b)"><g clip-path="url(#c)"><path fill="#FAFAFA" d="M 113.578125 30.355469 C 113.578125 30.355469 117.136719 41.875 118.414062 55.089844 C 119.691406 68.300781 112.683594 71.75 109.496094 71.859375 C 106.308594 71.972656 95.203125 60.960938 113.578125 30.355469"/></g></g></g><g clip-path="url(#d)"><g clip-path="url(#e)"><g clip-path="url(#f)"><path fill="#FAFAFA" d="M 167.085938 40.171875 C 167.085938 40.171875 155.746094 39.28125 141.277344 45.769531 C 126.808594 52.257812 125.066406 61.003906 128.324219 64.851562 C 131.578125 68.699219 147.679688 64.949219 167.085938 40.171875"/></g></g></g><g clip-path="url(#g)"><g clip-path="url(#h)"><g clip-path="url(#i)"><path fill="#FAFAFA" d="M 158.519531 78.304688 C 158.519531 78.304688 148.007812 71.828125 130.449219 75.21875 C 112.894531 78.609375 111.324219 84.953125 112.0625 87.636719 C 113.203125 91.769531 121.945312 98.53125 158.519531 78.304688"/></g></g></g><g clip-path="url(#j)"><g clip-path="url(#k)"><g clip-path="url(#l)"><path fill="#FAFAFA" d="M 143.414062 98.929688 C 143.414062 98.929688 134.601562 93.449219 121.617188 95.246094 C 105.660156 97.453125 102.394531 103.953125 102.757812 106.714844 C 103.296875 110.851562 106.84375 119.15625 143.414062 98.929688"/></g></g></g><g clip-path="url(#m)"><g clip-path="url(#n)"><g clip-path="url(#o)"><path fill="#FAFAFA" d="M 141.988281 124.386719 C 141.988281 124.386719 128.5 115.585938 114.917969 116.363281 C 98.835938 117.285156 95.695312 125.074219 96.054688 127.832031 C 96.5 131.234375 101.929688 136.375 119.921875 130.144531 C 124.75 128.476562 134.90625 125.417969 141.988281 124.386719"/></g></g></g><g clip-path="url(#p)"><g clip-path="url(#q)"><g clip-path="url(#r)"><path fill="#FAFAFA" d="M 132.46875 135.695312 C 132.46875 135.695312 118.011719 131.703125 103 137.054688 C 87.828125 142.460938 87.375 151.234375 88.566406 153.75 C 90.035156 156.851562 96.78125 160.078125 112 148.632812 C 116.078125 145.5625 126.042969 138.84375 132.46875 135.695312"/></g></g></g><g clip-path="url(#s)"><g clip-path="url(#t)"><g clip-path="url(#u)"><path fill="#FAFAFA" d="M 75.179688 47.910156 C 75.179688 47.910156 85.890625 50.367188 95.703125 64.25 C 105.515625 78.132812 102.953125 83.527344 100.933594 84.886719 C 97.820312 86.976562 88.128906 85.875 75.179688 47.910156"/></g></g></g><g clip-path="url(#v)"><g clip-path="url(#w)"><g clip-path="url(#x)"><path fill="#FAFAFA" d="M 57.71875 68.957031 C 57.71875 68.957031 72.296875 73.847656 81.722656 83.273438 C 93.105469 94.65625 89.371094 101.828125 87.25 103.636719 C 84.070312 106.339844 71.261719 108.457031 57.71875 68.957031"/></g></g></g><g clip-path="url(#y)"><g clip-path="url(#z)"><g clip-path="url(#A)"><path fill="#FAFAFA" d="M 45.230469 93.167969 C 45.230469 93.167969 61.402344 96.871094 70.695312 105.355469 C 82.582031 116.207031 78.023438 123.164062 75.902344 124.972656 C 73.289062 127.195312 65.585938 129.339844 56.425781 112.664062 C 53.964844 108.191406 49.789062 98.675781 45.230469 93.167969"/></g></g></g><g clip-path="url(#B)"><g clip-path="url(#C)"><g clip-path="url(#D)"><path fill="#FAFAFA" d="M 39.410156 115.363281 C 39.410156 115.363281 54.019531 118.75 64.648438 130.613281 C 75.382812 142.605469 71.585938 150.527344 69.332031 152.167969 C 66.558594 154.191406 59.085938 153.808594 51.199219 136.492188 C 49.085938 131.851562 43.546875 121.195312 39.410156 115.363281"/></g></g></g><g clip-path="url(#E)"><g clip-path="url(#F)"><g clip-path="url(#G)"><path fill="#FAFAFA" d="M 80.628906 208.90625 C 80.097656 206.847656 79.707031 204.8125 79.347656 202.753906 C 78.996094 200.695312 78.695312 198.632812 78.457031 196.558594 C 77.953125 192.421875 77.667969 188.261719 77.53125 184.097656 C 77.402344 179.9375 77.449219 175.769531 77.652344 171.609375 C 77.859375 167.453125 78.226562 163.300781 78.777344 159.175781 C 79.859375 150.917969 81.59375 142.75 83.984375 134.777344 L 84.425781 133.28125 C 84.578125 132.78125 84.746094 132.289062 84.90625 131.796875 L 85.878906 128.832031 L 86.933594 125.894531 L 87.464844 124.425781 C 87.644531 123.941406 87.84375 123.460938 88.035156 122.976562 L 89.179688 120.074219 C 89.574219 119.109375 89.992188 118.160156 90.398438 117.203125 L 91.007812 115.765625 L 91.652344 114.347656 C 92.082031 113.402344 92.5 112.449219 92.945312 111.511719 C 96.488281 103.988281 100.5 96.675781 105.179688 89.792969 C 109.832031 82.902344 115.117188 76.425781 121.03125 70.582031 C 126.933594 64.722656 133.445312 59.488281 140.355469 54.878906 C 147.261719 50.253906 154.558594 46.242188 162.015625 42.597656 C 154.582031 46.289062 147.3125 50.347656 140.441406 55.007812 C 133.566406 59.65625 127.101562 64.921875 121.253906 70.800781 C 115.390625 76.671875 110.160156 83.15625 105.566406 90.054688 C 100.949219 96.941406 96.992188 104.253906 93.511719 111.773438 C 90.070312 119.3125 87.011719 127.035156 84.742188 135 C 82.417969 142.949219 80.75 151.082031 79.730469 159.292969 C 79.210938 163.398438 78.875 167.523438 78.699219 171.65625 C 78.523438 175.789062 78.507812 179.929688 78.664062 184.058594 C 78.824219 188.1875 79.136719 192.316406 79.664062 196.414062 C 79.917969 198.460938 80.230469 200.503906 80.589844 202.535156 C 80.957031 204.558594 81.367188 206.597656 81.886719 208.558594 L 80.628906 208.90625"/></g></g></g><g clip-path="url(#H)"><g clip-path="url(#I)"><g clip-path="url(#J)"><path fill="#FAFAFA" d="M 110.9375 40.710938 C 110.550781 44.089844 110.289062 47.484375 110.082031 50.878906 C 109.882812 54.273438 109.761719 57.675781 109.773438 61.070312 C 109.78125 64.46875 109.863281 67.871094 110.195312 71.246094 C 110.523438 74.617188 111 77.988281 111.964844 81.222656 L 111.339844 81.40625 C 110.40625 78.09375 109.984375 74.6875 109.707031 71.289062 C 109.429688 67.886719 109.402344 64.476562 109.445312 61.070312 C 109.492188 57.664062 109.667969 54.261719 109.921875 50.867188 C 110.179688 47.472656 110.496094 44.085938 110.9375 40.710938"/></g></g></g><g clip-path="url(#K)"><g clip-path="url(#L)"><g clip-path="url(#M)"><path fill="#FAFAFA" d="M 81.261719 54.710938 C 83.554688 57.605469 85.746094 60.582031 87.886719 63.601562 C 90.011719 66.621094 92.089844 69.683594 94.039062 72.828125 C 95.984375 75.972656 97.886719 79.152344 99.550781 82.464844 C 101.21875 85.769531 102.753906 89.15625 103.851562 92.722656 L 103.226562 92.90625 C 102.195312 89.382812 100.722656 85.992188 99.113281 82.683594 C 97.503906 79.363281 95.65625 76.164062 93.761719 73 C 91.859375 69.832031 89.832031 66.742188 87.75 63.695312 C 85.660156 60.648438 83.511719 57.640625 81.261719 54.710938"/></g></g></g><g clip-path="url(#N)"><g clip-path="url(#O)"><g clip-path="url(#P)"><path fill="#FAFAFA" d="M 63.46875 76.214844 C 66.453125 78.835938 69.273438 81.640625 71.992188 84.542969 C 74.710938 87.445312 77.292969 90.472656 79.753906 93.597656 C 81.007812 95.144531 82.171875 96.757812 83.355469 98.359375 C 83.933594 99.167969 84.488281 99.996094 85.054688 100.816406 L 85.902344 102.042969 L 86.707031 103.304688 L 88.308594 105.828125 L 89.808594 108.410156 L 90.558594 109.707031 L 91.25 111.03125 L 92.636719 113.683594 L 91.757812 114.109375 L 89.777344 110.125 L 89.0625 108.828125 L 87.625 106.230469 L 86.085938 103.691406 L 85.3125 102.425781 L 84.496094 101.1875 C 83.949219 100.363281 83.414062 99.527344 82.855469 98.710938 C 81.707031 97.09375 80.582031 95.464844 79.371094 93.894531 C 76.976562 90.734375 74.46875 87.660156 71.8125 84.710938 C 69.160156 81.757812 66.398438 78.894531 63.46875 76.214844"/></g></g></g><g clip-path="url(#Q)"><g clip-path="url(#R)"><g clip-path="url(#S)"><path fill="#FAFAFA" d="M 51.859375 98.175781 C 55.070312 100.84375 58.15625 103.664062 61.164062 106.5625 C 64.164062 109.472656 67.066406 112.480469 69.859375 115.59375 C 72.636719 118.722656 75.277344 121.96875 77.765625 125.339844 C 80.203125 128.746094 82.457031 132.292969 84.394531 136.035156 L 83.515625 136.464844 C 81.679688 132.75 79.519531 129.195312 77.167969 125.765625 C 74.761719 122.371094 72.195312 119.085938 69.492188 115.914062 C 66.765625 112.757812 63.929688 109.699219 60.992188 106.738281 C 58.046875 103.785156 55.019531 100.90625 51.859375 98.175781"/></g></g></g><g clip-path="url(#T)"><g clip-path="url(#U)"><g clip-path="url(#V)"><path fill="#FAFAFA" d="M 46.660156 121.222656 C 49.851562 124.316406 52.90625 127.558594 55.871094 130.875 C 58.835938 134.195312 61.691406 137.613281 64.441406 141.113281 C 67.210938 144.605469 69.824219 148.214844 72.324219 151.90625 L 74.179688 154.691406 L 75.945312 157.53125 L 76.828125 158.957031 L 77.664062 160.40625 L 79.328125 163.316406 L 78.175781 163.929688 L 76.597656 161.007812 L 75.804688 159.550781 L 74.964844 158.117188 L 73.28125 155.253906 L 71.507812 152.445312 C 69.113281 148.710938 66.59375 145.054688 63.925781 141.511719 C 61.265625 137.953125 58.503906 134.476562 55.625 131.089844 C 52.746094 127.703125 49.777344 124.394531 46.660156 121.222656"/></g></g></g><g clip-path="url(#W)"><g clip-path="url(#X)"><g clip-path="url(#Y)"><path fill="#FAFAFA" d="M 124.316406 136.789062 C 120.273438 138.203125 116.292969 139.777344 112.351562 141.449219 C 108.417969 143.128906 104.523438 144.914062 100.714844 146.851562 C 98.808594 147.820312 96.921875 148.820312 95.066406 149.875 C 93.207031 150.925781 91.375 152.019531 89.585938 153.175781 C 86.003906 155.476562 82.574219 158.023438 79.542969 160.960938 L 78.640625 160.019531 C 81.84375 157.070312 85.390625 154.582031 89.066406 152.347656 C 90.902344 151.222656 92.777344 150.171875 94.675781 149.164062 C 96.570312 148.148438 98.492188 147.191406 100.429688 146.265625 C 104.300781 144.417969 108.246094 142.730469 112.226562 141.148438 C 116.214844 139.574219 120.238281 138.101562 124.316406 136.789062"/></g></g></g><g clip-path="url(#Z)"><g clip-path="url(#aa)"><g clip-path="url(#ab)"><path fill="#FAFAFA" d="M 132.488281 123.480469 C 128.410156 123.214844 124.320312 123.257812 120.246094 123.472656 C 116.171875 123.691406 112.113281 124.136719 108.097656 124.824219 C 104.082031 125.527344 100.117188 126.488281 96.269531 127.800781 C 94.351562 128.460938 92.46875 129.226562 90.628906 130.066406 C 88.796875 130.933594 87.019531 131.90625 85.3125 132.980469 L 84.792969 132.152344 C 86.5625 131.089844 88.394531 130.132812 90.273438 129.289062 C 92.164062 128.46875 94.085938 127.734375 96.042969 127.105469 C 99.957031 125.855469 103.96875 124.96875 108.019531 124.34375 C 112.070312 123.730469 116.148438 123.367188 120.238281 123.226562 C 124.324219 123.09375 128.417969 123.136719 132.488281 123.480469"/></g></g></g><g clip-path="url(#ac)"><g clip-path="url(#ad)"><g clip-path="url(#ae)"><path fill="#FAFAFA" d="M 138.042969 99.179688 C 134.246094 99.558594 130.472656 100.097656 126.710938 100.71875 C 122.953125 101.355469 119.210938 102.078125 115.503906 102.957031 C 111.804688 103.847656 108.125 104.835938 104.519531 106.058594 C 100.925781 107.296875 97.394531 108.722656 94.046875 110.5 L 93.738281 109.925781 C 97.15625 108.171875 100.734375 106.789062 104.367188 105.59375 C 108.003906 104.417969 111.710938 103.480469 115.433594 102.636719 C 119.160156 101.8125 122.917969 101.140625 126.6875 100.558594 C 130.460938 99.988281 134.242188 99.503906 138.042969 99.179688"/></g></g></g><g clip-path="url(#af)"><g clip-path="url(#ag)"><g clip-path="url(#ah)"><path fill="#FAFAFA" d="M 152.160156 78.507812 C 148.132812 78.988281 144.121094 79.609375 140.125 80.296875 C 136.128906 80.992188 132.144531 81.765625 128.199219 82.6875 C 124.253906 83.613281 120.320312 84.609375 116.472656 85.875 C 112.632812 87.132812 108.824219 88.554688 105.269531 90.449219 L 104.960938 89.871094 C 108.601562 87.996094 112.449219 86.625 116.328125 85.410156 C 120.207031 84.1875 124.164062 83.246094 128.128906 82.371094 C 132.09375 81.5 136.089844 80.777344 140.097656 80.136719 C 144.105469 79.5 148.125 78.9375 152.160156 78.507812"/></g></g></g><g fill="#FAFAFA"><g><g><path d="M 16.269531 -49.28125 C 16.425781 -47.527344 17.226562 -46.410156 18.339844 -46.25 C 19.296875 -47.046875 30.621094 -56.457031 31.738281 -57.097656 C 34.929688 -59.167969 37.320312 -61.082031 41.308594 -62.519531 C 42.421875 -63.15625 44.816406 -63.476562 46.25 -63.796875 C 48.644531 -64.273438 51.035156 -64.75 53.585938 -64.59375 C 55.34375 -64.433594 56.9375 -63.953125 58.691406 -63.316406 C 66.1875 -60.765625 70.015625 -56.617188 72.886719 -51.515625 C 76.871094 -43.859375 79.742188 -38.277344 77.988281 -24.402344 C 77.191406 -20.253906 75.917969 -16.269531 74.640625 -12.757812 C 72.566406 -7.335938 66.984375 1.277344 61.082031 7.175781 C 53.746094 14.511719 44.496094 19.617188 33.492188 19.457031 C 27.75 19.296875 22.328125 17.703125 18.980469 12.28125 C 17.066406 9.25 16.109375 5.742188 15.789062 2.390625 C 15.3125 -2.550781 15.789062 -6.699219 16.90625 -11.644531 C 18.5 -17.382812 20.894531 -22.488281 23.761719 -27.433594 C 25.835938 -30.941406 28.230469 -34.128906 30.460938 -37.160156 C 37.320312 -45.136719 41.464844 -47.847656 48.003906 -49.121094 C 48.324219 -49.441406 49.917969 -48.960938 50.71875 -49.28125 C 51.832031 -49.601562 53.109375 -49.601562 54.386719 -48.644531 L 55.660156 -48.164062 C 56.140625 -48.324219 56.777344 -48.324219 57.097656 -48.644531 C 57.414062 -48.804688 57.414062 -49.441406 57.257812 -50.078125 C 56.457031 -51.675781 55.183594 -52.789062 53.269531 -53.429688 C 45.773438 -55.023438 41.464844 -53.585938 34.289062 -49.441406 C 32.214844 -48.003906 31.101562 -47.207031 30.144531 -46.410156 C 27.589844 -44.179688 25.675781 -42.421875 23.921875 -40.191406 C 17.863281 -32.695312 13.078125 -24.5625 10.367188 -16.90625 C 9.410156 -14.355469 8.773438 -11.003906 8.292969 -8.292969 C 7.496094 -2.234375 8.132812 3.191406 10.367188 9.089844 C 12.757812 16.109375 19.136719 21.851562 25.359375 23.445312 C 33.972656 25.675781 41.464844 24.71875 46.410156 22.964844 C 55.183594 19.9375 60.125 15.628906 64.910156 11.164062 C 67.621094 8.613281 70.972656 4.625 72.886719 1.753906 C 77.351562 -4.945312 81.5 -13.554688 82.933594 -21.371094 C 84.210938 -28.390625 84.527344 -32.695312 83.730469 -38.4375 C 82.613281 -46.25 79.105469 -53.109375 73.84375 -59.167969 C 71.609375 -62.199219 68.738281 -64.433594 65.230469 -66.027344 C 57.414062 -69.855469 49.441406 -69.535156 41.148438 -67.941406 C 40.191406 -67.78125 39.394531 -67.464844 38.4375 -67.304688 L 30.941406 -63.953125 C 30.144531 -63.636719 29.664062 -63.476562 29.34375 -62.839844 C 26.953125 -61.242188 25.519531 -60.605469 22.964844 -58.371094 C 22.488281 -57.574219 21.851562 -56.617188 21.210938 -55.980469 C 19.617188 -54.226562 17.542969 -52.632812 16.269531 -49.28125 Z M 16.269531 -49.28125" transform="translate(142.671 165.573)"/></g></g></g><g fill="#FAFAFA"><g><g><path d="M 60.445312 -21.210938 L 59.808594 -22.648438 L 59.328125 -22.964844 C 57.734375 -22.007812 56.457031 -21.210938 55.34375 -20.253906 C 51.675781 -17.863281 51.992188 -18.179688 48.164062 -15.789062 C 45.933594 -14.195312 43.539062 -12.757812 41.464844 -11.484375 C 39.234375 -9.886719 36.683594 -7.972656 34.128906 -6.859375 C 33.492188 -6.539062 32.855469 -6.539062 32.375 -6.378906 C 31.898438 -6.21875 31.578125 -6.21875 31.257812 -6.378906 C 30.460938 -6.859375 29.984375 -7.496094 29.824219 -8.132812 C 28.867188 -10.367188 28.867188 -12.757812 29.34375 -14.992188 C 29.503906 -15.3125 29.503906 -15.628906 29.664062 -15.789062 C 30.144531 -17.066406 29.984375 -18.820312 29.984375 -18.820312 C 29.664062 -19.9375 29.027344 -20.734375 28.070312 -21.050781 C 26.15625 -21.210938 25.039062 -19.9375 23.761719 -19.777344 C 24.5625 -21.371094 25.835938 -22.808594 25.359375 -25.039062 C 24.71875 -28.707031 20.894531 -29.34375 17.542969 -29.984375 C 14.511719 -29.664062 11.800781 -27.75 9.886719 -25.675781 C 7.972656 -23.285156 5.902344 -21.371094 4.148438 -18.660156 C 3.828125 -18.339844 3.507812 -17.542969 2.871094 -16.746094 L 1.753906 -14.832031 C 1.433594 -13.714844 0.957031 -12.917969 0.796875 -11.960938 C 0.796875 -11.800781 0.796875 -11.800781 0.636719 -11.644531 C 0.320312 -10.6875 0 -9.886719 -0.476562 -8.773438 C -1.117188 -6.378906 -0.636719 -4.304688 0.796875 -2.390625 C 1.753906 -1.914062 3.03125 -1.117188 3.347656 -0.796875 C 3.828125 -0.636719 4.304688 -0.636719 4.625 -0.636719 C 7.015625 0.320312 9.730469 0.320312 12.28125 -0.957031 C 14.832031 -2.074219 17.382812 -4.148438 19.296875 -5.582031 C 19.617188 -5.742188 19.777344 -6.21875 20.09375 -6.539062 C 21.210938 -6.539062 21.210938 -8.132812 22.328125 -8.773438 C 22.488281 -8.453125 22.488281 -8.132812 22.808594 -7.972656 C 23.285156 -7.175781 23.125 -6.859375 24.082031 -5.902344 C 24.71875 -4.464844 25.835938 -3.828125 26.792969 -2.550781 C 27.273438 -2.390625 27.589844 -1.753906 28.070312 -1.59375 C 28.390625 -1.277344 29.34375 -1.277344 29.664062 -1.117188 C 30.300781 -0.957031 31.738281 -1.277344 32.375 -1.277344 C 32.855469 -1.277344 33.652344 -1.59375 33.8125 -1.59375 C 34.289062 -1.59375 35.085938 -1.914062 35.40625 -2.074219 C 36.203125 -2.550781 36.683594 -2.390625 37.640625 -2.871094 C 39.234375 -3.988281 40.667969 -4.304688 41.945312 -5.742188 L 45.773438 -8.613281 L 48.164062 -10.6875 C 48.644531 -10.84375 49.761719 -12.121094 49.917969 -12.28125 C 50.71875 -12.597656 51.355469 -13.398438 51.832031 -13.875 C 52.3125 -14.195312 53.429688 -14.671875 54.226562 -15.3125 C 56.300781 -16.746094 58.851562 -18.820312 60.445312 -21.210938 Z M 21.53125 -16.746094 C 19.136719 -14.195312 18.023438 -12.28125 15.628906 -9.730469 C 14.035156 -7.972656 12.597656 -6.859375 10.527344 -6.058594 C 8.929688 -5.421875 6.058594 -5.261719 4.304688 -5.261719 C 5.105469 -8.453125 6.539062 -11.164062 7.972656 -13.714844 C 9.730469 -16.746094 15.3125 -24.242188 20.09375 -25.039062 C 19.9375 -24.878906 18.660156 -17.863281 22.167969 -17.542969 L 22.328125 -17.542969 C 22.328125 -17.542969 21.691406 -16.746094 21.53125 -16.746094 Z M 21.53125 -16.746094" transform="translate(228.63 165.573)"/></g></g></g><g fill="#FAFAFA"><g><g><path d="M 27.910156 -31.417969 C 27.433594 -31.738281 26.632812 -32.535156 23.445312 -32.535156 C 21.53125 -32.535156 20.734375 -32.058594 19.296875 -31.738281 L 17.863281 -30.941406 C 16.746094 -30.460938 16.746094 -30.460938 15.949219 -29.824219 C 15.46875 -28.867188 14.671875 -27.910156 14.035156 -27.113281 C 13.238281 -26.15625 13.554688 -24.71875 13.398438 -23.605469 C 12.757812 -22.964844 12.917969 -21.050781 12.917969 -20.414062 L 13.554688 -19.136719 C 13.398438 -18.339844 13.714844 -17.703125 14.035156 -17.066406 C 14.832031 -15.628906 14.992188 -14.671875 15.628906 -12.757812 L 15.789062 -12.121094 L 16.109375 -11.324219 L 16.746094 -10.367188 L 17.703125 -8.453125 L 18.023438 -7.972656 L 20.253906 -2.234375 C 21.210938 0.160156 21.53125 1.277344 21.371094 3.347656 C 21.53125 4.625 21.53125 6.058594 21.210938 7.496094 C 21.050781 8.453125 20.734375 9.570312 19.9375 10.6875 C 18.660156 12.441406 17.703125 12.917969 14.671875 13.398438 C 13.714844 13.554688 12.441406 13.238281 11.644531 12.757812 C 10.367188 11.484375 9.410156 10.84375 9.410156 9.410156 C 9.570312 9.089844 9.089844 8.613281 8.773438 8.292969 C 8.132812 7.175781 7.972656 5.742188 8.292969 3.03125 L 9.25 0.796875 L 11.164062 -1.277344 L 11.003906 -2.710938 L 10.6875 -3.03125 L 10.6875 -3.191406 C 9.25 -2.550781 9.089844 -2.710938 7.816406 -1.753906 C 6.378906 -0.796875 4.785156 0.636719 3.667969 2.074219 L 3.507812 4.945312 C 3.507812 4.945312 3.191406 4.945312 3.191406 5.261719 L 3.191406 5.421875 C 3.191406 7.015625 3.667969 8.773438 4.464844 9.886719 C 5.105469 10.6875 5.742188 11.960938 6.859375 12.917969 C 7.496094 13.875 8.773438 15.152344 10.207031 16.109375 C 10.84375 17.066406 12.121094 17.066406 12.441406 17.382812 C 13.238281 17.703125 14.511719 17.703125 15.789062 18.023438 C 17.226562 18.179688 18.339844 18.339844 19.296875 18.023438 L 20.894531 17.542969 C 20.734375 17.226562 20.574219 17.226562 20.574219 17.066406 C 21.050781 17.066406 21.53125 17.066406 22.007812 16.90625 C 22.964844 16.585938 24.5625 15.152344 25.675781 13.554688 C 26.792969 12.597656 27.113281 11.003906 27.113281 10.84375 C 27.273438 9.886719 28.390625 8.613281 27.75 7.972656 C 28.070312 7.175781 27.910156 6.859375 27.75 6.378906 C 28.070312 3.988281 28.230469 2.871094 27.75 0.476562 C 27.75 0.160156 27.273438 0 27.273438 -0.320312 C 27.589844 -0.957031 27.273438 -1.117188 26.953125 -1.433594 C 26.792969 -1.914062 26.476562 -2.390625 26.476562 -3.191406 L 25.996094 -4.785156 C 25.519531 -6.21875 25.199219 -6.378906 24.878906 -7.816406 C 24.878906 -8.292969 23.921875 -8.929688 24.082031 -9.410156 C 23.921875 -9.730469 23.445312 -9.886719 23.605469 -10.207031 L 22.808594 -10.84375 L 22.328125 -12.28125 L 22.007812 -13.078125 L 21.371094 -14.195312 L 21.371094 -15.152344 C 21.050781 -15.3125 21.050781 -15.46875 21.050781 -15.949219 C 21.050781 -16.425781 20.574219 -16.90625 20.574219 -17.542969 C 20.09375 -18.820312 19.617188 -19.777344 19.777344 -21.371094 C 19.296875 -22.648438 19.296875 -23.921875 19.777344 -24.878906 C 19.9375 -25.675781 20.574219 -26.15625 21.050781 -26.476562 C 21.371094 -26.953125 21.851562 -27.273438 22.167969 -27.433594 C 22.808594 -27.910156 22.808594 -27.589844 24.242188 -28.070312 L 25.996094 -28.070312 C 27.910156 -27.589844 29.503906 -27.113281 29.984375 -26.316406 L 30.460938 -26.316406 L 30.460938 -26.476562 L 31.257812 -26.476562 L 31.417969 -26.15625 L 31.738281 -25.996094 C 31.738281 -26.632812 31.898438 -28.867188 27.910156 -31.417969 Z M 27.910156 -31.417969" transform="translate(275.517 165.573)"/></g></g></g><g fill="#FAFAFA"><g><g><path d="M 13.238281 -34.929688 C 14.195312 -34.289062 15.152344 -34.289062 15.949219 -34.609375 C 17.382812 -35.566406 18.820312 -36.523438 19.457031 -38.277344 C 20.09375 -40.03125 19.457031 -41.785156 18.980469 -43.378906 C 18.660156 -44.496094 17.703125 -44.976562 15.949219 -44.816406 C 15.949219 -44.816406 15.3125 -44.816406 15.152344 -44.65625 C 13.078125 -43.539062 11.324219 -42.421875 10.527344 -40.03125 C 10.207031 -38.4375 10.527344 -37.160156 11.484375 -36.042969 C 11.960938 -35.566406 12.757812 -35.246094 13.238281 -34.929688 Z M 34.769531 -17.863281 C 35.566406 -19.296875 35.40625 -20.253906 35.085938 -20.574219 C 33.015625 -18.5 30.941406 -16.746094 29.027344 -14.992188 C 26.632812 -12.757812 24.402344 -10.207031 21.851562 -7.972656 C 19.457031 -5.582031 16.585938 -3.347656 14.035156 -1.117188 C 12.757812 0 11.324219 0.636719 9.570312 1.117188 C 9.730469 -0.476562 10.207031 -1.914062 10.207031 -3.347656 C 10.367188 -4.945312 11.324219 -6.378906 10.84375 -7.816406 C 10.84375 -8.132812 11.003906 -8.292969 11.164062 -8.613281 C 11.324219 -9.25 11.644531 -9.886719 11.960938 -10.527344 C 12.597656 -12.597656 13.238281 -14.511719 13.714844 -16.425781 C 14.035156 -17.226562 14.355469 -18.023438 14.355469 -18.980469 C 14.511719 -19.777344 14.511719 -20.734375 14.195312 -21.371094 C 13.875 -22.007812 13.078125 -22.648438 12.441406 -23.125 C 11.960938 -23.921875 10.84375 -24.402344 10.367188 -25.199219 C 9.886719 -25.996094 9.410156 -25.675781 8.929688 -25.519531 C 8.292969 -25.519531 8.132812 -25.039062 8.292969 -24.402344 L 8.292969 -23.125 C 7.496094 -20.09375 6.699219 -17.382812 6.058594 -14.511719 C 5.421875 -12.441406 4.785156 -10.367188 4.464844 -8.292969 C 3.667969 -5.421875 3.03125 -2.390625 3.347656 0.320312 C 3.507812 0.957031 3.988281 1.277344 4.148438 1.914062 C 4.464844 2.234375 4.785156 2.710938 4.945312 3.191406 C 5.105469 3.507812 5.105469 3.988281 5.421875 4.148438 C 6.539062 4.945312 7.175781 6.378906 8.773438 6.699219 C 9.886719 7.015625 10.6875 7.496094 11.960938 7.175781 C 13.078125 6.539062 14.195312 6.058594 15.152344 5.582031 C 16.109375 5.261719 17.066406 5.105469 17.703125 4.464844 C 18.660156 3.828125 19.457031 3.191406 20.09375 2.390625 C 21.050781 1.117188 22.167969 -0.160156 23.445312 -0.957031 L 24.242188 -1.753906 C 24.5625 -2.074219 24.71875 -2.550781 25.039062 -2.871094 L 26.792969 -5.421875 C 29.027344 -8.613281 29.34375 -10.046875 29.984375 -10.84375 C 30.941406 -11.960938 34.449219 -17.542969 34.609375 -17.703125 Z M 34.769531 -17.863281" transform="translate(308.848 165.573)"/></g></g></g><g fill="#FAFAFA"><g><g><path d="M 27.910156 -31.417969 C 27.433594 -31.738281 26.632812 -32.535156 23.445312 -32.535156 C 21.53125 -32.535156 20.734375 -32.058594 19.296875 -31.738281 L 17.863281 -30.941406 C 16.746094 -30.460938 16.746094 -30.460938 15.949219 -29.824219 C 15.46875 -28.867188 14.671875 -27.910156 14.035156 -27.113281 C 13.238281 -26.15625 13.554688 -24.71875 13.398438 -23.605469 C 12.757812 -22.964844 12.917969 -21.050781 12.917969 -20.414062 L 13.554688 -19.136719 C 13.398438 -18.339844 13.714844 -17.703125 14.035156 -17.066406 C 14.832031 -15.628906 14.992188 -14.671875 15.628906 -12.757812 L 15.789062 -12.121094 L 16.109375 -11.324219 L 16.746094 -10.367188 L 17.703125 -8.453125 L 18.023438 -7.972656 L 20.253906 -2.234375 C 21.210938 0.160156 21.53125 1.277344 21.371094 3.347656 C 21.53125 4.625 21.53125 6.058594 21.210938 7.496094 C 21.050781 8.453125 20.734375 9.570312 19.9375 10.6875 C 18.660156 12.441406 17.703125 12.917969 14.671875 13.398438 C 13.714844 13.554688 12.441406 13.238281 11.644531 12.757812 C 10.367188 11.484375 9.410156 10.84375 9.410156 9.410156 C 9.570312 9.089844 9.089844 8.613281 8.773438 8.292969 C 8.132812 7.175781 7.972656 5.742188 8.292969 3.03125 L 9.25 0.796875 L 11.164062 -1.277344 L 11.003906 -2.710938 L 10.6875 -3.03125 L 10.6875 -3.191406 C 9.25 -2.550781 9.089844 -2.710938 7.816406 -1.753906 C 6.378906 -0.796875 4.785156 0.636719 3.667969 2.074219 L 3.507812 4.945312 C 3.507812 4.945312 3.191406 4.945312 3.191406 5.261719 L 3.191406 5.421875 C 3.191406 7.015625 3.667969 8.773438 4.464844 9.886719 C 5.105469 10.6875 5.742188 11.960938 6.859375 12.917969 C 7.496094 13.875 8.773438 15.152344 10.207031 16.109375 C 10.84375 17.066406 12.121094 17.066406 12.441406 17.382812 C 13.238281 17.703125 14.511719 17.703125 15.789062 18.023438 C 17.226562 18.179688 18.339844 18.339844 19.296875 18.023438 L 20.894531 17.542969 C 20.734375 17.226562 20.574219 17.226562 20.574219 17.066406 C 21.050781 17.066406 21.53125 17.066406 22.007812 16.90625 C 22.964844 16.585938 24.5625 15.152344 25.675781 13.554688 C 26.792969 12.597656 27.113281 11.003906 27.113281 10.84375 C 27.273438 9.886719 28.390625 8.613281 27.75 7.972656 C 28.070312 7.175781 27.910156 6.859375 27.75 6.378906 C 28.070312 3.988281 28.230469 2.871094 27.75 0.476562 C 27.75 0.160156 27.273438 0 27.273438 -0.320312 C 27.589844 -0.957031 27.273438 -1.117188 26.953125 -1.433594 C 26.792969 -1.914062 26.476562 -2.390625 26.476562 -3.191406 L 25.996094 -4.785156 C 25.519531 -6.21875 25.199219 -6.378906 24.878906 -7.816406 C 24.878906 -8.292969 23.921875 -8.929688 24.082031 -9.410156 C 23.921875 -9.730469 23.445312 -9.886719 23.605469 -10.207031 L 22.808594 -10.84375 L 22.328125 -12.28125 L 22.007812 -13.078125 L 21.371094 -14.195312 L 21.371094 -15.152344 C 21.050781 -15.3125 21.050781 -15.46875 21.050781 -15.949219 C 21.050781 -16.425781 20.574219 -16.90625 20.574219 -17.542969 C 20.09375 -18.820312 19.617188 -19.777344 19.777344 -21.371094 C 19.296875 -22.648438 19.296875 -23.921875 19.777344 -24.878906 C 19.9375 -25.675781 20.574219 -26.15625 21.050781 -26.476562 C 21.371094 -26.953125 21.851562 -27.273438 22.167969 -27.433594 C 22.808594 -27.910156 22.808594 -27.589844 24.242188 -28.070312 L 25.996094 -28.070312 C 27.910156 -27.589844 29.503906 -27.113281 29.984375 -26.316406 L 30.460938 -26.316406 L 30.460938 -26.476562 L 31.257812 -26.476562 L 31.417969 -26.15625 L 31.738281 -25.996094 C 31.738281 -26.632812 31.898438 -28.867188 27.910156 -31.417969 Z M 27.910156 -31.417969" transform="translate(336.279 165.573)"/></g></g></g></svg>